<?xml version="1.0" standalone="no"?>
<!DOCTYPE svg PUBLIC "-//W3C//DTD SVG 1.1//EN" "http://www.w3.org/Graphics/SVG/1.1/DTD/svg11.dtd" >
<svg xmlns="http://www.w3.org/2000/svg">
<metadata></metadata>
<defs>
<font id="bistrosketchmedium" horiz-adv-x="20" >
<font-face units-per-em="2048" ascent="1638" descent="-410" />
<missing-glyph horiz-adv-x="860" />
<glyph horiz-adv-x="0" />
<glyph unicode="&#xd;" horiz-adv-x="681" />
<glyph unicode=" "  horiz-adv-x="860" />
<glyph unicode="&#x09;" horiz-adv-x="860" />
<glyph unicode="&#xa0;" horiz-adv-x="860" />
<glyph unicode="!" horiz-adv-x="942" d="M20 61l31 -6q31 -8 64 31q18 25 36.5 33t59.5 10q63 2 63 12q0 6 -81.5 85t-81.5 85t28 11q20 2 32.5 35.5t43.5 160.5q88 367 88 576q0 74 -5 92t-30 28q-35 16 -35 29q4 8 26 7t53.5 -10t49.5 -21q23 -14 161.5 -67.5t181.5 -76.5q45 -25 61 -18.5t47 59.5q31 55 41 55 q18 0 2 -28q-6 -10 -16 -29q-45 -74 -21 -70q10 2 35 27q33 39 38 35t-26 -45q-29 -35 -25.5 -52.5t38.5 -39.5q43 -23 43 -35q0 -14 -25 -2q-12 6 -39 20l-49 31l-76 -80q-55 -59 -110.5 -159.5t-149.5 -317.5q-23 -49 -33 -80t-12 -49t6 -25.5t27 -7.5q35 0 35 -14 t-50 -14q-37 0 -55 -13.5t-55 -5.5q-76 14 -76 -6q0 -18 64 -80q53 -51 68.5 -60.5t27.5 7.5q12 16 39.5 20t40 -8t-81.5 -167.5t-111 -151.5q-20 8 23 67q35 47 12 43t-90 -57q-115 -90 -115 -39q0 12 27 12q12 0 20.5 6.5t8.5 14.5q0 20 -29 12q-16 -4 -21.5 1t-5.5 26 q0 41 -18.5 43t-42.5 -16l-25 -19q-6 4 -4 23.5t9 46t16 38.5q14 16 -19 54zM176 -72q25 -20 41 -19t49 25q35 29 37 67.5t-31 61.5q-31 23 -43 20t-43 -40q-59 -70 -10 -115zM258 352q-2 -39 3 -47t38 -10q27 -4 38 2t19 25q35 90 66 176t38 109.5t32.5 73.5t54 92 t100.5 140q53 76 53 88q0 14 -83 51.5t-130 43.5q-80 16 -113.5 15t-13.5 -44q12 -31 -2 -104q-16 -76 -56 -318t-44 -293zM348 -68q8 -10 35 13q20 16 22.5 23t-11 18.5t-20.5 9.5t-18 -21q-16 -33 -8 -43z" />
<glyph unicode="#" horiz-adv-x="1134" d="M20.5 275.5q-0.5 46.5 7 122t19.5 134.5q12 68 -5 102t-1 91q10 31 18.5 85t14.5 91t10 37t16.5 -12.5t46 -30.5t82.5 -33q66 -18 88.5 -10t24.5 55q2 27 24.5 113t26.5 151q5 76 21 115q6 14 16 47t17.5 45.5t19.5 12.5q18 0 14 -66l-4 -65l207 4q164 2 293 -12.5 t137 -37.5q2 -8 -8 -12t-37 -4q-37 0 -50 -14.5t-54 -100.5q-66 -137 -47 -153q6 -6 30 -4q25 4 32 14t9 45q8 117 31 117q6 0 7 -7.5t0 -26.5t-2 -44t1 -64.5t8 -82.5q10 -68 10 -94.5t-5 -32t-12 -54.5t-9 -143l-4 -170l-56 -4q-45 -2 -102 -23.5t-82 -44.5 q-14 -10 -16 -55t5 -84t19 -35q18 2 17 -4q0 -4 -19 -22q-49 -55 -49 -86q0 -35 -13 -35t-13 24q0 29 -17.5 35t-56.5 -2t-86 -20.5t-126 -24.5t-157 -12q-49 0 -76.5 -7.5t-33 -14.5t-12.5 -14t-21 -7q-8 0 -13.5 -6.5t-5.5 -14.5q0 -20 -14 -20q-12 0 -12 12q0 16 37 172 q37 162 51 160q10 -2 11 -10.5t-5 -28.5q-2 -12 -4 -18q-8 -39 4 -39t32.5 79.5t10.5 90t-86 -8.5q-47 -12 -61.5 -21t-16.5 -34q-4 -37 -18 -37q-8 6 -8.5 52.5zM94 467q-23 -84 6 -100q6 -4 30 1t50.5 13t52 14t43 0t17.5 -28q0 -10 -19.5 -79t-34 -132.5t-8.5 -71.5 q12 -10 62 0q35 6 40 16.5t3 61.5q-8 98 -6 131t16 41q41 18 136.5 40.5t103.5 12.5q10 -10 -8.5 -119.5t-10.5 -117.5q10 -10 56 2l47 12l-4 80q-4 68 8 89t57 32q35 6 131 41l96 34l-4 54q-6 55 -22.5 65t-75.5 -6q-68 -16 -82 -8t-8 104t22 123q10 20 105 21h94v49 q0 35 -9 42t-60 9q-98 6 -99 22q0 6 12 19q27 31 73 138.5t36 117.5q-12 12 -51 6q-29 -2 -40 -21.5t-38 -107.5q-2 -2 -4 -10q-16 -55 -23.5 -78t-19.5 -49.5t-17.5 -32.5t-23.5 -14.5t-30.5 -7t-43.5 1.5h-6h-96l4 63q2 37 17.5 97.5t25.5 102.5t4 48q-14 12 -56 18 t-48 -4q-8 -12 -43 -180q-35 -158 -50.5 -198t-46.5 -52q-25 -10 -30 -29.5t-5 -111.5q0 -127 -18 -154q-14 -18 -25.5 -18t-58.5 16q-68 23 -91.5 22t-31.5 -30zM106 612q-8 -33 3.5 -45t64.5 -26q51 -14 66.5 0t21.5 84q6 76 -6 82q-12 8 -75.5 -24t-74.5 -71zM115 754.5 q0 -21.5 12 -29.5t67.5 19.5t55.5 39.5q0 13 -43 29q-43 14 -55.5 13t-24.5 -25q-12 -25 -12 -46.5zM141 112.5q0 -14.5 13.5 -14.5t13.5 14.5t-13.5 14.5t-13.5 -14.5zM381 202q4 -75 20 -93q10 -10 58 0q33 8 43 23t24 85q23 95 17 105q-6 14 -65.5 0.5t-86.5 -33.5 q-14 -12 -10 -87zM449 581.5q6 95.5 24 118.5q14 16 105.5 17.5t109.5 -17.5q16 -16 16.5 -94t-16.5 -90q-10 -8 -64.5 -23.5t-80.5 -35.5q-33 -27 -52.5 -27t-33.5 29q-14 27 -8 122.5zM489 504q5 -4 86 28q53 20 67.5 34t16.5 42q6 42 -10 62q-12 16 -25.5 17t-70.5 -9 q-35 -6 -43 -18.5t-16 -69.5q-10 -82 -5 -86zM600 930q6 -18 46 -19.5t54 15.5q12 16 43 114t31 123q0 20 -46 22.5t-61.5 -17t-44 -122t-22.5 -116.5zM817 643q2 -18 17.5 -23.5t68.5 -5.5h84v123l-74 4q-49 4 -62 -1t-24 -31q-14 -37 -10 -66z" />
<glyph unicode="$" horiz-adv-x="1198" d="M33 16q-25 0 18 74q90 158 119 229q31 76 43 89q23 27 68 -66q12 -25 26 -59q29 -74 53.5 -99.5t51.5 -9.5q37 25 155 332l39 98l-82 72q-39 35 -66.5 66.5t-37.5 48t-19.5 26.5t-19.5 10q-14 0 -15 11.5t7 44.5q2 18 4 29.5t6 34t6 44.5q10 76 41 149.5t35 102.5 q12 57 24 60q10 4 11 -29q0 -25 6 -29t37 0q61 8 123 8q57 0 71.5 6.5t30.5 43.5q12 29 23.5 37t20.5 7t41 -6.5t67 -5.5q76 0 94 -63q10 -33 -10 -33q-72 0 32 -74q31 -23 47.5 -33t28.5 -13t16.5 3t8.5 21q6 29 22.5 28.5t7.5 -20.5l-16 -41q-8 -20 14 -20q8 0 11.5 -3.5 t2.5 -12.5t-6.5 -23.5t-15.5 -40.5q-25 -68 -46 -102t-30 -56q-14 -31 -36.5 -36t-30.5 22q-16 53 -42 102t-48.5 74.5t-32.5 15.5t-41 -129l-31 -121l82 -82q82 -82 103 -120q18 -37 32.5 -30t14.5 52q0 49 13 49t13 -39q0 -51 -22.5 -202.5t-36.5 -204.5q-20 -70 -29 -107 q-8 -39 -22 -39q-16 0 -9 49q8 47 0 46q-113 -55 -156.5 -69.5t-111.5 -16.5q-98 -4 -108 -25q-16 -27 -33 -114t-8 -97q12 -12 -13 -43q-16 -18 -34.5 -24.5t-61.5 -6.5q-45 0 -57.5 4t-12.5 23q0 10 -6 18.5t-14 8.5q-20 0 -20 -13.5t-21 -13.5q-33 0 0 86q12 31 31 61 l33 60l-62 24q-59 27 -110 86q-37 43 -47.5 47.5t-32.5 -16.5q-18 -14 -35 -44t-27 -50.5t-18 -20.5zM221 244q-33 -82 31 -135q31 -27 77 -42.5t58 -3.5q6 4 -14.5 28t-52.5 61.5t-46 66.5q-35 72 -53 25zM377 -94l37 -15q20 -8 33.5 -8t21.5 7.5t13 18.5t10.5 30.5t9.5 39 t12 47t18 52.5q12 31 29 36t98 7q74 0 119 12t65.5 23.5t35.5 11.5q23 0 56.5 47t47.5 94q12 51 6 119t-28 113q-23 47 -115 133l-90 84l30 135q33 133 45 166q12 31 36 32t51.5 -18.5t54 -43t48 -44t28.5 -20.5q10 0 26 36q12 25 9 36.5t-23 33.5q-25 27 -75 53.5t-70.5 48 t-4.5 52.5q10 18 7.5 25.5t-27.5 17.5q-41 14 -59.5 9t-40.5 -44q-23 -39 -40.5 -44t-70.5 9q-49 14 -100.5 -1t-77.5 -50q-31 -43 -48.5 -121t-9.5 -129q12 -63 53.5 -115.5t82.5 -77t70.5 -46t23.5 -35.5q-16 -51 -95 -231.5t-110 -239.5q-43 -80 -43 -122t-20 -75z M545 979q6 47 34.5 84t63.5 43q78 16 100.5 -5.5t12.5 -105.5q-8 -80 -26.5 -134t-39.5 -58q-23 -4 -88 57q-47 45 -55 61.5t-2 57.5zM596 963.5q2 -39.5 35 -62.5q35 -23 47 -10.5t25.5 80.5t7.5 80q-8 14 -37 9t-51 -26q-29 -31 -27 -70.5zM616 180q-4 8 37 117.5 t76 177.5q20 39 51 35t78 -53q39 -37 46 -56.5t7 -72.5q0 -45 -6 -68.5t-28 -48.5q-27 -31 -46.5 -37t-97.5 -6q-109 0 -117 12zM686 206q8 -13 45 -10t70 19t53 62t8 77q-10 29 -38.5 58.5t-42 29.5t-58.5 -111.5t-37 -124.5z" />
<glyph unicode="%" horiz-adv-x="1456" d="M27 879q-16 16 20 49l37 35l-29 55q-33 68 -22 65q6 0 37 -36l41 -48l30 39q47 61 123 134t88 71q17 -4 25 8q14 23 18 13q2 -6 -2 -23q-10 -29 56.5 -84t82.5 -49q6 2 17.5 -7t19.5 -24q12 -27 11.5 -36t-15.5 -17q-20 -14 -44.5 -116.5t-23.5 -126t33 -23.5 q35 0 35 -13.5t-43 -13.5q-27 0 -42 -15.5t-16 -30.5t-9.5 -20.5t-20.5 17.5q-18 23 -75.5 24t-104.5 0t-47 19q0 16 -28.5 65.5t-39.5 75.5q-14 35 -30.5 41t-27.5 -9t-26.5 -22.5t-27.5 3.5zM29 332q0 12 3 13t13 -9q16 -18 33.5 -16t17.5 20q0 16 12.5 19t22.5 -13 q10 -14 74.5 24t134.5 96t78 58q14 0 121.5 93.5t144.5 136.5l139 159q88 100 150 193q41 61 49 82.5t-2 42.5q-14 33 -6 41t17 9t22.5 -3t28 -12.5t33 -22.5t36.5 -29.5t42 -35t46.5 -39t52 -43t56.5 -43.5q125 -96 77 -105h-20q-29 4 -171 -62.5t-224 -123.5 q-125 -86 -269.5 -225.5t-229.5 -236.5t-85 -110q0 -8 65.5 52.5t133 124t71.5 57.5q8 -8 -114 -125q-90 -84 -184.5 -192.5t-94.5 -124.5q0 -10 -36 -43t-48 -33t-12 24q0 47 -52.5 177.5t-82.5 162.5q-43 43 -43 62zM172 279q-6 -10 37 -102.5t53 -88.5t121 141 q106 133 293.5 315.5t290.5 254.5q70 47 157.5 93t135 68.5t47.5 28.5q0 10 -78 80q-12 8 -33 27q-84 76 -102 75q-16 0 -43 -45q-8 -12 -13 -20q-51 -80 -149 -195l-144 -172q-45 -55 -122.5 -135t-87.5 -80q-8 0 -39 -23.5t-93.5 -69.5t-126.5 -85q-96 -57 -104 -67z M193.5 929.5q-0.5 -100.5 70.5 -149.5q82 -57 139 23q61 80 35 201q-10 47 -35 86q-27 47 -62.5 52t-72.5 -36q-74 -76 -74.5 -176.5zM251 962.5q-5 28.5 12.5 50t51.5 17.5q23 -2 30 -11t7 -38q0 -43 -22 -61t-49 -2q-25 16 -30 44.5zM729 464.5q-6 6.5 21 24.5 q37 29 41 21q2 -6 -21 -25q-35 -27 -41 -20.5zM766 340q-8 8 27.5 62.5t50.5 54.5q10 0 142.5 136t146.5 163q6 10 10 13t7 0t11 -17q39 -66 99.5 -129.5t60.5 -8.5q0 20 13.5 20.5t13.5 -51t36 -87.5q39 -41 25 -52q-6 -4 -29 13q-39 33 -45 -43q-2 -12 -2 -27 q0 -98 -49 -191.5t-125 -140.5q-37 -23 -142.5 -40t-113.5 -25q-14 -14 -35 -15q-14 0 -18 18.5t-6 74.5q-8 264 -45 264q-25 0 -33 8zM850 539q-14 0 4 20q20 25 25 10q4 -14 -15 -26q-6 -4 -14 -4zM860 416q-12 -20 2 -27q6 -4 12 2q10 10 3 31q-4 10 -17 -6zM888 44 q-7 -13 5 -19q8 -6 15 -1t7 13t-6 12q-14 8 -21 -5zM901 174q6 -41 41 -71.5t74 -30.5q35 0 96 28q74 37 116 122t36.5 178.5t-60.5 148.5q-45 45 -67 45q-23 0 -82.5 -51t-85.5 -97q-33 -55 -54.5 -142t-13.5 -130zM1018 285q-18 23 0.5 88.5t30.5 79.5q33 41 61 -7 q18 -29 18 -75q0 -61 -38.5 -93t-71.5 7zM1114 655q14 -8 42 0.5t28 20.5q0 4 -7.5 15t-20.5 16.5t-34 -15.5q-23 -27 -8 -37z" />
<glyph unicode="&#x26;" />
<glyph unicode="'" horiz-adv-x="550" d="M22.5 616.5q-4.5 8.5 0 38t20.5 86.5q39 139 55 138q8 0 13 -21q16 -61 26 -10q6 31 6 94q0 98 10.5 165t22.5 90.5t19.5 40.5t5.5 32q-2 12 2 18t17 6t37 -4t65 -14q123 -31 124 -47q12 -98 48 -99q20 0 20 -8q0 -14 -49 -134t-72 -159q-37 -63 -55 -49q-8 6 -6 33 q4 29 0 29t-33 -29t-71 -64.5t-74 -52.5q-18 -10 -44 -28.5t-41.5 -31.5t-28.5 -20.5t-17.5 1zM180 774q6 -6 50 36t93.5 99.5t69.5 89.5q39 70 39 114t-43 77q-43 37 -88 37q-57 0 -82.5 -46t-24.5 -108.5t0 -129t-8 -107.5q-14 -55 -6 -62zM504 1200q-4 10 2 12 q10 4 22 -14q8 -12 -10 -14q-8 0 -14 16z" />
<glyph unicode="(" horiz-adv-x="911" d="M20 330q0 27 21 78q31 74 21.5 137t5 63t14.5 -27.5t14 -27.5q18 0 49 72.5t99 273.5q23 66 37 66q8 0 0 -35q-8 -33 2 -33q18 0 93 92t152.5 165t122.5 93q27 14 42.5 31.5t15.5 26t9 12.5t23 -8q14 -6 35 -26.5t58 -37.5q47 -18 47 -39q0 -12 3 -24.5t6 -19.5t1 -10 t-10.5 1t-26.5 14q-31 18 -39 18.5t-18 -18.5q-14 -25 -41 -24q-31 0 -103.5 -87t-117.5 -182q-37 -76 -56.5 -158.5t-21.5 -145t-2 -116t-3 -81t-18 -27.5q-12 0 -16 -14.5t-4 -57.5q0 -129 75 -297q33 -76 52.5 -95t48.5 -3q39 20 39 -6q-2 -18 -25 -43q-31 -33 -43 -33 q-6 0 -29.5 -16.5t-65.5 -42t-85 -43.5q-37 -16 -98.5 -46t-96 -44.5t-53.5 -12.5q-27 4 33 39q12 8 31 19q137 78 73 78q-18 0 -43.5 42t-52.5 109q-33 92 -70 416q-10 76 -24 76q-10 0 -29 -29q-31 -45 -31 -12zM174 299q2 -160 17.5 -255t56.5 -187q16 -37 28.5 -48.5 t36.5 -11.5q37 0 99.5 24.5t60.5 37.5q0 14 -43 102q-41 90 -56.5 171t-15.5 212q0 170 26 289t93 256q47 94 98.5 162.5t85 95.5t57 46.5t23.5 29.5q2 33 -57 -11q-14 -10 -33 -24q-127 -100 -240.5 -251t-183.5 -310l-53 -123v-205z" />
<glyph unicode=")" horiz-adv-x="724" d="M23 -170q14 -2 47 -41q14 -17 14 -25q0 -12 55.5 -87.5t55.5 -79.5q0 -16 -21 -3q-12 8 -16 19q-6 20 -67.5 110.5t-67.5 100.5q-4 6 0 6zM60.5 -118q7.5 9 29.5 16q45 12 117 108t126 213t54 180q0 41 27 52q53 16 35 258q-12 180 -87 368l-34 94l28 31q29 31 64 33 q39 2 35 -14q0 -6 -13 -15q-18 -12 -8 -34.5t76 -120.5q82 -125 82 -135.5t55 -75.5q66 -78 55 -113q-2 -10 -14 -10t-12 24q0 20 -15.5 40t-29.5 20q-10 0 -10 -103.5t12 -103.5q16 0 17 -35t-11 -96.5t-26.5 -127t-32 -144t-23.5 -130.5q-10 -72 -29 -71q-8 0 -14 -8.5 t-17.5 -26.5t-27.5 -43t-52 -67t-81 -87q-68 -66 -89.5 -93t-12 -36.5t12.5 -18.5t0 -14.5t-11 -5.5q-14 0 -15 19q0 12 -7 21.5t-25.5 32t-36.5 54.5q-14 29 -35 59.5t-34 47t-21.5 33t-1 25.5zM137 -160l39 -49q39 -49 51.5 -49t81.5 59q203 174 250 559q18 145 18 229.5 t-16 190.5q-10 55 -23.5 98.5t-25.5 66t-25.5 37.5t-21.5 19.5t-12 4.5q-14 0 -4 -25q18 -43 39.5 -165t21.5 -187q0 -104 -37 -224t-91 -220.5t-106.5 -176.5t-91.5 -119zM399 538.5q0 14.5 14.5 14.5t14.5 -14.5t-14.5 -14.5t-14.5 14.5z" />
<glyph unicode="*" horiz-adv-x="755" d="M20 1034q0 23 32 44.5t59 15.5t64.5 12t51.5 10q51 -27 65.5 -20.5t20.5 59.5q14 160 105 84q33 -29 16 -45q-8 -8 -12 -48t-1 -76t11 -36t18.5 13.5t40 43t74.5 60.5q51 35 67.5 39t39.5 -10q33 -23 47 -58q8 -16 11 -24t3 -14.5t-2 -7.5t-10 -1q-12 0 -67.5 -59.5 t-55.5 -73.5t68 -80q45 -41 57 -61.5t12 -52.5q0 -51 -18 -76q-12 -18 -26.5 -15.5t-74.5 37.5q-84 49 -100 70q-35 43 -35 -16q0 -16 4 -60q8 -135 -18 -143q-25 -10 -39 11.5t-33 96.5q-20 92 -33.5 92t-42 -35.5t-85 -75.5t-78.5 -40q-29 0 -46.5 48t-11.5 96t33 48 q16 0 23.5 12.5t23 33t43.5 32.5q47 25 47 39.5t-78 36.5q-66 20 -118 49t-52 45zM137 1034q-6 -12 27 -26q27 -12 88 -29q78 -20 86 4q6 18 -41 43q-35 18 -92.5 20.5t-67.5 -12.5zM182 672q18 -12 86 66.5t68 111.5q0 47 -72 -35q-43 -47 -68.5 -92t-13.5 -51zM350 1116.5 q0 -26.5 13.5 -26.5t13.5 26.5t-13.5 26.5t-13.5 -26.5zM465 938q20 0 110 84t82 96q-29 45 -137 -65q-113 -115 -55 -115zM528 844q0 -12 55.5 -62.5t67.5 -50.5q53 0 -20 62q-72 57 -99 55q-4 0 -4 -4z" />
<glyph unicode="+" horiz-adv-x="1046" d="M21.5 595q-1.5 97 3.5 163q12 96 30 92q14 -2 17 -66l4 -73l96 -9q51 -6 100.5 -14t77 -15t51 -12.5t34.5 -3.5t16 15q4 10 -2.5 84.5t-15.5 167t-11 102.5q-2 27 -28.5 26t-51.5 -9.5t-35 20.5q-2 12 12.5 20.5t55.5 18.5q47 10 105.5 30.5t97 36t45.5 15.5q27 4 -7 -27 l-12 -12q-18 -14 -24.5 -48t-10.5 -149q-2 -12 -2 -37q-4 -47 -5 -65.5t4 -40t9.5 -25.5t25 -5t36.5 3t59 15q20 6 33 8q137 35 168 53t27 59q-4 55 18 66q8 4 14 -2q4 -4 19.5 -100.5t31 -199t19.5 -112.5q6 -23 -27 -37q-20 -10 -30.5 -7t-22.5 22q-14 23 -28.5 22.5 t-86.5 -16.5q-94 -25 -153.5 -25t-67.5 -20q-6 -18 35 -152.5t62 -161.5q10 -16 24 -16t66 14q74 23 82 15q10 -10 -19 -21q-10 -4 -47 -16q-145 -45 -293 -100q-94 -35 -121 -35q-31 0 -26 10q2 14 41 22q33 8 39 27t-21 35q-25 14 -8 33q16 14 18 175t-12 171 q-12 6 -153.5 -29t-178.5 -53q-43 -23 -43 -55.5t-12 -40.5q-8 -4 -14 84t-7.5 185zM78 485q4 -6 42 4.5t112.5 24.5t146.5 14l110 4l15 -370l61 4q61 4 72 14q8 6 -10.5 68.5t-40 138.5t-19.5 107q2 16 3 23t4.5 14.5t11.5 10.5t18 7t31.5 8t44 9t63.5 13.5t82 18.5l76 18 v72q-2 70 -14 84q-12 12 -171 -26.5t-167 -32.5q-12 6 -12 170t-11.5 170t-36.5 -11q-18 -14 -18 -39.5t16 -148.5q33 -252 13 -264q-6 -4 -69.5 10t-146.5 31.5t-124 19.5l-70 4l-8 -82q-10 -82 -4 -88zM907 209q0 14 21.5 14t21.5 -14t-21.5 -14t-21.5 14z" />
<glyph unicode="," horiz-adv-x="481" d="M27 -119q-14 20 2 21q14 2 32 -17q20 -18 29.5 -15t44.5 36q27 27 38 49t15 65q6 72 0 112t-20 61.5t-28.5 27.5t-26 12.5t-11.5 14.5q0 10 113 10h115l4 43q4 41 18 45q10 2 10 -35q0 -16 7.5 -28.5t15.5 -17.5t14.5 -8t4 -8t-16.5 -13t-15 -18.5t5 -20t13 -26.5t7 -38 q0 -20 9.5 -23.5t46.5 11.5q16 6 0 -15q-6 -10 -29 -34q-61 -70 -62 -86q0 -23 -153 -156q-25 -20 -39 -20q-18 0 -77.5 29.5t-65.5 41.5zM232.5 180.5q-3.5 -14.5 2 -38t12.5 -47t13 -47t6 -35t6.5 -17.5t12.5 -4q20 6 35.5 43t15.5 74q0 27 -8 40t-33 25q-41 20 -49 21 q-10 0 -13.5 -14.5z" />
<glyph unicode="-" horiz-adv-x="702" d="M21 441.5q2 185.5 16 197.5q10 10 20 -18q2 -6 4 -15l13 -47h184q121 0 163 5t77 24q119 61 118 28q0 -23 13.5 -22.5t13.5 96.5t13.5 96t13.5 -147q0 -59 3 -118.5t5 -95.5t4 -65.5t0 -42t-10 -12.5q-14 0 -14.5 55.5t-16.5 55.5q-14 -6 -10 -28.5t1 -55.5t-20 -43 q-20 -10 -26 -1t-15 52q-4 23 -59 25t-289 -15l-164 -10l-8 -45q-2 -18 -8 -30.5t-12 -12.5q-12 4 -10 189.5zM107.5 453q-1.5 -33 15.5 -47q16 -12 207.5 4t206.5 30q12 12 8 45q-4 20 -15.5 26.5t-52.5 8.5q-59 2 -194.5 -8t-155.5 -18q-18 -8 -19.5 -41zM616 484.5 q0 -27.5 13.5 -27.5t13.5 27.5t-13.5 27.5t-13.5 -27.5z" />
<glyph unicode="." horiz-adv-x="296" d="M23 166q-8 25 4 29t22 -21q6 -10 14.5 -10t21.5 9t25.5 20.5t25 20.5t18.5 9q4 0 38.5 -42t57.5 -42q39 0 22 -41q-8 -18 -26 -39q-94 -100 -66 -118q10 -6 -4 -28t-38.5 -41t-39.5 -19q-29 0 -32 12t22 31l31 22l-43 107q-43 109 -53 141zM121 6q-8 -12 6.5 -23t24.5 -1 q4 4 -2.5 14t-14.5 14t-14 -4zM131 74q14 -23 29 0q8 10 8 26q0 27 -14 27t-22.5 -20.5t-0.5 -32.5zM211 -62q0 3 16 15q37 29 37 16q0 -6 -43 -28q-10 -6 -10 -3z" />
<glyph unicode="/" horiz-adv-x="960" d="M27 287q20 -4 63 -56q55 -63 74 -63q16 0 59 53t43 74q0 18 13 33q12 10 86.5 193.5t128.5 332.5q51 141 80.5 152.5t11.5 13.5q-23 0 -17 20t27 21q14 0 24.5 16.5t22.5 57.5q29 98 31.5 145t-17.5 80q-16 29 -16 50.5t8 28.5t15 5q16 -6 146 -174t130 -183 q0 -33 -66 31l-43 43l-28 -47q-29 -47 -29 -80q0 -80 -114.5 -417.5t-141.5 -337.5q-10 0 -13 6t2 27.5t17.5 54t36.5 90.5q41 96 91 246.5t63 209.5q10 63 -8 50q-49 -35 -162 -320q-2 -6 -4 -14q-61 -156 -120 -384.5t-59 -316.5l-2 -43l-55 62q-57 63 -106 96 q-45 31 -92.5 82t-47.5 70q0 16 -22 49q-29 47 -10 43zM230 114.5q3 -10.5 8.5 -18.5t21.5 -26q39 -39 57.5 -24t18.5 38q0 12 49 225q23 94 12 99q-8 4 -43 -64l-4 -4q-25 -51 -51.5 -96t-37.5 -64.5t-22.5 -37t-8.5 -28zM698 1090q10 -4 47 47q29 39 34 55.5t-5 28.5 q-43 51 -67 -50q-18 -78 -9 -81z" />
<glyph unicode="0" horiz-adv-x="1024" d="M20 793q0 8 17 30q39 61 31 95q-8 33 11 32.5t25 -16.5q8 -25 36 10t70 103.5t62 93.5q31 35 108 89t114 66q27 10 100 11q51 2 72.5 -6.5t60.5 -40.5q59 -47 66 -48q6 0 0.5 48.5t5.5 48.5q14 0 24 -52q12 -70 48 -188.5t44 -118.5q18 0 13 129q-4 49 12 51q10 2 18 -20 q4 -12 16.5 -117.5t22.5 -136.5q16 -43 0 -41q-8 0 -20 19q-29 37 -29 12q0 -16 13 -53q23 -61 8 -60q-6 0 -23 21q-18 27 -33 12q-6 -8 -76.5 -220t-88.5 -235q-25 -27 -35 -61q-10 -35 -32 -65.5t-34 -30.5q-14 0 8 24q33 37 21 55q-2 2 -8 3q-12 0 -54.5 -41t-50.5 -60 q-8 -25 -21.5 -16.5t-13.5 -7.5q0 -18 -8 -7q-16 27 -24 -4q-4 -18 -17.5 -22t-56.5 0q-55 4 -169 42t-140 38q-39 -2 -39 16.5t-21 34.5q-31 27 -16 37q4 4 12 2q20 -4 23 43q2 47 -19 67q-14 16 -14 47t14 146q10 78 14.5 123t3.5 72.5t-8.5 36t-19.5 5.5q-23 -4 -23 5z M100 222.5q0 -13.5 14.5 -13.5t14.5 13.5t-14.5 13.5t-14.5 -13.5zM123 504q0 -94 6 -128t35 -91q39 -76 85 -111t113 -35q115 0 225.5 108.5t179.5 280.5t69 351q0 80 -6.5 115.5t-30.5 82.5q-37 74 -90 125q-47 47 -101.5 60.5t-79.5 -15.5q-18 -20 -45 -20 q-33 0 -138 -111.5t-136 -177.5q-82 -180 -86 -434zM240 639q-2 254 133 342q41 27 92 25t86 -33q29 -23 34 -45.5t5 -116.5q0 -86 -7.5 -122t-35.5 -95q-57 -121 -119.5 -166t-116.5 -4q-70 51 -71 215zM296 644q-1 -89 26 -144q27 -43 38 -43q43 0 103.5 101t79.5 204 q12 66 6 100.5t-31 63.5q-20 23 -39.5 24.5t-51.5 -14.5t-38 -18q-37 -10 -64.5 -97.5t-28.5 -176.5z" />
<glyph unicode="1" horiz-adv-x="841" d="M20 -4q4 27 29 45q16 12 18.5 31.5t-3 39t-10.5 49t-3 54.5q2 29 0 84q0 45 15.5 101.5t29.5 56.5q4 0 7 -27t6.5 -72t7.5 -73q6 -35 16 -46.5t41 -19.5q4 -2 12 -2q29 -8 39.5 -11t24.5 0t18 7t10.5 25.5t8.5 40t6 63.5q2 12 2 18q14 127 74 402q23 102 -4 104 q-12 2 -41 -12q-45 -23 -62.5 -46.5t-17.5 -57.5q0 -43 -10.5 -44t-28.5 37q-16 41 -8 152q12 131 -7 141q-12 6 -55 -16q-63 -33 -59 -12q6 18 74 67q80 59 79.5 70.5t28.5 11.5q10 0 133 48t201 48q47 0 80 29q57 47 80 21q12 -14 -7 -48q-39 -78 -164.5 -580.5 t-97.5 -531.5q6 -6 57.5 7.5t115 29t87.5 15.5q37 0 45 20q20 53 29 -25q4 -53 4 -174q0 -219 -13 -219t-13 67.5t-17 78.5q-10 6 -134 7t-284.5 2t-232.5 7q-76 6 -92.5 12t-14.5 25zM133 92q0 -35 14.5 -35t14.5 35t-14.5 35t-14.5 -35zM197 37l170 -10q172 -8 276 -13 l102 -4l-4 53q-2 55 -14 66q-6 8 -63.5 -7.5t-124 -34.5t-88.5 -21q-25 0 -30 8t-3 45q4 201 61 426l72 289q29 111 48.5 206t23.5 115q8 27 -5 27q-16 -2 -108 -47q-100 -47 -166 -58l-65 -10l-11 -74q-10 -76 0 -86t92 23t97 8q4 -8 -19.5 -120.5t-54.5 -272.5t-39 -254 l-10 -144l-70 -8q-51 -4 -59 -11t-8 -42v-49zM524 199q-8 8 39 184q29 102 55 209q10 49 14.5 59.5t12.5 10.5q6 0 7 -8.5t-5 -40t-18.5 -81t-38.5 -145.5q-51 -193 -60 -192q-2 0 -6 4zM643 703.5q0 13.5 13.5 13.5t13.5 -13.5t-13.5 -13.5t-13.5 13.5z" />
<glyph unicode="2" horiz-adv-x="1153" d="M20 -20q0 16 31 67q35 61 155 234.5t161 222.5q35 41 94 143.5t92 177.5q27 61 39 62q4 0 6 -4q8 -12 15.5 -11.5t25.5 17.5q39 35 20 2q-12 -20 -61 -90q-41 -55 -41 -60q0 -2 -39 -67.5t-73.5 -131t-30.5 -71.5q6 -4 40.5 31t68.5 73.5t34 49.5q0 10 64 96 q135 184 145 291q4 49 -31 49q-49 0 -123.5 -59.5t-124 -122t-43.5 -74.5q6 -18 -16 -18.5t-22 16.5q0 10 -25 69.5t-46.5 114.5t-17.5 60q8 6 21 -13q25 -39 22 15q0 59 -30 168q-8 23 7 22.5t15 -15t35 -59.5l35 -45l78 51q76 49 169 67.5t149 13.5t63 -13q8 -12 41 -12 q18 0 37.5 -16.5t34 -35t29.5 -33t28.5 -10t27.5 34.5q18 43 31 17q20 -49 -33 -176q-2 -4 -4 -9q-20 -43 -35 -110q-16 -74 -78.5 -198t-105.5 -169q-49 -51 -35 -59q12 -8 98.5 8t100.5 29q12 12 37 12q23 0 34 61.5t27 61.5q10 0 14.5 -7t2 -24.5t-7.5 -38t-15 -54.5 t-20.5 -66.5t-24.5 -82t-27 -92.5q-39 -141 -82 -170q-16 -12 -20 19v12q0 23 -18.5 26t-118.5 1q-158 -4 -322 -34t-257 -53.5t-107 -19.5q-20 8 -50 -35q-43 -57 -43 -36zM221 139q4 -4 36 3.5t181.5 32t372.5 46.5l94 8l31 93q33 94 22.5 99t-159.5 -30 q-219 -51 -224 -26q0 14 56 53q16 12 37 24q90 59 120 88q39 35 92.5 150t80.5 225l34 135l-28 54q-57 100 -186.5 110t-266.5 -90q-49 -39 -74 -39q-14 0 -16 -9t2 -36q16 -76 32.5 -81t67.5 46q86 82 170 111t109 -16q47 -90 -48 -261.5t-364 -480.5q-176 -201 -172 -209z M627 952q0 33 16 35q6 0 8 -8q4 -16 -10 -33t-14 6z" />
<glyph unicode="3" horiz-adv-x="864" d="M20 977q-14 23 118 125t204 133q59 25 199.5 15.5t181.5 -42.5q16 -10 37.5 4.5t21.5 34.5t14.5 20.5t14.5 -40.5q0 -27 12.5 -45.5t18.5 -23.5t-4 -30q-14 -25 -15 -81q0 -35 -4 -44.5t-18 -3.5q-10 0 -13.5 1t-10.5 -6t-12 -14t-16.5 -23.5t-24.5 -33t-35.5 -44 t-51.5 -58.5q-88 -94 -88 -96t15.5 -4t43 -9t57 -21.5t64.5 -47.5t61.5 -81t33.5 -79.5t5 -115.5q0 -76 -6 -112t-26 -73q-68 -135 -199 -205q-45 -23 -78 -29.5t-102 -6.5q-109 0 -156 24q-57 31 -53 15q0 -10 24 -31q33 -27 23 -37q-4 -6 -23.5 9.5t-48 34.5t-51 19 t-30 7.5t-7.5 27.5q0 33 -14 60.5t-19.5 41t11.5 60.5q16 37 26.5 130t16.5 118q4 23 3 34t-7.5 15t-12.5 17.5t-9 37t1 74.5q8 100 25 90q4 -2 12 -20q6 -18 23.5 -3t67.5 74.5t100.5 106.5t44 57t-65.5 -22l-145 -78q-31 -16 -35 -17q-4 0 -10 48q-18 150 -48 151 q-6 0 -14 -6q-18 -16 -27 -2zM154 147l4 -65l94 -51q90 -47 159.5 -49t155.5 41q94 45 149.5 127.5t63.5 167.5t-15.5 165t-74.5 127q-49 47 -121.5 56.5t-115.5 -23.5q-18 -16 -67.5 -15t-49.5 17q0 8 80 70.5t177 152.5t130 158q14 29 14 44t-14 48q-20 50 -51 70 q-80 53 -204 20.5t-241 -135.5q-47 -41 -54 -57.5t-1 -57.5q8 -55 13 -60t149 58q117 51 152.5 59.5t43.5 -18.5q8 -23 -30 -51q-51 -37 -196.5 -195.5t-135.5 -189.5q8 -18 133 -43q113 -23 161 -49.5t68 -75.5q14 -37 11.5 -96t-23.5 -115q-37 -104 -134 -106t-167 98 q-45 61 -56 50t-7 -77zM162 492q-16 -16 1 -88t52 -130q76 -127 146.5 -145t109.5 80q27 68 22 114t-44 85q-27 27 -65 45t-75 26t-69.5 12.5t-54 3.5t-23.5 -3z" />
<glyph unicode="4" horiz-adv-x="1134" d="M20 426q0 45 27 115q10 25 16.5 28.5t17.5 -5.5t38.5 10.5t99.5 91.5q211 205 322.5 351t109.5 210q0 23 13.5 37t31 20t29.5 16.5t10 26.5q-6 27 23 21q14 -2 47 -15q68 -27 88 -18q16 6 56 -20.5t52 -26.5q18 0 18.5 -14.5t-33.5 -14.5t-44 -16q-14 -23 -50 -135.5 t-32 -118.5q2 -2 6 4t10.5 17t13.5 25.5t15 32t15.5 34t13.5 32.5t10 29q8 25 27 31q8 2 8 -7q0 -12 -49 -136t-70 -167q-72 -139 -49 -151q14 -10 102 18.5t103 48.5q4 6 9 11.5t8 7.5t5 2q37 -53 37 -150q0 -31 6 -79t14.5 -90t14.5 -82t4 -61.5t-12 -16.5q-18 6 -33 67 l-16 60l-121 4q-123 4 -135 -9q-18 -18 37 -156t88 -155q31 -14 30 -20q0 -6 -88 -42t-186 -78t-119 -59q-25 -20 -49 -6q-12 8 -4 21q6 10 10 82.5t7 191.5t3 158l6 111l-61 4q-47 2 -131 -27t-164 -37q-98 -8 -119 -26q-37 -31 -37 20zM184 518q4 -4 34 1t96.5 15.5 t134.5 14.5h10q37 2 52 4t36.5 -2t28 -5t16.5 -16.5t10 -25.5t1 -43t-2 -55.5t-7 -75.5q0 -10 -2 -17q-16 -201 -8 -209t123 13l114 18l-4 53q-2 31 -31.5 102.5t-54 129t-20.5 65.5q8 12 159 13q133 0 150 16q16 18 4 96l-6 40.5t-12.5 24.5t-19.5 12t-33.5 -3t-50 -12 t-77.5 -25q-135 -45 -147 -33q-8 8 25.5 101.5t71.5 195t38 119.5q0 27 27.5 103.5t27.5 95.5q0 25 -45 24q-39 0 -63.5 -21.5t-48.5 -80.5q-25 -59 -160 -215t-253 -285t-114 -133zM414 688q2 20 84 105q59 61 92 106q82 104 78 27q-4 -84 -62 -211q-12 -29 -18 -33 q-27 -20 -101 -20t-73 26zM457 -80q0 14 13 14t13 -14t-13 -14t-13 14zM504 719q2 -4 12 -10q23 -8 43.5 9t20.5 42q0 51 -54 -6q-14 -16 -19 -23.5t-3 -11.5z" />
<glyph unicode="5" horiz-adv-x="899" d="M20 392q-2 5 15 28q29 43 178 92q82 25 154.5 61.5t68.5 51.5q-8 23 -87 57.5t-126 34.5q-59 0 -67 20q-4 12 8 92t26.5 177.5t14.5 138.5q0 76 37 96q16 10 30 -4t248 -8q162 4 205 9.5t68 25.5q59 47 59 20q0 -25 -17.5 -102.5t-25.5 -88t-5 -49t-9 -73.5 q-14 -39 -21 -21q0 2 -2 4q-4 16 -8 20.5t-12.5 -0.5t-24.5 -26l-27 -30l-8 28q-6 18 -24.5 25.5t-81.5 13.5q-195 18 -195 -20q0 -16 50.5 -33t130 -50.5t130.5 -84.5q37 -37 73 -108t36 -105q0 -31 8 -33q16 2 21 57q6 59 22 66q4 0 8 -8.5t6.5 -33t2.5 -64.5v-103 q0 -215 -13.5 -215t-13.5 62.5t-10.5 62.5t-83.5 -82q-59 -68 -127 -107t-115 -48t-87 -20.5t-50 -27.5q-8 -14 -17.5 -13t-13.5 9t-20.5 15.5t-38.5 2.5q-39 -8 -101.5 58.5t-87.5 142.5q-14 45 -26.5 61.5t-28.5 18.5q-23 2 -25 7zM152.5 386q-5.5 -32 54.5 -107 q59 -76 95 -94.5t108 -12.5q111 12 205 70.5t133 136.5q33 72 13 176t-83 186q-33 43 -117 84t-164 54q-66 8 -78 31.5t17 88.5l20 52l148 -9q150 -10 174 -12q31 -4 47 65t12 85q-4 10 -51 14t-182 4q-225 0 -234 -8q-4 -4 -6 -39t-7 -105.5t-15 -136.5q-18 -117 -13 -125 q2 -4 46 -14t119 -46t143 -103q174 -174 12 -322q-94 -84 -176 -27q-18 12 -23.5 33t-5.5 82q0 96 -13.5 104.5t-94.5 -34.5q-78 -39 -83.5 -71zM401 428q2 -80 7.5 -98.5t25.5 -22.5q29 -4 78 40t57 81q13 59 -65 147q-27 29 -38 29t-40 -29q-18 -23 -23.5 -47t-1.5 -100z " />
<glyph unicode="6" horiz-adv-x="1110" d="M20 610q0 31 138.5 268.5t142.5 247.5q12 41 47 62q16 8 17 -6q0 -18 -23 -52q-27 -37 -11.5 -35.5t60.5 38.5q55 47 132 83.5t124.5 51t59.5 14.5q18 0 28 7t13.5 11.5t20.5 -4t56 -36.5q41 -29 70 -39q16 -4 35.5 -19.5t30 -31t4.5 -21.5q-8 -8 -39 14q-43 31 -45 19 q-2 -8 18 -31q33 -33 63.5 -33t75.5 33q55 41 52 23q-2 -12 -35 -48q-45 -45 -45 -62t-23 -17q-25 0 -138.5 -94.5t-113.5 -114.5q0 -16 61.5 -147.5t61.5 -153.5q0 -47 27 -11q18 27 39 82q31 88 30.5 94.5t14.5 -6.5q18 -18 -45.5 -217.5t-128.5 -331.5q-20 -41 -30.5 -50 t-23 2.5t-20.5 9t-21 -20.5q-14 -20 -104 -66.5t-115 -46.5q-10 0 -14 4.5t-8 8.5t-26.5 9t-61.5 7q-23 2 -41.5 1t-28.5 -2t-8 -5q2 -8 2 -23q0 -10 14.5 -25.5t20.5 -22.5t-8 -21q-35 -23 -60 -8q-6 4 -4 12q4 10 -18.5 49t-62.5 106.5t-64 116.5q-31 59 -38 98t-12 142 q-4 152 -23.5 163t-19.5 25zM130 559.5q-30 -151.5 20 -289.5q41 -115 105 -164t173 -49q106 0 187 54.5t121 135.5t54.5 169t-9 165.5t-76.5 114.5t-144.5 13.5t-128.5 -82.5q-20 -35 -40.5 -44.5t-33.5 9.5q-4 8 6.5 43t27 79t20.5 62q6 31 100 133.5t188 139.5 q96 37 106.5 55t-36.5 67q-53 55 -88 56q-66 -2 -209 -109.5t-190 -191.5q-123 -215 -153 -366.5zM358 -63q10 10 29 10q23 0 10 -15q-10 -12 -28 -12q-23 0 -11 17zM419 333.5q7 62.5 58 119.5q31 33 76 31.5t68 -35.5q23 -35 13.5 -82.5t-39.5 -81t-68 -51t-74 9.5 q-41 27 -34 89.5zM467 303q16 -16 43 -7t51.5 40t20.5 58.5t-25.5 31.5t-44.5 -20q-25 -29 -38 -60t-7 -43zM532 834q8 -8 140.5 78t132.5 98q0 35 -129 -45t-144 -121q-4 -6 0 -10zM543 784q0 -8 84 -13t90 5q4 8 -23 41l-28 35l36 29q37 29 25 28.5t-98 -58.5t-86 -67z " />
<glyph unicode="7" horiz-adv-x="825" d="M20 528q-4 6 28 29t52.5 45.5t-4.5 54.5q-14 16 15 60q35 49 64.5 59t90.5 -4q68 -16 80 -4q16 16 42 96t18 88q-8 6 -82 -24.5t-157 -65.5t-106 -35q-20 0 -23 7.5t1 44.5q10 100 10 211v143l348 -2q244 -2 298.5 2t66.5 22q16 27 30.5 20t12.5 -44q0 -51 -92 -237.5 t-92 -192.5q0 -33 122 22q10 4 11 4q4 0 1 -45t-9.5 -102t-8.5 -68q-2 -41 -24 -77q-16 -25 -32.5 -31t-70.5 -6q-80 0 -98 -13q-35 -20 -23.5 -221t46.5 -227q18 -10 14 -18.5t-15.5 -11.5t-23.5 -19.5t-12 -40.5q0 -39 -15 -41q-10 0 -18 28q-4 18 -14.5 21.5t-44.5 -4.5 q-63 -12 -208 -8t-165 20q-14 12 -12 17.5t24 9.5q20 4 35.5 32.5t46.5 116.5q119 344 147 404q2 6 -6 6q-6 0 -18 -2q-37 -12 -130 -19.5t-100 0.5zM121 907q4 -6 83 30t163 71.5t94 25.5q8 -23 1 -56.5t-20.5 -95t-13.5 -91.5q0 -37 -13.5 -52.5t-13.5 -36.5 q0 -31 -26.5 -34.5t-69.5 20.5q-51 31 -68.5 28t-33.5 -42q-18 -43 -4 -58.5t75 -15.5q37 0 51.5 -5t18.5 -17q4 -20 -80 -237.5t-87 -242t12.5 -28.5t107.5 -4h125l12 450l84 16q94 16 119 36t25 81q0 68 -14.5 76t-69.5 -20l-54 -29v39q0 53 34 157.5t69 189.5t35 91 q0 10 -50.5 14t-203.5 4q-254 0 -256 -4q-4 -10 -18.5 -132t-12.5 -128z" />
<glyph unicode="8" horiz-adv-x="1024" d="M21.5 384q-3.5 28 3.5 32q4 0 8 -9.5t12 -27.5t12 -27.5t11.5 -15.5t13.5 7t10 46q6 43 27.5 93t27.5 102q12 72 27 73q10 0 23 -22q10 -20 20 -18.5t55 38.5l60 50l-49 65q-49 63 -67.5 111.5t-27.5 130.5l-10 90l-98 -15l53 46q47 43 128 85t132 70.5t51 50.5 q0 25 34 25t34 13.5t10 13.5q20 -2 240 -84q39 -14 39 -27q0 -12 -8 -10q-10 0 -95 33q-100 37 -102 28q-2 0 -2 -4q0 -14 94 -52t129 -40q31 -2 38 3t5 26q-4 35 8 30q14 -4 29 -51q10 -31 25.5 -56.5t24.5 -32.5t14.5 -20.5t-7.5 -21.5q-16 -20 -6 -100q6 -63 15 -66 q4 0 12 12q18 27 26 19q14 -16 -83 -185t-127 -182q-41 -14 10 -86q27 -37 40 -31.5t21 52.5q8 49 33 49q12 0 20.5 -20.5t-20.5 -96.5l-29 -74l31 -51q31 -49 21 -59q-6 -6 -25 18q-33 43 -49 -24q-4 -14 -10 -47q-14 -76 -27 -101q-20 -39 -21 -80q0 -25 -9 -37 t-77.5 -33.5t-214.5 -45.5q-72 -12 -98.5 -12.5t-50.5 12.5q-37 18 -51 18q-12 0 -58.5 48t-72.5 89q-14 23 -22.5 26t-22.5 -9q-35 -31 -43 14q-2 18 2 45q8 45 -13 84q-10 20 -20 59t-13.5 67zM162 336q-8 -84 15.5 -130t96.5 -93q61 -39 114.5 -54.5t135.5 -15.5 q115 0 172.5 45t79.5 152q8 47 6 72.5t-22 78.5q-29 74 -58.5 112t-83.5 64q-55 29 -51 52.5t64 19.5q35 -4 57.5 4t56.5 37q125 94 125 240q0 74 -22 121t-90 110l-74 72l-137 10q-137 8 -172 -10t-79 -79t-44 -91q0 -33 70.5 -174.5t97.5 -163.5q27 -18 20.5 -42 t-39.5 -24q-70 0 -155 -96q-47 -53 -62.5 -91t-21.5 -126zM301 8q2 -8 23 -26q35 -37 63 -27q64 18 -14 47q-74 25 -72 6zM322.5 383.5q15.5 62.5 83.5 91.5q82 37 135 8q31 -16 28.5 -87.5t-32.5 -119.5q-20 -29 -37 -39t-51 -12q-37 -2 -52.5 4.5t-40.5 34.5 q-49 57 -33.5 119.5zM377 356q-2 -31 4 -45t25 -26q29 -16 51 -11t37.5 27.5t23.5 48t6 51t-14 39.5q-16 14 -25.5 13.5t-54.5 -21.5q-31 -14 -40 -28.5t-13 -47.5zM423.5 973.5q18.5 68.5 65.5 79.5l58 12q143 33 143 -84q0 -47 -29.5 -88t-70.5 -60.5t-85 -14.5t-69 40 q-31 47 -12.5 115.5zM475 913q12 -45 55 -45t87 53.5t26 84.5q-10 18 -69.5 14t-77.5 -25q-33 -37 -21 -82zM842 1157q0 -14 14 -14q20 0 0 22q-4 6 -8 6q-6 0 -6 -14z" />
<glyph unicode="9" horiz-adv-x="833" d="M22.5 962.5q-2.5 16.5 0 30t12.5 25.5t20.5 31.5t16.5 28.5t12 5t24.5 15.5t57.5 65.5t70 79q45 49 63 57.5t82 8.5q137 0 233.5 -65.5t110.5 -168.5q10 -70 31 -69q12 0 14 -74t-4 -359l-10 -434l28 -8q53 -14 13 -29q-18 -8 -49 -12q-55 -8 -136.5 -33.5t-105.5 -31.5 q-10 -2 -22.5 -5.5t-19.5 -5.5t-15.5 -4t-14.5 -2h-10t-6 2t-2 6q0 14 20 15q23 0 35 37.5t21 136.5q6 76 4 95t-19 19q-14 0 -17 9.5t3 46.5q10 59 -10 55q-8 0 -17 -14q-6 -10 -36.5 -12.5t-70.5 4t-88 29t-83 57.5q-18 18 -37 28t-26 11.5t-12 9.5t-9 30 q-2 20 -15.5 66.5t-19.5 146.5q-2 59 -8 109.5t-8.5 67zM68 492q6 8 9 8t16 -10.5t25.5 -21.5t36 -26.5t48.5 -25.5q63 -29 61 -45q-2 -12 -43 -4q-43 10 -82 36.5t-57 52.5t-14 36zM130 914.5q-42 -191.5 22 -316.5q37 -70 113.5 -112t142.5 -25q37 10 72.5 78.5t62 133 t41.5 64.5q18 0 21 -60.5t-4 -145.5t-16.5 -176t-15.5 -151.5t0 -72.5q8 -8 68 4l57 12l-2 365q-2 319 -10 457.5t-29 177.5q-18 35 -102 78q-94 47 -150.5 44t-115.5 -59q-113 -104 -155 -295.5zM279 866q0 162 57 213q74 63 119 -28q47 -94 20 -215q-12 -59 -43 -95 q-20 -25 -60 -23.5t-67 27.5q-16 16 -21 40t-5 81zM328 919.5q-11 -81.5 2 -112.5q18 -41 47 -34t53 56q20 41 22 62t-12 74q-29 123 -78 63q-23 -27 -34 -108.5zM760 1095q0 48 13 48t13 -48t-13 -48t-13 48z" />
<glyph unicode=":" horiz-adv-x="569" d="M22.5 112.5q-6.5 14.5 16.5 34.5q20 16 46 54.5t44 64t29 25.5q8 0 17 -11.5t35 -48t62 -73.5q43 -47 44 -67.5t-37 -84.5q-57 -100 -78 -94q-4 0 -6 4q-12 33 -67.5 101.5t-68.5 68.5q-6 0 -18 6t-18.5 20.5zM166 152q-35 -35 4 -80q31 -35 51 -17q10 10 10 35 q0 33 -24.5 55.5t-40.5 6.5zM238 807.5q4 5.5 20 5.5q18 0 42 27.5t52 31.5l54 9q10 2 29.5 -26t43 -55.5t41.5 -27.5q27 0 28 -32.5t-24 -59.5q-18 -20 -78 -125q-29 -49 -32 -23q-4 20 -81 108.5t-93 143.5q-6 18 -2 23.5zM329 771.5q-3 -11.5 7 -36.5q12 -39 41 -39 q16 0 21 10.5t5 43.5q0 47 -12 57t-43 -12q-16 -12 -19 -23.5zM400 623.5q-3 -13.5 12 -23.5q16 -16 24 -9t35 52q37 66 31 84q-8 20 -22.5 16t-20.5 -30q-8 -20 -22.5 -40t-24 -28t-12.5 -21.5z" />
<glyph unicode=";" horiz-adv-x="636" d="M20 188q-6 4 41 43q41 35 41.5 80.5t10.5 55.5q8 8 16 5t27 -28q18 -23 25 -24t28 16q45 41 45 12q0 -8 -13.5 -13t-25.5 -10.5t-19.5 -15.5t6 -33.5t52.5 -62.5q68 -70 68 -104q0 -37 18 -44.5t41 21.5q25 31 33 23q6 -6 -77 -144.5t-99 -148.5q-12 -8 -13 10 q2 20 17 37q25 25 8 22q-23 -2 -72 -35q-45 -31 -58.5 -33.5t-28.5 12.5t-14 23.5t25 32.5q20 20 25.5 44t5.5 83q-2 121 -16 228q0 12 -49 -23q-41 -33 -48 -29zM164 -49q6 -4 14 0t14.5 15.5t6.5 23.5q0 27 -13 26q-10 0 -19 -29.5t-3 -35.5zM184 131q0 -10 33 -62.5 t41 -52.5q23 0 0 52q-8 16 -18 32q-35 47 -52 41q-4 -2 -4 -10zM313 702q-2 14 4 39q10 45 49.5 78t79.5 31q29 0 38.5 4t7.5 18q0 16 6 17q12 2 39 -51q20 -41 41 -33q10 4 14 -2t4 -25q0 -35 14 -61q14 -27 0 -25q-10 0 -24 15q-4 4 -10.5 2t-15.5 -12.5t-22.5 -29 t-31.5 -46.5q-70 -111 -76 -111q-2 0 -8 6q-8 8 16 43q14 20 14.5 32.5t-5 19.5t-29 33t-43.5 52q-10 12 -31 -6q-29 -23 -31 12zM418 743q0 -33 19.5 -52t41.5 -11q18 8 20 47t-16 57q-25 25 -45 13.5t-20 -54.5zM449 934q14 16 26 10q16 -10 10 -21.5t-26 -9.5 q-29 2 -10 21z" />
<glyph unicode="&#x3c;" horiz-adv-x="1136" d="M23 635q0 39 14 72q23 53 39 53q6 0 6 -15q0 -27 111 15q20 6 51 18q272 105 342 105q33 0 131 46t191 118.5t93 134.5q0 45 20.5 45t20.5 -56q0 -43 28 -208.5t28 -180.5q0 -41 -23 -14q-12 12 -24 39q-23 47 -41 47q-23 0 -180.5 -83t-157.5 -105q0 -16 -34 -16.5 t-34 -12.5q0 -8 127 -60.5t148 -52.5q14 0 118.5 -42t116.5 -52q6 -6 -20.5 -59.5t-77.5 -144.5t-72 -130q-39 -72 -55 -69q-12 14 8 55q18 37 9 49t-42 -4q-18 -10 -22 -8t2 24q10 39 -54.5 97.5t-220.5 148.5q-90 53 -160.5 93t-92 52.5t-45 26.5t-60.5 41 q-86 59 -105.5 59.5t-31.5 -49.5q-14 -49 -29 -49q-23 2 -22 72zM209 682q-4 -10 99.5 -84t119.5 -74q18 0 191.5 -105.5t207.5 -137.5q51 -49 58 -43q18 18 66 98t34 90q-66 49 -504 176q-18 6 -12 21q2 10 154.5 95t294.5 152q63 33 74 44.5t5 48.5q-8 47 -18 56t-115 -63 q-168 -113 -485 -208q-166 -51 -170 -66z" />
<glyph unicode="=" horiz-adv-x="1050" d="M20.5 704.5q-0.5 8.5 7 13.5t12.5 27.5t1 59.5q-8 55 11.5 78.5t19.5 62.5q0 43 13 44t17 -44l4 -43l336 -4q338 -2 406 14l70 17l-3 80q-4 76 12.5 76.5t24.5 -74.5q4 -49 18.5 -86t16.5 -78q4 -76 20.5 -247t21.5 -186.5t-17.5 -69.5t-34.5 -54q-8 0 -16 28 q-4 20 -17.5 23.5t-62.5 -0.5q-84 -10 -129 -18.5t-50.5 -15.5t-16.5 -13t-28.5 -12.5t-84 -12.5t-187.5 -12q-147 -8 -147 7.5t26 21.5q53 14 17 24q-27 8 -82 4l-93 -4l-4 -71q-4 -66 -18 -70q-12 -6 -12 49q0 53 -15 68q-14 14 -19 125.5t7 119.5q16 10 12 68.5t-22 79.5 q-14 16 -14.5 24.5zM97 595q-1 -40 32 -50q23 -8 325 -1t406 17q59 6 68.5 12t7.5 39l-4 43l-227 2q-504 0 -574 -14q-33 -8 -34 -48zM106 823q-12 -14 3 -59l12 -37l219 -4q98 0 265 -7t220.5 -8t98.5 5q10 12 2 80q-6 55 -23 63q-20 10 -188 2q-213 -12 -426 -14 q-164 -2 -183 -21zM113 440q-8 -51 6 -65.5t117 -14.5q88 0 317 14.5t315 24.5l76 9v55q0 55 -20.5 56t-411.5 -13l-391 -14z" />
<glyph unicode="&#x3e;" horiz-adv-x="968" d="M31 1124q6 -2 20 -18q51 -59 66 -213l8 -100l68 -5q49 -2 138 -18t153.5 -27.5t68.5 -7.5q2 2 -11.5 11.5t-36 25.5t-48.5 33q-131 82 -259 192.5t-116 130.5q10 16 33 -2l106 -86q88 -74 144.5 -113.5t183.5 -117.5q410 -254 399 -272q-8 -12 -33 -13 q-57 0 -297.5 -105.5t-351.5 -178.5q-53 -33 -71 -27q-18 8 -25.5 122t8.5 132q16 16 93 36.5t122 20.5t135 27t119 49q23 16 10 25q-8 6 -47 24q-68 29 -199.5 57.5t-238.5 36.5l-117 9l4 110q4 109 -22 182q-31 88 -6 80zM221.5 355.5q8.5 -64.5 20.5 -64.5 q2 0 112.5 58.5t236.5 116.5t163 58q33 0 57 19q18 14 18 19t-20 16q-29 16 -41 15t-24.5 -11.5t-75 -34t-158.5 -43.5q-268 -55 -287 -74q-10 -10 -1.5 -74.5z" />
<glyph unicode="?" horiz-adv-x="1036" d="M21.5 1288q7.5 4 15.5 -7t22.5 -37.5t28.5 -45.5q23 -25 29 -26t22 20q14 20 32.5 24.5t68.5 51.5q55 55 94 55q6 0 70.5 15.5t139 12.5t154.5 -40q88 -41 99 -56q10 -18 22 -13t12 28q0 51 17 10q18 -43 35 -137q23 -129 36 -138.5t3 -46.5q-12 -51 8 -49q14 0 47 37 q41 45 39 31q0 -2 -2 -6q-8 -29 -109.5 -141.5t-197 -214t-95.5 -109.5q0 -18 -40 -61.5t-56 -43.5q-25 0 -49 -28q-20 -23 -16 -32t45 -44q59 -49 41 -57q-8 -4 -35 10q-45 25 -41 -6q6 -37 51 -90q12 -16 17.5 -23.5t6.5 -12.5t-2.5 -8.5t-13.5 -5.5q-18 -6 -108 -88 t-103 -82q-8 0 -6 7q0 6 12 20q25 27 17 37t-37 -8q-20 -10 -32.5 -6t-41.5 30q-43 43 -59 43q-14 0 -19.5 7.5t-2.5 20.5t8.5 26.5t10.5 33t5 33.5q2 31 13 30t52 36l39 39l-49 41q-27 23 -65.5 71.5t-62 89.5t-13.5 47q8 6 53 -21.5t51 -25.5q12 6 168 170t185 203 q39 51 42 112.5t-30 94.5q-23 23 -33 24t-37 -16q-37 -20 -92 -102q-33 -51 -69.5 -98.5t-64.5 -74t-32 -22.5q-8 8 27 55q41 51 24 62q-6 2 -22 -10q-18 -14 -27 0q-8 12 6 20q37 23 -45 129q-49 61 -88 118.5t-59.5 95.5t-13 42zM209 1155q-14 -20 27 -84q61 -98 79 -41 q12 39 58.5 73t97.5 42q45 8 60.5 4t41.5 -33q27 -29 33 -51.5t4 -89.5q0 -66 -13 -100.5t-52 -83t-156 -175.5q-135 -141 -135 -156.5t51 -43.5l53 -31l41 47q41 47 144 127q213 168 274.5 296t-4.5 267q-29 63 -56 90t-93 54q-76 33 -127.5 36t-116.5 -22 q-66 -23 -131.5 -61.5t-79.5 -63.5zM213 375q0 -14 18.5 -14.5t42.5 -28.5q33 -35 56 -27q8 4 8 12q0 14 -59 50q-66 37 -66 8zM227 106q0 -23 24.5 -36t59.5 -11q29 4 43.5 14.5t30.5 41.5t18 47t-8 39q-16 35 -43 35q-23 0 -74 -53.5t-51 -76.5zM439 89q5 -7 28 1 q29 12 14 43q-14 29 -28 10q-6 -6 -11 -20q-8 -27 -3 -34z" />
<glyph unicode="@" horiz-adv-x="1394" d="M33 285q-37 180 30.5 413.5t196.5 364.5q61 66 39 65q-23 -2 -139 -59q-121 -63 -127 -57q-8 8 10 22q12 8 72 45q133 84 362 168q135 49 141 41q2 -4 -4 -20q-4 -16 14.5 -22.5t102.5 -16.5q94 -12 155.5 -35t166.5 -84q59 -35 87.5 -72t121.5 -196q78 -135 98 -180.5 t8 -54.5t-18.5 -6t-14.5 26q-20 55 -35 26q-6 -14 -6 -47t4.5 -43t16.5 -6q18 8 18 -2q0 -12 -26 -96q-49 -152 -118 -244t-173 -143q-88 -43 -129 -40t-90 54l-54 57l-202 -161q-111 -86 -113 -66q0 10 33 45q39 39 30.5 52.5t-71.5 19.5q-106 12 -174 141 q-18 35 -21.5 65.5t0.5 108.5q8 123 0 123q-12 0 -49 -42t-37 -54q0 -41 29 -135.5t49 -122.5q57 -76 14 -70q-4 0 -10 2q-23 6 -24.5 0t12.5 -35q12 -20 72.5 -61t160 -84t220 -49t249.5 43q106 45 160 86l107 82q55 43 69 84q16 51 37 51q10 0 10 -19q0 -20 -10 -20 t-29 -45q-29 -74 -91 -190.5t-72 -120.5q-6 0 -5 6q2 16 21 49q51 90 27 84q-10 0 -29 -14q-158 -111 -377 -123.5t-403 77.5q-223 111 -293 435zM129 451q4 -20 12 -19q10 2 18.5 12.5t29 40t49.5 62.5q49 55 94 141q41 74 103.5 147.5t103.5 96.5q39 18 110.5 18 t114.5 -20t94 -74l51 -53v-164q2 -141 10.5 -205.5t16.5 -73t33 -12.5q51 -6 99 67.5t48 162.5q0 41 -29 135q-18 59 -39.5 92t-74.5 84q-84 82 -139 100q-66 20 -163.5 23.5t-164.5 -13.5q-129 -33 -215 -111.5t-121 -195.5q-49 -162 -41 -241zM262 954q12 2 55 29 q53 35 160 63.5t185 28.5q215 -2 357 -143t144 -359q0 -72 -6 -101.5t-31 -72.5q-37 -59 -76.5 -85.5t-95.5 -26.5q-59 2 -59 -17q0 -35 -18 -12q-10 12 -21 37q-12 25 -13 74t7 176q12 111 6 174t-21.5 89t-60.5 56q-221 150 -403 -235q-55 -117 -31 -115q20 2 78 104 q39 61 49 62q10 -37 -100 -172q-55 -68 -73 -108t-18 -97q0 -102 71 -167.5t155 -45.5q66 16 140.5 127t74.5 195q0 57 14 65q33 20 47 -47q6 -35 10 -96q10 -160 56.5 -209t142.5 0q51 27 84 63.5t82 130.5q86 160 86 308q0 160 -136 328.5t-290 201.5q-72 14 -172 13 t-147 -19q-53 -18 -109.5 -57t-95.5 -84q-47 -55 -27 -56zM428 418q0 55 30.5 127t61.5 88q51 31 86 -3t33 -112q-2 -86 -41 -142.5t-94 -56.5q-45 0 -60.5 20.5t-15.5 78.5zM483 428q0 -37 5.5 -45t23.5 -6q27 4 54.5 51t27.5 92q0 68 -35 64q-37 -6 -61 -76 q-14 -37 -15 -80zM709 171.5q10 -7.5 22 6.5q18 16 0 25q-14 4 -22 -8q-10 -16 0 -23.5zM1174 -233q-6 18 12 38q20 25 22 11q0 -25 -20 -49q-10 -12 -14 0z" />
<glyph unicode="A" horiz-adv-x="1333" d="M20 70q0 8 25 34q29 31 139.5 215.5t232 393.5t154.5 260q16 25 33 50.5t26 39.5t23 37q47 76 61.5 92t28.5 6q18 -16 39 2q15 11 23 11q6 0 8 -7q4 -12 -14 -33q-23 -25 -23 -32l112 -250q113 -250 228 -502t117 -258q14 -16 47 -16t33 -13.5t-23 -13.5q-14 0 -14 -18 q0 -14 8 -38q19 -56 4 -55q-8 0 -28.5 36t-44 60.5t-46.5 4.5q-10 -10 -116 -13q-90 0 -115 -10t-16 -39q8 -25 0 -24q-10 0 -57.5 48t-47.5 56q0 14 -65.5 149.5t-81.5 139.5h-1q-14 0 -112 -141q-72 -104 -83 -128t9 -38q17 -13 17 -22q0 -16 -58 -19q-12 -1 -25 -1 q-27 0 -61 3q-336 20 -336 33zM213 162q-1 -3 -1 -6q0 -16 24 -23q18 -6 34.5 -14t23.5 -11.5t17.5 -3.5t20.5 9q16 14 30 6q15 -9 21 -15q1 -2 3 -1q5 0 13 16q8 20 0 45q-4 12 -1 20.5t7.5 12.5t-6 19t-37.5 42q-42 41 -51 41q-2 0 -2 -2q0 -4 6 -23q6 -29 3 -31.5 t-21 7.5q-25 12 -37 0t6 -31q15 -15 15 -24q0 -13 -33 -13q-31 0 -35 -20zM324 371q0 -33 61 -95q39 -37 53.5 -45t22.5 5q10 18 11 27t-8 16.5t-20.5 14.5t-29 24t-31.5 42q-25 41 -42 41q-5 0 -9 -4q-8 -8 -8 -26zM399.5 390.5q34.5 -44.5 49.5 -44.5q16 0 40 -22 q18 -16 22.5 -15.5t4.5 19.5q0 20 -22.5 46.5t-40.5 26.5q-8 0 -58 45q-30 26 -30 8q0 -19 34.5 -63.5zM412 524q-1 -2 -1 -6q1 -15 29 -54q31 -42 44 -42q2 0 4 1q3 2 3 7q0 14 -26 51q-37 53 -43 54q-4 0 -10 -11zM453 586q12 -55 84 -107q31 -22 46 -22q14 0 15 18 q0 20 -10 27.5t-27 -4.5q-8 -8 -19.5 3t-27.5 48q-37 72 -57 72h-2q-6 -1 -6 -12q0 -8 4 -23zM528 410q0 -23 14.5 -23t14.5 14t-16 21q-10 0 -13 -12zM543 723q4 -6 8 -6q6 0 6 14t-14 14q-10 0 -10 -5.5t10 -16.5zM563 633q-1 -1 -1 -5q0 -13 28 -57q20 -37 34.5 -46 t47.5 -9q37 0 41 5t-13 28q-33 51 -14 51q6 0 23 -12q29 -27 26 -10q-1 14 -28 47q-30 38 -53 38q-7 0 -13 -4q-20 -12 0 -57q18 -39 2 -51q-6 -4 -14 10q-53 72 -66 72zM639 910.5q0 -13.5 13.5 -13.5t13.5 13.5t-13.5 13.5t-13.5 -13.5zM678 786q-2 -10 -2 -18 q0 -13 6 -18q16 -8 29.5 8.5t5.5 34.5q-8 20 -21 20q-12 1 -18 -27zM739 637q4 -18 81 -124.5t152 -202.5q69 -88 76 -88q1 0 1 1q6 14 -135.5 226.5t-159.5 212.5q-16 0 -16 -16q0 -4 1 -9zM776 354q0 -23 17 -28q8 -4 10 8q2 2 2 4q0 23 -17 31q-10 -2 -12 -15zM846 240 q0 -8 13 -28t27 -34q11 -11 17 -11q1 0 2 1t1 3q0 12 -40 56q-15 15 -19 15q-1 0 -1 -2z" />
<glyph unicode="B" horiz-adv-x="880" d="M22 951q-1 93 -1 160q0 174 6 181q8 8 26 -16q10 -14 22.5 -15t43.5 7q47 16 167 26q72 6 118 7q31 0 51 -3q53 -6 116.5 -38.5t98.5 -69.5q24 -28 28 -50q1 -8 2 -24q0 -27 -4 -78l-8 -110l-65 -58q-66 -57 -79.5 -57t-13.5 -13.5t33 -13.5q25 0 85.5 -39.5t115.5 -91.5 q37 -35 46 -25.5t21 -21.5q29 -66 29 -147q-2 -205 -84 -277q-41 -37 -103.5 -67.5t-92.5 -30.5q-20 0 -37 -10t-21 -13.5t-24 9.5q-12 10 -43 11h-13q-25 0 -52 -3q-34 -4 -90 -8t-99 -6h-62l-8 -64q-6 -58 -18 -58h-3q-14 5 -20 72q-2 39 -17.5 93.5t-19.5 209.5 q-4 184 -18 248q-9 53 -13 384zM131 360q2 -14 14 -14q8 0 39 38t31 50q0 20 -53 -16q-33 -23 -31 -58zM145 944l29 33q27 33 27 45q0 27 -21 4q-12 -12 -20 -37zM195 139q6 -8 19 -5t13 13q-1 7 -21 7q-14 0 -14 -7q0 -3 3 -8zM219 360q14 -2 41 35q12 20 13 31.5t-11 8.5 t-26 -23q-23 -34 -23 -46q0 -6 6 -6zM227 1135q0 -12 15.5 -15.5t31 2t19.5 17.5q4 8 -4 13t-25 5q-37 0 -37 -22zM231 627q2 -2 19.5 17.5t33 42t11.5 26.5q-4 2 -21.5 -17.5t-31.5 -41.5q-11 -18 -12 -24q0 -2 1 -3zM246 131q-1 -2 -1 -4q0 -13 32 -13q7 0 16 1 q45 2 135 18q127 25 163 40t36 44q0 33 -17 33q-45 -4 -84 -26.5t-60.5 -39t-31.5 -10.5q-10 8 -34.5 -6t-42 -8t-40 -3.5t-38.5 -9.5q-27 0 -33 -16zM270 506q0 -3 2 -3q10 0 64 56q43 43 43 57t46 51.5t54 29t0 -30.5q-6 -12 -4 -15q2 -2 14 6q32 22 54 22q9 0 16 -3 q16 -8 28.5 -5t12.5 19q0 2 -15.5 10.5t-41 16.5t-54 11t-60.5 -11.5t-56 -44.5q-35 -48 -35 -68q0 -14 -34 -51t-34 -47zM275 1028q-4 -7 -4 -17q0 -17 12 -42q10 -23 17 -26t28 11q30 21 30 54q0 18 -8 26t-31 10q-33 4 -44 -16zM326 862q7 -8 32 21q27 29 17 26 q-16 -2 -43 -30q-7 -7 -7 -13q0 -2 1 -4zM350 391q4 -61 16.5 -73.5t73.5 -12.5q131 0 154 98q6 25 -2 36.5t-47 29.5q-45 25 -59.5 26t-57.5 -14q-58 -19 -70 -33q-9 -10 -9 -38q0 -9 1 -19zM350 801q18 0 27 18q4 16 -4 17q-8 0 -21 -15q-9 -11 -9 -16q0 -4 7 -4z M396 1082q7 -8 23.5 13t4.5 21t-24 -13q-7 -8 -7 -14q0 -4 3 -7zM440 1176q6 -6 22.5 6t27 28.5t2.5 20.5q-3 2 -6 2q-12 -1 -31 -21q-18 -19 -18 -29q0 -4 3 -7zM563 1121q8 -7 28.5 8.5t20.5 29.5q0 12 -12 12q-12 1 -28 -21q-11 -14 -12 -23q0 -4 3 -6zM582 1047 q20 0 47 38q10 16 2 17q-20 0 -47 -37q-6 -10 -6 -14t4 -4zM618 485q16 -16 22.5 -15t21.5 19q18 27 12 37q-12 20 -49 11q-23 -8 -23 -22q0 -13 16 -30zM647 426q-1 -3 -1 -5q0 -5 7 -5q15 0 15 13t-6 13q-8 0 -15 -16zM688 240q1 -1 3 -1q9 -1 29 17q26 22 49.5 51 t23.5 39q0 15 -8 15q-14 0 -54 -48q-45 -53 -45 -68q0 -3 2 -5zM709 553q0 -14 14 -14t14 14t-14 14t-14 -14zM743 416q-1 -2 -1 -5q0 -9 18 -16q5 -1 9 -1q20 0 24 24q-1 6 -11 9q-5 2 -10.5 1.5t-10.5 -1.5q-11 -3 -18 -11z" />
<glyph unicode="C" horiz-adv-x="1214" d="M20 819q0 78 7 78q10 0 16 -31q5 -19 13 -19q12 0 30 42q6 16 16 41q25 70 131 174q106 102 217 159.5t195 65.5q45 4 85 4q36 0 68 -3q68 -7 108 -18t44 -9q3 3 7 3q19 0 32 -114q6 -41 10 -96q13 -178 21 -251q3 -28 4 -45q0 -28 -8 -28q-12 0 -20.5 22.5t-8.5 53.5 t-62.5 80t-111.5 59q-32 6 -65 6q-64 1 -132 -23q-102 -36 -180 -118q-62 -64 -80 -118q-13 -41 -14 -113q0 -25 2 -54q18 -344 270 -344q78 0 115 25q71 45 141 170q54 95 53 141q0 14 -5 23q-14 27 -11 41q1 1 2 1q9 0 47 -49q119 -150 140 -167q18 -16 24 -15 q23 10 41.5 -13.5t9.5 -51.5q-6 -27 8.5 -43.5t14.5 -28.5q0 -20 -29 -12q-16 4 -26.5 -6.5t-28.5 -51.5q-26 -56 -94 -128q-62 -65 -84 -65q-2 0 -4 1h-5q-22 0 -106 -27q-101 -34 -208 -34q-35 -1 -71 3q-146 14 -216 78q-18 16 -59.5 48t-72 61t-51.5 59q-35 53 -47 53.5 t-12 -54t-13.5 -54.5t-13.5 97.5t-14 224.5q-8 78 -13.5 185t-5.5 185zM94 614.5q0 -20.5 13.5 -20.5t13.5 20.5t-13.5 20.5t-13.5 -20.5zM108 758q-2 -6 -2 -11q0 -8 2 -16q4 -14 13 -20q29 -16 22 18l-4 12q-6 31 -18 31q-9 0 -13 -14zM149 820q17 -19 35 -19 q14 0 53 -55.5t50 -55.5q15 0 15 12q0 24 -56 95q-51 63 -66.5 73.5t-29.5 -8.5q-9 -12 -9 -23q0 -10 8 -19zM188 698q6 -45 58 -116q20 -29 28 -29t11.5 11t-7 41t-40.5 65q-35 39 -45 39q-6 0 -5 -11zM190 942q0 -33 27 -49q13 -10 21 2t-19 45q-25 29 -26 21 q-2 -4 -3 -19zM219 238q6 -16 93 -105.5t98 -89.5q16 0 6 16q-12 17 -86 93q-92 97 -109 97q-4 0 -3 -5q0 -2 1 -6zM231 475q0 -20 45 -55q23 -18 23 -8q0 20 -45 55q-23 16 -23 8zM238 1001q2 -10 12 -20q16 -14 19 -13t3 21q0 41 -22 39q-14 -1 -14 -15q0 -5 2 -12z M287 1053q0 -14 8 -15.5t24.5 4t22.5 5.5q12 0 12 21.5t-13 21.5t-13 -15.5t-20.5 -8.5t-20.5 -13zM371 221q0 -14 22 -22q14 -6 62.5 -54.5t89.5 -88.5q34 -33 44 -32q2 0 3 1t1 2q0 17 -86 109q-93 100 -115.5 100t-20.5 -15zM379 1151q-3 -3 -3 -9q0 -11 9 -33 q14 -34 29 -34q10 1 10 19q0 10 -9 26.5t-19.5 25.5t-16.5 5zM438 1171.5q0 -14.5 13.5 -14.5t13.5 14.5t-13.5 14.5t-13.5 -14.5zM473 1022q-2 -3 -2 -6q-1 -8 9 -16q14 -12 24 -3q4 6 -1 16.5t-14.5 13.5t-15.5 -5zM492 1081q0 -18 18.5 -39.5t32.5 -21.5q39 0 2 39 q-33 35 -49 28q-4 -2 -4 -6zM561 143q0 -12 22.5 -40.5t48.5 -48.5q20 -16 27 -16q2 0 3 1q6 10 -20 38.5t-53.5 51.5t-27.5 14zM596 1083q8 -18 22 -26q31 -18 35 -2q2 12 -16 35q-25 27 -37 26q-13 0 -13 -10q0 -8 9 -23zM631 1240q0 -13 13 -13t13 13t-13 13t-13 -13z M639 143q-1 -2 -1 -4q0 -17 48 -63q41 -37 41 -17q0 12 -20.5 36t-42 40.5t-25.5 7.5zM684 1090q0 -16 16 -23q11 2 13 14q0 20 -14.5 20.5t-14.5 -11.5zM704 1260q-1 -4 -2 -9q0 -23 31 -69q29 -43 42 -43q3 0 5 2q6 8 -12 43q-6 12 -9 20t-3 13.5t2 7.5t10 2t51 -74 q20 -29 27 -27q4 10 -16 58q-16 38 -16 58q0 6 1 11q6 18 -2 23.5t-45 5.5q-56 0 -64 -22zM705 166q-2 -2 -2 -6q0 -16 42 -56t59 -39q3 0 5 1q3 2 3 6q0 14 -34 55q-35 45 -48 51t-25 -12zM780 199q0 -31 54 -76q43 -37 40 -10q0 16 -20 53q-33 55 -58 55h-3 q-12 -2 -13 -22zM838 268q0 -10 34 -67q37 -63 54 -64q7 0 7 10q0 19 -28 76q-12 23 -26.5 39.5t-22.5 16.5q-18 0 -18 -11zM850 64.5q0 -21.5 13.5 -21.5t13.5 21.5t-13.5 21.5t-13.5 -21.5zM897 342q-6 -13 -6 -23q0 -13 10 -20q6 -2 13.5 7.5t13.5 25.5q16 41 2 41 q-18 0 -33 -31zM954 119q-3 -8 -3 -12q0 -6 5 -7q19 3 29 23q4 16 -6 16q-16 0 -25 -20zM1034 338q14 -18 17.5 -18.5t3.5 22.5q2 29 -19 47q-10 7 -16 7t-6 -9q0 -22 20 -49zM1028 236.5q0 -13.5 14.5 -13.5t14.5 13.5t-14.5 13.5t-14.5 -13.5z" />
<glyph unicode="D" horiz-adv-x="1353" d="M80 1081q47 23 59.5 36t12.5 40q0 43 16 41q8 0 16 -20q6 -15 30 -15q35 0 108 31q59 27 77 27q7 0 7 -4t-2.5 -11.5t1 -10.5t18.5 -6t40.5 -3h73.5q221 0 385 -84q57 -29 111 -73t90 -84t63.5 -77t44 -59.5t20.5 -22.5q6 0 31 50q15 29 25 29q9 0 16 -21q0 -4 2 -6 q8 -32 9 -52v-5q0 -19 -6 -39q-7 -24 -16 -46t-23.5 -71.5t-26.5 -108.5q-28 -127 -84 -258q-54 -125 -78 -125h-2q-14 4 -39 -11.5t-93.5 -45t-170.5 -47.5l-136 -27q-45 -8 -120.5 -10t-128 -5t-64.5 -14q-8 -10 -14 -10t-13.5 6t-34 13.5t-65.5 9.5q-43 2 -60.5 8 t-19.5 20t10.5 18.5t55.5 4.5h69v49q0 37 -14 54.5t-8 41.5q8 27 -11.5 47.5t-9.5 38.5q4 8 6.5 48t2.5 77t-4 37t-11 103q-6 109 -34.5 312.5t-40.5 215.5q-3 4 -12 4q-17 0 -54 -16q-47 -21 -60 -21q-5 0 -4 3q0 13 60 44zM128 580q-1 26 -1 45q0 53 6 65q14 0 23 -98 q19 -225 19 -295q0 -28 -3 -31q-2 -2 -4 -2q-12 0 -24.5 111t-15.5 205zM274 838q0 -10 11 -11q12 0 82.5 87t89.5 126q23 44 43 62q14 10 15 20.5t-5 15.5t-12 5q-14 -2 -78 -77t-64 -89q0 -20 -41 -59q-42 -40 -42 -72q0 -4 1 -8zM274 1028q0 -14 19 4q14 14 7 21.5 t-16.5 -2t-9.5 -23.5zM295 664q6 -10 52 30.5t95.5 101t65.5 95.5q23 49 88.5 109.5t93.5 60.5q16 0 19.5 -2t-2 -8.5t-12.5 -15.5t-10 -22.5t3 -31.5l14 -35l48 47q47 45 47 75q0 33 -56 48q-35 8 -67.5 8t-41.5 -2t-22 8q-6 9 -20 9q-10 0 -23 -4q-14 -6 -64 -77t-50 -87 q0 -6 96 82q57 52 67 52q2 0 2 -3q0 -16 -48 -67.5t-48 -63.5q0 -8 -48 -60.5t-48 -70.5t-70 -90q-62 -65 -62 -82q0 -3 1 -4zM309 1010q1 -1 2 -1q9 0 59 46q56 51 56 63q0 13 -8 13q-16 0 -66 -56q-44 -53 -44 -63q0 -1 1 -2zM311 494q2 -3 5 -3q20 0 100 97 q91 114 91 145q0 5 -3 8q-4 4 -8 4t-7.5 -2t-5.5 -7t-8 -16t-15 -25.5t-29.5 -40t-47.5 -56.5q-73 -82 -73 -101q0 -2 1 -3zM315 588q0 -14 19 4q14 16 8 22.5t-16.5 -3t-10.5 -23.5zM322 309q2 -2 4 -2q13 0 49 41q124 143 149 184q12 18 0 25.5t-43.5 -27t-71.5 -92 t-57 -73.5q-32 -35 -32 -50q0 -4 2 -6zM328 401q23 0 108.5 112t85.5 144q0 4 -10 4.5t-41 -39t-31 -51.5q0 -4 -73 -88q-50 -56 -50 -74q0 -8 11 -8zM330 207q0 -12 10 -12q16 2 106.5 123.5t90.5 144.5q0 10 -7 10q-12 0 -47 -35q-39 -41 -61 -86q-20 -41 -57 -73 q-35 -34 -35 -65v-7zM354 113q10 0 68.5 70.5t58.5 82.5q0 18 -20 0q-14 -12 -53 -55q-65 -69 -65 -90q0 -8 11 -8zM373 655q4 -4 21.5 11.5t31.5 35t10 23.5t-21.5 -12.5t-31.5 -34.5q-11 -14 -11 -21q0 -1 1 -2zM389 874q-3 -6 -3 -9q0 -5 5 -5q9 0 29 23q25 27 10 26 q-27 0 -41 -35zM418 88q4 -2 12 -2q18 0 54 39t44 70q8 29 82 108q35 41 15 43q-33 -2 -61.5 -16.5t-37.5 -34.5q-4 -12 -40 -57q-30 -38 -30 -62q0 -4 1 -8q8 -29 -19 -45q-26 -17 -26 -27q0 -5 6 -8zM550 904q-8 -8 -8 -15q0 -9 13 -15q23 -8 43 0q25 10 7.5 30t-27.5 20 t-28 -20zM559 788q-2 -3 -2 -19q-1 -42 15 -171q22 -178 32 -188q3 -3 11 -3q21 1 76 25q75 34 126 72q49 38 49 89q0 37 -26 79q-27 44 -34 44q-3 0 -3 -6q0 -5 2 -14q0 -2 2 -6q6 -29 -6 -28q-10 0 -27.5 34t-17.5 54q0 25 -47 38q-44 12 -89 12h-6q-48 -1 -55 -12z M563 83q0 -11 60 -11h3q94 0 130 69q16 31 -2 25q-14 -6 -47 -33q-44 -35 -60 -35q-10 0 -10 13q0 8 2 16q6 23 2 21.5t-35 -23.5q-43 -31 -43 -42zM580 202q13 0 114 95q92 88 92 102q0 2 -2 2q-10 0 -63 -47t-101 -96q-43 -44 -42 -53q0 -3 2 -3zM672 846q12 -6 45 -12 q35 -6 52 1t58 46q48 44 48 61q0 4 -3 6q-12 12 -29.5 6t-17.5 -24q0 -12 -43 -44t-61 -32q-8 0 -2 23q8 20 -6 18q-10 -2 -35 -18q-16 -13 -16 -21q0 -6 10 -10zM745 203q1 -1 3 -1q14 0 98 72q94 82 200.5 179.5t133.5 111.5q28 17 28 70q0 65 -19 65h-3q-4 -2 -10 -6 q-8 -8 0 -41q2 -6 2 -12q0 -54 -127 -137q-37 -25 -114 -96.5t-137 -135.5q-55 -58 -56 -67q0 -1 1 -2zM794 993q16 0 50.5 23t34.5 33q0 14 -11 14q-10 0 -28 -12q-14 -8 -29 -25q-22 -22 -22 -29q-1 -4 5 -4zM797 98q0 -13 12 -13q6 0 16 3q17 6 21 18q8 20 4 27 q-6 6 -29.5 -9t-23.5 -26zM813 161h1q10 1 91 77q86 82 167 166q77 81 77 89q0 1 -1 1q-8 0 -89 -77q-86 -81 -169 -166t-77 -90zM813 791q4 -4 16 -5q23 0 76 50q48 45 48 62q0 2 -1 3q-4 14 24 36t28 36q0 20 -11 18q-16 0 -71.5 -52t-55.5 -67q0 -25 -28 -41 q-28 -19 -28 -32q0 -4 3 -8zM872 743q6 -8 32 7.5t48.5 38t22.5 34.5q0 14 48 47t48 41q0 12 -24 13q-25 0 -59 -37q-30 -33 -30 -57v-5q4 -25 -12 -24q-20 1 -50 -23q-25 -20 -25 -31q0 -2 1 -4zM897 104q4 -3 9 -3q6 1 14 7q14 12 14 27q0 18 -12 19q-14 0 -24 -20 q-5 -11 -5 -19q0 -7 4 -11zM899 1004q2 -10 14 -11q21 0 21 13.5t-12 13.5q-16 0 -23 -16zM907 522q0 -20 15 -12q12 6 45 29q61 45 106 91t25 44q-37 -6 -131 -84q-59 -49 -60 -68zM909 696q2 -2 5 -2q15 0 57 41q20 23 12 23q-10 0 -29 -14q-20 -12 -34 -28 q-11 -12 -12 -18q0 -1 1 -2zM922 627q0 -16 9 -16q13 0 46 32l12 12q47 49 27 47q-31 -2 -74 -43q-20 -20 -20 -32zM1094 784q23 0 41 21q2 4 2 6q6 16 -7 16q-14 0 -32 -22q-9 -10 -9 -16q0 -4 5 -5zM1106 307h4q17 0 37 29q8 12 12 26q6 23 2 23t-35 -33q-25 -27 -25 -38 q0 -5 5 -7zM1131.5 736q3.5 -3 7.5 -3q6 -1 14 5q14 10 14 22t-12 12q-11 0 -21 -14q-5 -8 -6 -14q0 -5 3.5 -8z" />
<glyph unicode="E" horiz-adv-x="1028" d="M20 1087v5q6 12 44 21t51 32q8 16 15 18t20 -6q18 -8 34.5 -7t62.5 11t91 20.5t118.5 25t143.5 22.5q84 9 111 9h5q24 -1 34 -17q12 -23 40.5 -21t34.5 27q6 26 24 26h1q12 0 19.5 -15t11.5 -51t6 -76t8 -109.5t12 -129.5q2 -22 2 -37q0 -38 -13 -38h-1q-12 2 -25.5 37.5 t-35.5 31.5q-16 -4 -20 -34q-2 -19 -2 -73q0 -31 1 -75q2 -94 5 -135t7 -50.5t10.5 -57.5t14.5 -142l12 -180l74 2h22q50 0 50 -8q0 -10 -31 -18.5t-64 -8.5q-39 0 -61.5 -26.5t-22.5 -71.5q0 -50 -13 -52l-1 -1q-12 0 -16 51q-4 39 -13.5 46t-60.5 15q-86 10 -177 10h-30 q-108 -2 -170 -11q-60 -9 -122 -11h-13q-49 0 -55 14q-16 14 -19.5 30.5t4.5 63.5q4 73 4 146q0 37 -1 73q-3 110 -12 336t-11 273l-2 110l-53 -4q-47 -4 -48 10zM45 642q0 89 14.5 89t14.5 -89t-14.5 -89t-14.5 89zM94 49q-3 2 -3 3q0 2 7 3q2 0 8 2q17 -2 17 -8 q-4 -5 -11.5 -5t-17.5 5zM193 1012q4 -20 11 -25.5t23 0.5q66 18 66 64q0 20 -3.5 21t-19.5 -15q-16 -14 -22 -14.5t-17 12.5q-18 27 -32 2q-7 -13 -7 -30q0 -7 1 -15zM203 139q-4 -6 -4 -12q0 -7 5 -15q6 -9 13 -8q5 0 9 2q12 8 12 27q0 18 -12.5 20.5t-22.5 -14.5z M215 350q6 -6 14.5 1t15.5 21.5t7 26.5q0 33 -21 2q-19 -29 -19 -43q0 -5 3 -8zM279 119q0 -11 13 -15q6 -2 14 -2t16 2q16 4 26 15q20 27 8 33q-4 2 -14 -9q-10 -10 -36.5 -10t-26.5 -14zM279 737q0 -23 16 -12q12 8 12 20.5t-14 12.5t-14 -21zM313 995q6 -6 20.5 7.5 t28 34t13.5 32.5q0 20 -13.5 20.5t-35.5 -42.5q-16 -31 -15 -45q0 -5 2 -7zM338 254q4 -2 29 22q34 33 27 44.5t-11 11.5q-6 0 -19.5 -20.5t-21.5 -41.5q-4 -10 -5 -14zM378 808q4 -20 24 -24q14 -3 62 -3q24 0 58 1q139 4 192.5 15.5t53.5 38.5q0 14 -9 20t-34 8 q-18 0 -38.5 -1t-69 -6t-109.5 -9q-94 -6 -114 -12q-17 -6 -16 -22v-6zM416 1059q0 -20 18 -8q11 6 15 18q10 25 4 29q-2 2 -11.5 -5.5t-17.5 -17.5t-8 -16zM422 137q-1 -2 -1 -4q0 -6 9 -6q14 0 14 13.5t-6 13.5q-8 0 -16 -17zM424 395l102 4q129 6 181.5 13.5t63.5 16.5 t13 34v10q4 35 -1.5 46.5t-28.5 19.5q-14 6 -20.5 7t-13.5 3t-20.5 1t-27 -3t-46 -6t-65.5 -9l-137 -14v-123zM444 295q0 -31 29 6q12 14 12 18q0 20 -20 13q-20 -10 -21 -37zM512 1083q0 -14 18 4q14 14 8 21.5t-16 -3t-10 -22.5zM537 291q20 0 34 26q8 14 0 15 q-20 0 -34 -27q-4 -7 -4 -10.5t4 -3.5zM546 914q9 -6 29 1q27 10 9 29q-20 18 -37 -8q-5 -8 -5 -14q0 -5 4 -8zM586 1067q16 -2 37 29q12 20 2 26q-15 9 -31 -20q-11 -22 -11 -30q0 -4 3 -5zM623 203q0 -14 18 4q14 16 7 22.5t-16 -3t-9 -23.5zM627 913q2 -2 15 -2 q24 0 83 7q61 6 75.5 11.5t14.5 28.5q0 29 -12 38.5t-28.5 -10t-78.5 -30.5q-73 -9 -73 -31q0 -7 4 -12zM631 311q-3 -8 -3 -13q0 -7 7 -7q8 0 18 12q27 25 29 12q2 -6 -6 -22q-10 -16 -10 -27.5t9 -11.5t23 10q20 16 29.5 8t-6.5 -28.5t-2 -48.5q14 -27 25 -27q14 0 22 45 q4 22 6 55l4 92h-55q-70 0 -90 -49zM705 723q0 -8 4 -12q2 -2 4.5 -2t5.5 2q14 8 6 24.5t-16 5.5q-4 -6 -4 -18zM745 1110q0 -6 4 -6q5 0 15 10q10 11 10 18q0 2 -2 4q-2 3 -6 3q-4 1 -10 -5q-10 -10 -11 -24z" />
<glyph unicode="F" horiz-adv-x="923" d="M22 1153q3 33 13 33q6 0 28 -17q10 -5 33 -5q27 0 73 8q83 14 222 34q99 14 188 13q37 0 72 -2q55 -2 85 -2q18 1 26 1q22 2 45 27q27 29 52 29q15 0 30 -10q16 -11 16 -24q0 -11 -12 -24l-6 -6q-14 -10 -16.5 -34.5t3 -53t12.5 -80t7 -96.5v-55h-141q-141 0 -289 -10 q-158 -14 -162 -43q0 -12 25 -39q20 -21 44 -23q6 -1 17 0q33 0 113 6q68 6 107 6q46 0 52 -8q12 -16 34 -117.5t22 -150.5q0 -51 -17 -53q-14 0 -26 35q-10 25 -28.5 28.5t-115.5 3.5q-129 0 -135 -8q-4 -10 32 -189.5t46 -197.5q9 -13 62 -14q3 0 7 1q60 1 106 6t54 -7 q0 -12 -60 -18.5t-158.5 -14.5t-159.5 -23l-97 -26v-56q0 -53 -9 -60q-2 -1 -4 -1q-11 0 -40 25q-32 31 -32 58q0 6 1 11q6 23 1 28t-33 5q-37 0 -38 17.5t33 23.5q29 4 39.5 17.5t-4.5 27.5q-10 14 -23.5 137t-27.5 135q-20 16 -20 154q0 131 -15.5 336t-25.5 219 q-6 7 -6 27q0 7 1 16zM100 981q6 -4 14.5 3t14.5 21.5t6 24.5q2 33 -18 4q-21 -29 -21 -43q0 -6 4 -10zM135 786q20 -31 29 19q18 100 24 113q2 2 2 4q27 49 7 45q-23 -4 -54 -54q-24 -40 -24 -74q0 -28 16 -53zM152 534q2 -10 12 -10q12 0 36.5 45t26.5 72q2 16 5.5 33.5 t6.5 29t4 21.5t0 15t-5 5q-12 0 -30 -35.5t-18 -64.5q0 -31 -20 -57q-10 -14 -15 -28q-4 -10 -4 -19q0 -4 1 -7zM168 1016.5q0 -21.5 4 -23.5q8 0 48 51.5t40 63.5q0 6 -16.5 7t-35 -2t-22.5 -7q-6 -12 -12 -40t-6 -49.5zM203 236q10 0 26.5 17.5t16.5 27.5q0 27 -29 -7 q-18 -24 -18 -33q0 -4 4 -5zM274 999l37 45q29 38 43 38q8 0 11 -11q2 -12 -5 -35q-4 -25 0 -24q4 0 50 41q57 55 57 65q0 8 -36 10q-14 1 -30 1q-23 0 -47 -2q-41 -3 -51 -9q-18 -12 -24 -65zM297 651q25 25 16.5 33t-24.5 -25q-11 -21 -11 -23t19 15zM289 289q0 -23 41 28 q26 36 26 52q0 18 -14 18q-10 0 -31.5 -39t-21.5 -59zM289 498q0 -20 20 -2q6 6 6 10q0 6 -13 6t-13 -14zM301 434q0 -31 27 -10q23 18 10 29q-4 4 -14 4q-23 0 -23 -23zM320 228q8 -8 29.5 8t21.5 30q0 12 -13 13q-14 1 -30 -21q-10 -14 -10 -24q0 -3 2 -6zM330 618 q8 -8 41 25q29 25 53.5 34t36.5 10t14 13q6 16 -18 19h-5q-46 0 -85 -33q-2 -4 -5 -6q-36 -37 -36 -54q0 -5 4 -8zM352 934q8 -10 35 -10q25 0 25 19.5t-20 25.5q-20 7 -34 -9q-8 -10 -9 -18q0 -4 3 -8zM369 160q6 -6 8 -6q8 0 8 14t-16 14q-9 0 -9 -5.5t9 -16.5zM471 604 q-1 -2 -1 -3q0 -8 17 -13q23 -8 70 -8q63 0 77.5 14t-1.5 59q-14 37 -29 37q-12 0 -15 -9t-2 -21.5t-9.5 -21.5t-34.5 -11q-63 0 -72 -23zM525 1108q7 -8 22.5 1t15.5 21.5t-12 12.5q-13 1 -23 -13q-6 -8 -6 -15q0 -4 3 -7zM526 1012q1 -1 3 -1q15 -1 88 57q76 61 76 75 q0 1 -1 2q-8 12 -24 12q-16 -1 -84 -69q-59 -60 -59 -73q0 -2 1 -3zM530 690q-4 -6 -4 -10t6 -4q18 0 35 26q8 14 -2 15q-18 0 -35 -27zM656 1034q12 0 67 41q18 12 33.5 22.5t22.5 13.5t13.5 6t8.5 4t2 3.5v8.5q0 18 -13 18q-22 0 -83 -55q-54 -48 -54 -59q0 -3 3 -3z M710 1008q12 -4 54 30q40 32 30 42q-2 2 -5 2q-13 0 -50 -33q-31 -28 -31 -38q-1 -2 2 -3zM797 999.5q0 -20.5 13 -20.5t13 20.5t-13 20.5t-13 -20.5z" />
<glyph unicode="G" horiz-adv-x="1515" d="M20 653l31 23q20 16 20.5 24.5t3.5 32t29 64.5q29 45 68 134t82 170t100 136q33 33 107 74t121 53q40 10 83 10q79 0 169 -34q139 -54 231 -136q70 -61 79 -61t48 28q18 14 59 32t74 25t33 -1q0 -16 -35 -41t-80 -55.5t-63 -53.5q-29 -41 -166 -87t-174 -68 q-43 -27 -45 -17q-2 8 20 33q16 18 16 34q0 29 -57 48q-29 9 -53 9q-16 0 -30 -4q-34 -11 -93 -62q-72 -61 -102.5 -136t-30.5 -186q0 -141 45 -245.5t119 -135.5q31 -12 84 -12q17 0 35 1q79 5 118 25q35 20 67 72q24 38 24 60q0 8 -3 14q-3 8 -19 8q-23 0 -74 -18 q-85 -29 -91 -54t-14 -25q-10 0 -23 38q-10 31 -18 82q-8 43 -13.5 82.5t-7.5 57t-5 32t-9 22.5q-20 33 16 43q41 10 254 14q264 4 274.5 10.5t10.5 39t14.5 33.5t26.5 -31q6 -20 19.5 -33.5t19.5 -17t9 -12.5t-7 -23q-7 -11 -7 -35q0 -30 11 -80q13 -56 13 -90 q0 -21 -5 -33q-4 -11 -4 -32q0 -48 21 -148q29 -141 46 -177t60 -40q39 -4 43 -15q4 -16 -49 -16q-35 0 -41 -6t-2 -35q6 -49 -10 -49q-10 2 -21 29q-14 37 -40.5 43t-56.5 -4.5t-79 -20.5q-31 -6 -59 -6q-17 0 -33 2q-61 10 -62 22q2 8 27 17q18 4 23.5 19.5t5.5 62.5 q0 76 -13 84q-1 1 -3 1q-12 0 -49 -35q-42 -40 -50 -40q-12 0 -33.5 -17.5t-61.5 -35t-97 -17.5q-78 0 -78 -13t89 -13t89 -14.5t-139 -14.5q-82 0 -112 4t-34 17q-8 23 -54 22.5t-46 -22.5q0 -16 -12.5 -17.5t-42 4.5t-50.5 6q-18 0 -18 19q0 35 139 49q25 2 23 14 q0 12 -29 21q-23 6 -44 15t-29.5 13.5t-17.5 3.5t-15 -12q-8 -12 -16.5 -10t-26.5 25q-147 178 -265 393zM86 588q21 -30 32 -30q10 0 13 24q4 18 4 53q0 82 -18 82q-6 0 -21 -17q-25 -32 -25 -63q0 -25 15 -49zM193 639q6 -121 40 -201q71 -149 105 -149q4 0 8 2 q14 10 35.5 -19.5t48.5 -66.5t49 -37q33 0 68 -33q48 -46 79 -46q5 0 9 1q8 2 8 12q0 27 -73.5 116t-108.5 104q-25 10 -23 -3q0 -8 47 -81q20 -31 21 -43q0 -13 -7 -13q-16 0 -73 78q-94 135 -111 146q-6 2 -8 2q-3 -1 -6 -1q-18 0 -42 37q-18 29 -18 48q0 9 5 16 q14 16 -6 49q-12 18 -14.5 29.5t5 14.5t23.5 -3q12 -4 15 -1t-3 19q-10 23 -15 47.5t-4 39t7 14.5q12 0 47 -37t57 -76q21 -33 34 -33q9 0 14 16q5 14 5 27q0 21 -14 39l-2 4q-12 16 -9 16.5t13.5 16t10.5 41.5q0 39 18 78t26 59q2 5 2 14q0 19 -12 50q-20 39 -20 56.5 t-14 17.5t-27.5 62t-28.5 62q-14 0 -28.5 -31.5t-8.5 -51.5q6 -27 -10 -27q-29 0 -37 -25.5t3.5 -62.5t39.5 -70q23 -25 45 -104q15 -52 15 -74q0 -11 -4 -14q-8 -4 -23.5 16.5t-33 59t-33.5 85.5q-25 73 -42 73q-2 0 -4 -1q-10 -4 -14 -43q-2 -27 -11 -48t-14 -57 q-3 -19 -3 -50q0 -28 2 -66zM328 997q0 12 14 0q12 -8 12 -22q0 -12 8.5 -19.5t19.5 -12.5t19.5 -24.5t8.5 -52.5q0 -50 -11 -50q-10 0 -30 46q-41 92 -41 135zM360 512q-1 -3 -1 -7q0 -18 30 -59q37 -47 45 -32q4 12 -16 55q-28 51 -45 51q-8 0 -13 -8zM395 1157 q0 -27 14.5 -26.5t14.5 18.5q0 25 -16 29q-8 2 -11 -9q-2 -4 -2 -12zM451 1210q0 -31 16 -83t26.5 -52t24.5 -43l14 -41l48 37q49 35 49 45q0 23 -18.5 60.5t-30.5 42.5q-19 8 -19 41q0 45 -27.5 50t-55 -15.5t-27.5 -41.5zM457 1018q8 -33 8 -56.5t20 -23.5q18 0 19 10 t-15 53q-16 45 -30 46q-6 0 -6 -9q0 -7 4 -20zM506 1139q0 47 13 47t13 -19.5t21 -27.5q10 -4 16 -28t6 -42t-8 -22q-18 0 -39.5 31.5t-21.5 60.5zM588 1276q0 -37 35.5 -111.5t52.5 -74.5q23 0 29 13t-11 21q-20 13 -47 95q-28 88 -48 88h-1q-10 0 -10 -31zM637 184 q-1 -2 -1 -6q0 -15 33 -52q34 -37 49 -37q3 0 5 1q18 12 13 32.5t-34 45.5q-32 25 -50 25q-10 0 -15 -9zM657 1296q0 -29 42 -117.5t73 -88.5q5 0 5 7q0 18 -29 79q-31 66 -46 102q-15 43 -32 43h-2q-11 0 -11 -25zM735 172q-1 -2 -1 -4q0 -17 36 -49q27 -23 43 -28t51 1 q53 10 54 29q0 12 -8.5 14t-34 6.5t-52.5 16.5q-47 25 -69 25q-15 0 -19 -11zM737 1282q6 -29 39 -92q41 -82 58.5 -105.5t29.5 -15.5q6 4 15.5 -8t21.5 -26.5t25 -14.5q18 0 19 11t-15.5 27.5t-1.5 31.5q4 4 4 15q0 24 -20 77q-31 78 -54 82t-20 -9q0 -14 39 -84 q31 -56 31 -77q0 -6 -3 -9q-12 -14 -33 21q-14 22 -55 104q-43 90 -59 95q-6 2 -11 2q-11 0 -11 -14q0 -5 1 -11zM782 488q2 -19 19 -27q18 -6 61 9t43 29.5t-39 10.5q-31 -4 -37 4t2 39q6 23 17.5 27t17.5 -17q6 -18 16.5 -7.5t2.5 30.5q-6 16 -46 20t-51 -12 q-8 -12 5.5 -40t1.5 -36q-14 -9 -14 -24q0 -3 1 -6zM915 573q4 -37 16.5 -51t33.5 -6q16 6 16 26.5t-4 34t8 17.5q16 0 16 -19q0 -8 9.5 -16t23.5 -10q33 -6 27 11.5t6 25.5q6 4 17.5 -12.5t24.5 -42t26.5 -52t24.5 -45t18 -18.5q10 0 47 -85t37 -100q0 -23 13 -22.5 t13 10.5q0 25 -34 199q-29 155 -29 188v6q2 27 -15 30q-5 1 -10 1q-19 0 -57 -8q-29 -4 -48.5 -6t-56.5 -6.5t-71 -6.5q-39 -2 -47 -8q-5 -5 -5 -24v-11zM934 1190q6 -14 35 -41q27 -23 27.5 -32t-17.5 -27q-25 -29 -14 -39q8 -6 56 17.5t58 39.5q6 10 -24.5 35.5 t-40.5 19.5q-8 -4 -37 29q-25 28 -33 28q-1 0 -2 -1q-10 -10 -10 -20q0 -4 2 -9zM956 203q20 -45 39 -27q12 12 11 51q-4 45 8 49q8 2 24 -14q15 -15 31 14q12 27 2 51.5t-25.5 42t-17.5 17.5q-6 0 -17.5 -21.5t-26.5 -54t-28 -49.5q-8 -12 -8 -26.5t8 -32.5zM1071 522 q-3 -1 -3 -9q0 -20 19 -85q41 -129 54 -131q6 0 12 10q4 7 4 19q0 42 -49 141q-28 55 -36 55h-1zM1124 580q0 14 11 14q12 0 50 -82q34 -74 34 -93q0 -14 -27 25q-66 99 -68 136zM1158 162q5 -39 37 -71q24 -24 54 -24q10 0 21 3q33 8 37 26q2 8 2 17q0 15 -4 34 q-2 37 -16.5 33t-24.5 -45q-10 -39 -22 -39q-11 0 -23 29q-4 10 -13 37q-25 66 -37 69q-6 0 -10 -8q-3 -13 -3 -30q0 -14 2 -31z" />
<glyph unicode="H" horiz-adv-x="1116" d="M23 1147q-1 11 -1 18q0 14 4 20q7 9 18 8t18.5 11.5t3.5 42.5q-6 35 -2 41t30 6q20 0 26.5 -5t2.5 -19q-6 -16 9 -22.5t83 -14.5q41 -4 79 -7t55.5 -4t32.5 -3t20.5 -4.5t9.5 -4.5q10 -10 18 -221l8 -209l82 4q82 4 94 15q4 4 4 24q0 34 -11 114q-8 59 -8 93q0 40 11 45 q12 8 11.5 11.5t-15.5 3.5q-23 0 -45 43q-18 39 -17 46t21 7q16 0 39 11t33 17.5t20 -2.5q8 -12 104.5 -12t135.5 10q23 6 30 19.5t9 48.5q4 57 16.5 57t16.5 -57q4 -41 10 -49t33 -6q20 2 30.5 -3.5t3 -13.5t-25.5 -12q-23 -6 -25 -24q-1 -6 -1 -21q0 -29 3 -90 q6 -90 30 -289t36 -377q14 -207 29 -254q4 -16 4 -30q0 -9 -2 -17q-4 -20 -17.5 -27.5t-29.5 3.5q-18 10 -197 10q-59 0 -92 1t-52.5 3t-24.5 6t-3 10q5 17 5 110q0 46 -1 112q-4 198 -14 206q-4 4 -13.5 4t-28 -3t-37 -7t-49 -11t-59.5 -11t-42 -6.5t-26.5 -11.5t-16.5 -16 t-4 -28.5t3 -43t13 -64.5q4 -27 8 -52.5t7 -42t5 -33t5 -25.5t4 -17t5 -12.5t6.5 -7.5t8.5 -5t11 -2t15 -2q41 -4 39 -18q-2 -18 -61 -23q-57 -4 -58 -17.5t13 -13.5t14 -20q0 -12 -17.5 -16.5t-68.5 -4.5q-47 0 -75.5 -7t-34.5 -13q-5 -4 -10 -4h-3q-6 2 -22 14 q-25 25 -41.5 25t-16.5 13t20.5 13t20.5 14.5t-32.5 14.5t-38.5 10q-4 6 -20.5 237.5t-36 492.5t-31.5 321zM116 855q2 -13 11 -13q10 0 40 74.5t30 97.5q0 12 34 90q10 22 10 35q0 18 -20 18q-14 0 -39.5 -62.5t-25.5 -101.5q-2 -49 -21 -75q-10 -12 -15 -31q-4 -14 -4 -24 q-1 -4 0 -8zM125 731q12 0 62.5 102.5t50.5 127.5q0 18 -13.5 18t-13.5 -27q0 -18 -30.5 -74.5t-50.5 -101.5q-12 -25 -12 -36q0 -9 7 -9zM129 654.5q0 -33.5 12 -33.5q6 0 19.5 26.5t31 58t29.5 42.5q20 16 19 -7q-4 -31 -41 -106q-42 -82 -42 -109q0 -14 11 -14 q8 0 28.5 48t47 101.5t47.5 63.5q31 12 43 47l28 66q14 35 5 32q-18 -2 -46 -63.5t-42 -69.5q-18 -10 -9 23q4 16 84 198q21 52 21 64q0 41 -19 18q-16 -16 -30 -61q-25 -70 -47 -70q-18 0 -73.5 -103.5t-64.5 -109.5q-12 -8 -12 -41.5zM156 188.5q0 -34.5 13 -34.5t13 34.5 t-13 34.5t-13 -34.5zM180 401q12 1 37 54q20 42 20 63q0 9 -4 14q-6 6 -22 -22q-2 -2 -2 -6q-36 -70 -36 -93q0 -10 7 -10zM205 348q-6 -9 -6 -16q0 -8 8 -13q6 -1 12 5q10 10 2 30q-6 10 -16 -6zM211 1281q0 13 41 13t41 -13t-41 -13t-41 13zM229 68q-1 -2 -1 -4q0 -4 3 -7 q8 -12 76 -12t68 12q0 15 -24.5 15t-65.5 8q-55 10 -56 -12zM229 383q6 -16 23 20q14 29 10 43q-6 18 -24 -18q-11 -21 -11 -35q0 -5 2 -10zM238 1030q2 -20 34 29q29 44 29 61q0 9 -8 10q-12 0 -33.5 -40t-21.5 -60zM276 145q7 3 17 9q16 10 12 36q-4 16 -8 17 q-2 0 -16 -23q-11 -23 -11 -33q0 -7 6 -6zM307 258q0 -23 27 6q35 35 16 47q-10 6 -26.5 -15.5t-16.5 -37.5zM322 664q0 -20 12 -9q18 16 12 35q-6 20 -18 0q-6 -10 -6 -26zM354 127q25 0 30 7t3 44q-4 49 -18.5 53.5t-30.5 -41.5q-14 -40 -14 -51.5t30 -11.5zM328 1077 q10 -10 26 25q20 41 -4 41q-12 0 -22 -28q-5 -14 -5 -23.5t5 -14.5zM348 737q0 -23 17 -12q10 8 10 20.5t-13.5 12.5t-13.5 -21zM362 1282q0 8 10 11q4 1 8 1q6 0 14 -2q12 -4 16 -10q10 -18 -1.5 -29.5t-27.5 0.5q-19 17 -19 29zM375 657q0 -16 4 -18t10 5t16.5 9t22.5 -6 q20 -18 37.5 9.5t15.5 39.5q-4 10 -29.5 15.5t-51 -7t-25.5 -47.5zM444 1267.5q0 14.5 13.5 14.5t13.5 -14.5t-13.5 -14.5t-13.5 14.5zM483 621q8 0 40 40t32 50q0 20 -31 -2q-6 -6 -14 -15q-33 -41 -33 -62q0 -11 6 -11zM535 569q4 -4 18 9.5t28.5 33t14.5 27.5 q0 10 -12 10q-14 1 -36 -35q-16 -25 -16 -38q0 -4 3 -7zM637 586q14 -11 37.5 13t9.5 38q-14 12 -37 -14q-16 -17 -16 -27q0 -6 6 -10zM698 1077q20 -25 5 -42t-3 -29q6 -6 32 18.5t46.5 55t14.5 38.5q-6 13 -44 13q-9 0 -20 -1q-47 -4 -47 -25q0 -11 16 -28zM731 827 q12 0 53.5 54.5t51.5 81.5q8 31 4 28l-78 -86q-42 -52 -41 -69q-1 -9 10 -9zM733 575q0 -29 35 13q37 43 20 47q-8 0 -31.5 -25t-23.5 -35zM752 186q-3 -8 -4 -14q0 -12 10 -22q16 -16 37.5 -5t17.5 31q-4 23 -29 27q-23 3 -32 -17zM752 227q4 -6 36.5 26t68.5 75t48 67 q12 27 28.5 46.5t25 27.5t8.5 16q0 13 -7 13q-11 0 -40 -35q-35 -43 -35 -60q0 -8 -36 -50t-70 -82q-28 -33 -28 -42q0 -1 1 -2zM764 326q4 -4 14 5t17.5 20t3.5 15.5t-14.5 -4t-17.5 -20.5q-4 -8 -4 -12q0 -3 1 -4zM791 836h1q8 0 76 83q72 89 72 103q0 13 -7 13 q-17 0 -75 -81q-68 -97 -68 -115q0 -2 1 -3zM819 778q8 0 58 49q63 62 63 86.5t-14.5 24.5t-14.5 -12q0 -2 -69 -105q-24 -36 -24 -42q0 -1 1 -1zM829 1102q0 -20 21 0q6 4 6 8q0 6 -13.5 6t-13.5 -14zM866 152q14 -15 39 22q35 53 13 49q-27 -2 -50 -37q-8 -12 -8 -21 q0 -8 6 -13zM872 1067q6 -4 19.5 8t24 27.5t8.5 19.5q-2 1 -4 1q-6 0 -16 -8q-14 -11 -24 -27.5t-8 -20.5zM911 813q0 -20 23 0q6 4 6 8q0 6 -14.5 6t-14.5 -14zM918 725q-4 -10 -5 -18q0 -9 5 -15q12 -20 23 -14t11 33q0 34 -11 34h-1q-14 0 -22 -20zM940 594 q0 -27 13.5 -27t13.5 27t-13.5 27t-13.5 -27zM967 174q-7 -8 -7 -15q0 -9 13 -16q23 -8 39.5 9.5t-6.5 33.5q-16 12 -17.5 28.5t2.5 25t-2 10.5q-10 0 -17 -21.5t1 -29.5t-6 -25zM1063 29.5q0 13.5 13.5 13.5t13.5 -13.5t-13.5 -13.5t-13.5 13.5z" />
<glyph unicode="I" horiz-adv-x="518" d="M35 74q0 8 28 16q23 6 26 20q1 4 1 12q0 21 -6 68q-8 94 -8 539q0 412 -13 438q-4 10 -14 15q-30 7 -30 16q0 7 16 14q35 18 110 21q160 2 199 7t43 28q7 28 17 28t22 -28q14 -34 14 -52q0 -6 -2 -10q-1 -4 -1 -22q-1 -40 5 -146q8 -156 21.5 -385t15.5 -354 q6 -193 17 -217q2 -4 2 -8q0 -16 -27 -21q-33 -6 -176 -8q-158 -4 -168 -14q-2 -2 -8 -2q-13 0 -42 13q-42 19 -42 32zM145 901q4 -4 13 -4q12 0 74.5 79t62.5 95q0 10 21.5 30.5t21.5 28.5q0 11 -6 11q-14 0 -60 -60q-74 -98 -94 -116q-35 -33 -35 -55q0 -5 2 -9zM154 550 q-1 -3 -1 -6q0 -6 5 -12q8 -6 19 6.5t16.5 32t1.5 31.5q-6 12 68.5 113.5t101.5 118.5q14 7 14 36q0 26 -9.5 26t-29.5 -26q-4 -6 -6 -12q-18 -27 -66 -83t-78 -99q-27 -38 -26 -56q0 -38 -1 -40q-5 -20 -9 -30zM154 1063q-3 -23 -3 -38q0 -22 7 -26q8 -6 35.5 28t50 74 t18.5 50q-7 21 -36 21h-6q-34 -2 -46 -25q-12 -27 -20 -84zM161 297q-2 -5 -2 -10q0 -10 11 -15q8 -6 33.5 25t56.5 79t61.5 101t50 98.5t19.5 63.5q0 11 -5 11q-16 0 -77 -93q-82 -123 -82 -147q0 -16 -14 -39t-29.5 -39.5t-22.5 -34.5zM164 426q-1 -2 -1 -4q0 -6 9 -6 q14 0 14 13t-6 13q-8 0 -16 -16zM186 772q6 -10 35 12q29 23 92.5 104t65.5 93q0 9 -5 9q-17 0 -91 -97q-63 -82 -74 -92q-24 -20 -24 -27q0 -1 1 -2zM211 225q14 0 50 30q46 38 88 97.5t42 98.5q0 47 -8 47q-10 0 -97 -132q-81 -124 -81 -138q0 -3 6 -3zM219 897 q12 0 86 96.5t74 112.5q0 25 -11 25q-11 1 -28 -17q-16 -16 -16 -29q0 -4 -31 -52t-57 -92q-19 -33 -19 -41q0 -3 2 -3zM280 610q34 40 66.5 89t32.5 59q0 15 -7 15q-16 0 -73 -89q-55 -88 -55 -104q0 -13 36 30zM283 201.5q0 -11.5 41 27.5q32 31 46 31q5 0 7 -4 q6 -10 -10 -35q-18 -29 -8 -55q9 -23 29 -24q3 0 7 1q25 2 28 23q1 4 1 11q0 28 -10 104q-8 65 -19 65q-10 0 -61 -66.5t-51 -78z" />
<glyph unicode="J" horiz-adv-x="1208" d="M22 518q5 6 17 6q10 0 34.5 16.5t53.5 20.5l102 14q41 4 53.5 2t12.5 -16q0 -8 9 -15t22 -9q23 -4 27.5 -24.5t11.5 -121.5q4 -109 17 -141.5t58 -46.5q7 -2 14 -2q25 0 52 23q35 28 65 87q20 41 23.5 58.5t-8.5 50.5q-16 48 -16 88q0 45 20 45q12 0 17 20.5t5 81.5 q0 102 -12 102.5t-25 45.5q-10 31 -23 41t-67 20q-88 18 -163 18h-4q-78 -1 -91 -24q-12 -25 -28 -8q-12 12 -12 156q0 31 1 68q3 210 17 233q7 12 13 12q9 0 18 -23q4 -8 6 -20q4 -18 30.5 -23.5t139.5 -9.5q186 -5 364 -5h58q206 1 235 7l37 10v-362l41 -14q40 -15 40 -28 q0 -10 -32 -1q-35 8 -43 -14q-10 -29 -27 -21q-6 4 -6 19q0 20 -12 28q-16 10 -109 20q-54 6 -79 6q-19 0 -22 -3q-7 -8 -21.5 -178t-24.5 -373q-3 -59 -3 -96q0 -66 9 -66q18 12 12 -2q-10 -35 -51 -74q-14 -10 -20 -10q-14 0 -87 -72.5t-73 -87.5q0 -12 31 -26 q33 -14 37 -37q2 -8 -7 -8q-6 0 -14 4q-76 31 -92 31.5t-41 -21.5q-33 -31 -43 -31q-16 0 -113.5 74t-177.5 149l-110 103l-5 160q-4 162 -24 170q-10 4 -15 11q-4 4 -4 7t2 6zM110 429q-2 -5 -2 -9q0 -6 7 -10q10 -6 19 1t9 21q0 10 -12 10q-14 0 -21 -13zM156 217 q3 -2 7 -2q19 0 54 57q31 55 19 56q-10 0 -50 -49q-33 -44 -33 -57q0 -4 3 -5zM184 525.5q0 -13.5 14.5 -13.5t14.5 13.5t-14.5 13.5t-14.5 -13.5zM195 135q8 -12 32 21l54 69q28 37 28 107q0 67 -15 67h-1q-10 0 -26.5 -19.5t-8.5 -27.5t18.5 -13t-8.5 -36 q-35 -55 -58 -107q-17 -39 -17 -54q0 -5 2 -7zM240 1164.5q0 -21.5 14 -21.5t14 21.5t-14 21.5t-14 -21.5zM252 102q0 -6 2 -10q16 -14 49 27t33 59q0 24 -11 24q-10 0 -30 -20q-43 -43 -43 -75v-5zM281 449q0 -23 16 -13q12 8 12 21.5t-14 13.5t-14 -22zM317 950 q12 0 119 101.5t107 113.5q0 16 -12 16q-11 0 -33 -14q-14 -8 -33 -22q-86 -61 -139 -148q-17 -28 -17 -39q0 -8 8 -8zM325 1080q1 -1 3 -1q12 0 54 32q50 38 50 50q0 10 -7 10q-15 0 -60 -41q-41 -37 -41 -48q0 -1 1 -2zM332 -37q0 -4 6 -10q15 -19 33 -19q12 0 34.5 -20 t40.5 -20q29 0 17 28q-10 27 -35 31q-65 12 -86 12q-9 0 -10 -2zM336 580.5q0 13.5 27.5 13.5t27.5 -13.5t-27.5 -13.5t-27.5 13.5zM344 127q-6 -9 -6 -16t8 -11q6 -4 12 2q10 12 2 31q-6 10 -16 -6zM383 55q2 -24 20 -24q12 0 41 39t29 55q0 27 -37 12q-25 -10 -39 -31 q-14 -24 -14 -46v-5zM391 954q0 -18 14 -18q20 0 70 37q55 43 113 108q65 74 65 82t-24 6q-23 0 -130.5 -97t-107.5 -118zM477 47q-1 -4 -1 -6q0 -10 16 -10h2q31 0 55 26q25 27 18 39q-2 8 -23.5 0t-42 -23.5t-24.5 -25.5zM487 -39q0 -14 20.5 -14t20.5 14t-20.5 14 t-20.5 -14zM522 938q0 -1 2 -1q9 0 66 45q63 50 124.5 107.5t61.5 69.5t-31.5 12t-105.5 -77q-82 -86 -103 -115q-16 -21 -16 -33q0 -5 2 -8zM557 152q0 -12 9 -12q25 0 116 89l94 90v185q0 186 -14 186t-55 -84q-21 -44 -21 -59q0 -8 6 -8h2q6 2 21 12q23 20 20 -2 q-2 -14 -14 -49q-8 -22 -8 -38t8 -26q3 -3 3 -9q0 -20 -32 -69q-41 -65 -88 -129.5t-47 -76.5zM645 965q18 0 122.5 90t104.5 108q0 11 -8 11q-28 0 -149 -125q-71 -76 -71 -83q0 -1 1 -1zM650 880q18 -18 38.5 8t20.5 46q0 37 -39 0q-6 -4 -11 -10q-16 -16 -16 -29 q0 -9 7 -15zM688 664q3 -2 5 -2q7 0 12 14q4 10 37.5 47t33.5 76q0 43 -12 43q-14 0 -34.5 -31t-12.5 -39q4 -8 -15 -54q-15 -35 -15 -48q0 -4 1 -6zM690 821l43 47q41 50 43 60q2 31 -28 -13q-12 -14 -23 -34zM778 1001q1 -1 2 -1q13 0 100 68q95 75 101 91q2 4 -2 8t-12 4 q-12 0 -61.5 -39.5t-91.5 -82.5q-37 -38 -37 -46q0 -1 1 -2zM902 1000q9 -11 13 -23q6 -16 51 -29q24 -6 40 -6q13 0 20 4q13 7 13 27q0 7 -2 17q-7 34 -27 40q-27 7 -27 19q0 8 27.5 26.5t27.5 34.5q0 23 -15 23q-22 0 -77 -52q-33 -29 -44 -44q-10 -14 -10 -20t10 -17z " />
<glyph unicode="K" horiz-adv-x="993" d="M20 1174q0 6 5.5 7t14.5 -1t19.5 -3t23.5 5t23 20l25 31l23 -29q18 -23 70 -28t306 -9l353 -8l30 41q29 39 41 39q12 1 16 -27q3 -16 3 -38q0 -14 -1 -30q-3 -40 -6 -87t-6.5 -84t1.5 -60q1 -9 1 -18q0 -30 -14 -65q-20 -46 -20 -74q0 -33 -8.5 -36t-34.5 19 q-16 16 -37 5t-94 -74q-109 -94 -113 -105q-2 -8 23.5 -39.5t61.5 -80t52 -83.5q22 -48 36 -48h2q15 3 15 61q0 53 13.5 53t13.5 -141.5t16 -157.5q10 -18 1 -30.5t-26.5 -39t-17.5 -49.5q0 -41 -28 -55q-4 -2 -7 -2q-9 0 -14 12q-8 18 -4 51q4 25 -6 30t-63 3 q-202 -4 -333 -4q-210 0 -237 10q-33 14 -35 20.5t19 26.5q12 12 13 104v24q0 103 -7 376q-12 483 -27 510q-12 23 -47 36t-35 22zM61 727q0 141 13 141q8 0 18 -151.5t10 -284.5q0 -100 -12 -100q-10 0 -19.5 126t-9.5 269zM173 1065q3 -43 22 -76q12 -29 67 -113.5 t70 -101.5q12 -18 12 3q0 11 -56 133q-51 110 -52 135q0 5 2 6q8 8 26.5 -17.5t42 -62.5t35.5 -47q16 -12 14 4q-2 33 -43 86q-29 40 -29 60q0 14 15 18q35 12 -27 26q-43 9 -66 9q-19 0 -24 -6q-10 -10 -10 -40q0 -7 1 -16zM186 870q0 -31 68 -127t94 -106q16 -4 12 12 q-6 27 -84 148q-70 113 -80 113t-10 -40zM256 612q49 -76 86 -91q10 -4 19 -4l55 32q25 27 26.5 51.5t-20.5 32.5q-8 2 -12 -6.5t-4 -24.5q0 -36 -13 -36q-11 0 -31 24q-12 14 -16 12t-10 -22q-6 -25 -19 -9q-9 11 -36 56q-47 82 -66 88q-14 5 -14 -4q0 -11 55 -99zM227 571 q0 -18 30 -66t42 -48q5 0 5 5q0 15 -36 70q-30 45 -38 45q-3 0 -3 -6zM240 352q0 -12 21.5 -45t44 -58.5t26.5 -21.5q2 2 2 5q0 18 -43 87q-32 51 -44 51q-7 0 -7 -18zM268 401q27 -35 27 -12q0 29 -37 55q-16 11 -16 4q0 -11 26 -47zM254 238q0 -10 20.5 -36t43 -45.5 t26.5 -13.5q2 2 2 5q0 16 -43 67q-31 36 -42 36q-7 0 -7 -13zM348 990q10 -20 26.5 -36t18.5 -16q13 0 17 44q2 16 1 33q-1 28 -5 56q-8 45 -21 45q-23 0 -27 -16.5t0 -36t-8 -35.5q-7 -10 -7 -20q0 -9 5 -18zM350 846q0 -12 19 -39q12 -14 23 -16.5t12 7t-7 25.5 q-23 35 -41 31q-6 -2 -6 -8zM377 676q0 -14 14.5 -14t14.5 14t-14.5 14t-14.5 -14zM406 213q0 -78 15 -114q11 -26 30 -27q7 0 14 4q15 5 15 38q0 42 -25 128q-17 61 -32 61h-1q-16 -2 -16 -90zM440 664q-2 -3 -2 -6q0 -11 22 -30q28 -24 40 -16q25 16 -6 47q-19 19 -33 19 q-12 0 -21 -14zM461 551q0 -18 20 0q6 6 6 8q0 8 -13 8t-13 -16zM461 993q0 -151 12 -151q8 0 52 113.5t44 138.5q0 20 -19.5 34.5t-49.5 14.5h-39v-150zM479 475q8 -10 36 15.5t20 35.5q-6 12 -18.5 12.5t-28.5 -28.5q-11 -20 -12 -29q0 -4 3 -6zM489 408q12 -6 43 6 t49.5 33.5t10.5 35.5q-10 14 -23.5 10t-52.5 -34q-34 -28 -34 -42q0 -6 7 -9zM494 723q6 -12 30 -43q20 -31 34.5 -38t37.5 -1q66 16 68 41q2 20 -52 12q-33 -4 -46 0.5t-23 22.5q-14 29 -35 28q-18 0 -18 -10q0 -5 4 -12zM511 253q9 -46 20.5 -42t11.5 55q0 20 1 29.5 t3 15.5t10 4t16.5 -3t29 -7t40.5 -10q39 -6 37 -23q0 -8 -21 -8q-39 0 -4 -26q8 -8 23 -17q26 -15 40 -15q16 0 19 19v6q0 30 -37 72q-23 27 -40 35t-54 8q-56 0 -80 -24q-18 -17 -17 -46q0 -11 2 -23zM537 801q-2 -4 -2 -9q0 -20 38 -57q39 -35 39 -8q0 14 -39 57 q-27 33 -36 17zM569 145q6 -6 9 -6q6 0 6 14.5t-15 14.5q-9 0 -9 -5.5t9 -17.5zM578 250q-8 0 -8 -7q0 -11 18 -38q43 -66 94 -66q55 0 27 29q-17 14 -58 39q-70 43 -73 43zM586 838q0 -16 39 -64q23 -29 36 -36t19 0t17.5 12.5t27.5 -0.5q2 -1 4 -1q23 0 61 58 q42 63 62 135q19 67 19 92q0 24 -15 43q-18 23 -82 30q-18 2 -32 2q-36 1 -48 -13q-16 -18 -8 -33q2 -4 -2 -8t-13 -6t-22 -5q-50 -4 -50 -33q0 -31 54 -71q50 -36 67 -36q5 0 7 3q1 2 1 4q0 14 -38 47q-40 36 -40 50q0 5 5 8q8 4 31 -4t23 6q0 10 12 13t28.5 -2t26.5 -15 q10 -14 6 -20.5t-26 -14.5q-27 -10 -30 -16.5t13 -24.5q23 -23 24 -46.5t-20 -31.5q-12 -4 -48 15.5t-67.5 38t-37.5 8.5q-8 -12 17.5 -41t62.5 -50q45 -23 39 -38q-2 -6 -17 -7q-16 0 -61 35t-45 17zM625 430q-1 -12 19 -26q14 -10 21 -11q3 0 5 2q10 11 -4 29 q-25 29 -37 14q-4 -2 -4 -8zM721 814q0 13 20.5 13t20.5 -13t-20.5 -13t-20.5 13z" />
<glyph unicode="L" horiz-adv-x="1005" d="M20 1188.5q0 17.5 291 19.5q256 4 293 19q31 12 41 63q0 5 2 21q8 49 21 53h2q10 0 10 -28q0 -17 -4 -44q-2 -22 -2 -39t2 -27q4 -22 10 -30t5 -13t-15 -16q-4 -4 -9 -13t-9.5 -27.5t-8.5 -41t-11 -64.5t-14.5 -86t-19.5 -118t-26 -147q-44 -244 -44 -310q0 -8 1 -14 q4 -37 18 -41h4q30 0 203 45l162 45l4 43q4 45 18 45q10 0 19 -30q10 -43 18 -187q5 -96 5 -158q0 -32 -1 -55q-4 -88 -20 -92q-10 -4 -11 49q0 46 -15 56q-5 3 -33 4q-53 0 -191 -12q-209 -18 -320 -40q-86 -16 -103.5 -24t-21.5 -37q-4 -37 -17 -37h-1q-10 2 -14 31 q-4 31 -56 45q-57 16 -59 27q-2 10 27 20q28 11 32 25q2 6 2 20q0 22 -4 62q-4 53 -10 300.5t-13 462.5t-16 228q-14 16 -33.5 15t-19.5 -17q0 -8 -12 8q-20 25 -35 24q-21 0 -21 17.5zM221 1063q4 -16 9.5 -22.5t12.5 -4.5t17.5 13t28.5 34q28 38 28 55q0 8 -6 11 q-14 6 -41 -29t-28 -24v16q-2 31 -15 31q-15 0 -15 -25q0 -20 9 -55zM223 811q5 -63 21 -63q9 0 22 22q14 23 15.5 12.5t-19.5 -41.5q-12 -20 -21.5 -56t-10.5 -61.5t8 -29.5q8 0 24.5 22.5t38 56.5t34.5 49t17 28.5t7 28t32 61.5t84 118q104 135 104 154q0 2 -1 2 q-6 6 -35 -21.5t-72 -77.5t-90 -112q-55 -74 -64 -74q-4 0 0 19q6 27 97.5 143.5t117.5 132.5q12 8 10.5 27.5t-14.5 19.5q-18 0 -72 -58q-53 -57 -101 -111q-45 -50 -51 -50h-1q-6 6 26.5 51.5t66.5 91.5t32 54q-5 18 -18 18q-31 0 -105 -98q-4 -6 -8 -10q-47 -66 -63 -121 q-12 -40 -13 -90q0 -18 2 -37zM238 356q2 -10 10 -10t34.5 32t26.5 42q0 6 39 62q35 50 35 78v5q-6 31 72 121q33 35 53 67.5t28.5 53t11.5 37t1 23.5t-6 7h-1q-10 0 -112 -148q-106 -154 -106 -173q0 -16 14 -4q2 2 6 4q23 18 21 8q-2 -20 -62 -88q-65 -71 -65 -111v-6z M295 94q0 -12 7 -12t22 14q10 11 20 25q27 41 16 41q-16 0 -53 -45q-12 -16 -12 -23zM305 360q8 -2 41 35q72 82 121 153.5t49 94.5q0 33 -10 33q-8 0 -62.5 -80t-64.5 -104q-6 -14 -41 -62q-38 -50 -38 -64q0 -5 5 -6zM315 254q8 -8 13 -2l82 98q77 92 77 120t-12 28 q-18 0 -95 -116q-67 -100 -67 -123q0 -3 2 -5zM332 182q18 0 73.5 55t61.5 78q10 37 -10 29q-39 -18 -103 -108q-26 -38 -26 -49q0 -5 4 -5zM383 117q1 -1 2 -1q11 0 67 40q62 45 63 56t-30 11q-23 0 -69 -47q-36 -37 -36 -52q0 -4 3 -7zM436 802q24 28 57 70.5t48 57.5 q28 24 28 57t-8 33q-12 0 -85 -112q-68 -104 -68 -122q0 -17 28 16zM522 143q16 -16 37 -8q8 2 4 6q-4 8 24.5 32t60.5 47.5t32 31.5q0 12 -21 12q-12 0 -48 -28q-35 -27 -65 -58q-25 -26 -25 -33q0 -1 1 -2zM762 277.5q0 -13.5 14.5 -13.5t14.5 13.5t-14.5 13.5 t-14.5 -13.5zM805 140.5q0 -13.5 33.5 -13.5t33.5 13.5t-33.5 13.5t-33.5 -13.5zM846 225q4 -2 20 11q20 18 31 6q6 -8 -8 -23q-16 -16 6 -41q19 -21 29 -21q8 0 10 15q0 14 -3 47t-7 50.5t-10 23.5q-4 3 -8 3q-3 0 -7 -2q-8 -5 -22 -20q-33 -35 -33 -45q0 -3 2 -4z" />
<glyph unicode="M" horiz-adv-x="1411" d="M23 1051q-2 2 -2 6q0 11 18 37q24 34 35 28q6 -4 55 8.5t113.5 26.5t101.5 14q86 0 105 29q4 6 0 14q-6 8 8 33t6 47q-8 29 4 29t19.5 -27.5t22.5 -55.5t44 -28q25 0 26 -11t-18 -27q-12 -10 -4 -49.5t49 -161.5q66 -197 82 -201q8 -2 16 30q7 32 10 90q2 34 2 70 q0 23 -1 47q-2 66 -8.5 81.5t-26.5 21.5q-33 8 -33 20q0 14 162 32q132 14 201 14q16 0 28 -1q47 -4 55.5 0t8.5 35q0 37 18 39q20 0 29 -45q6 -39 13 -202t16.5 -306t24 -160.5t44 -156t41.5 -148.5q23 -20 7.5 -44.5t-60.5 -37.5q-25 -6 -85 -25.5t-113.5 -36t-90.5 -22.5 q-59 -10 -71.5 -19t-26.5 -52q-8 -27 -19.5 -36t-37.5 -11h-12q-33 0 -33 10q0 12 18 12t34.5 17.5t-7.5 35.5q-18 10 -18.5 15.5t18.5 17.5q27 20 47 182q12 95 12 139q0 30 -6 35q-1 1 -2 1q-12 0 -58 -56q-52 -63 -100.5 -137t-48.5 -94q0 -18 -7 -24.5t-26.5 -6.5t-28 6 t-8.5 23q0 29 -35.5 128t-62.5 142q-28 46 -43 46q-2 0 -4 -1q-4 -2 -4 -10q0 -35 32.5 -188.5t45.5 -170.5q11 -18 11 -31q0 -30 -59 -36q-19 -3 -76 -3q-29 0 -67 1q-172 2 -174 18q0 8 33 21l37 12l-11 156q-4 86 -14 216t-15 227t-5 216q0 201 -15 209q-10 6 -61 -7 t-55 -9zM211 791q2 -4 8 -5q10 0 35 41.5t25 57.5q0 35 -35 -13q-35 -46 -35 -71q0 -5 2 -10zM236 657q0 -27 20 0q12 16 20 43l25 70q6 16 -6 16q-10 0 -34.5 -54t-24.5 -75zM237 522q1 -94 11 -94t26.5 58.5t16.5 91.5q0 14 -8.5 28.5t-19.5 20.5t-17 0q-9 -9 -9 -88v-17z M246 950q-3 -14 -3 -22q0 -11 5 -10l6 6q16 20 51 93q31 66 31 75q0 45 -41 -7q-31 -41 -49 -135zM250 194q2 -40 14 -40q14 0 14.5 41t26 49t47.5 96q19 73 19 93q0 6 -2 7q-2 2 -17 2q-8 0 -14 6.5t-6 14.5q0 43 -21 8q-16 -25 -32 -78q-15 -45 -23 -103q-7 -47 -6 -81 v-15zM291 299q0 20 14 20t14 -20t-14 -20t-14 20zM336 946q2 -4 18 21q54 90 62 129q0 6 -12.5 6t-42 -69.5t-25.5 -86.5zM339 139q-4 -14 -4 -23q0 -10 5 -14q10 -12 27 25q18 41 -7 41q-12 0 -21 -29zM401 664q31 -70 43.5 -70t6.5 12q-4 6 7 47t27.5 90.5t31.5 102.5 t19.5 84t-12.5 35q-8 0 -49 -124t-55 -128q-12 -6 -10 20q2 53 49 174q39 101 39 147t-21 62q-11 8 -16 8q-3 0 -5 -2q-5 -6 -20 -55q-6 -20 15 -20q25 0 14 -33q-4 -10 -16 -45q-33 -86 -54 -158q-15 -54 -15 -75q0 -20 21 -72zM387 112.5q0 -14.5 14.5 -14.5t14.5 14.5 t-14.5 14.5t-14.5 -14.5zM492 532q-6 -23 -6 -39q0 -17 8 -24q20 -20 36 35q7 28 7 46q0 25 -13 32q-6 4 7.5 48t31 102t17.5 81q0 41 -13 39q-16 -2 -35 -70q-33 -116 -39 -150q-2 -14 -2 -23q0 -14 5 -19q10 -10 -4 -58zM582 280q4 -16 18 -16q25 0 33 56.5t11 132 t15 104.5q17 39 9 51q-8 13 -15 13q-14 0 -26 -52q-10 -46 -9 -81v-17q2 -12 -5 -38.5t-15 -54.5t-14 -54q-4 -16 -4 -29q0 -8 2 -15zM586 647q-4 -23 -4 -34q0 -15 6 -13q16 6 35 80q8 35 0 41q-16 18 -29 -27q-4 -18 -8 -47zM770 758q-1 -4 -1 -8q0 -13 11 -17h1 q10 0 41 87q32 91 32 126q0 25 14.5 39t14.5 49q0 31 -12.5 36t-57.5 -7q-27 -8 -37 -40t10 -44q7 -4 7 -34q0 -53 -23 -187zM817 721q2 -4 6 -4q12 0 90 174t72 186q-8 12 -28.5 10t-24.5 -16q-115 -344 -115 -350zM909 131q0 -7 8.5 -7t24.5 7q36 17 36 44q0 5 -1 11 q-3 10 -9 10q-17 0 -59 -65zM911 662q10 0 39 62t43 71q8 4 11 2l-3 -6q-6 -18 5 -25h2q12 0 58 70q50 76 50 98q0 41 -31 -2q-14 -18 -30 -51q-10 -18 -19.5 -34t-16.5 -23t-9 -5q-6 10 0 37t21.5 66t30.5 73.5t22 47.5l18 38q-2 9 -18 9h-2q-16 0 -34 -8q-20 -8 -24 -19 q-2 -8 -20 -49q-107 -259 -107 -327q0 -25 14 -25zM915 350q0 -4 5 -4q6 0 29.5 46t61.5 126t58 119q47 92 47 128t-10 36q-12 -1 -84 -153q-65 -137 -65 -159q0 -3 1 -4q8 -14 -12 -45q-33 -55 -33 -80q0 -6 2 -10zM924 524q14 0 26 31l35 84q4 14 9 25.5t6 18.5t-1 7 q-14 0 -59 -84q-26 -50 -26 -70q0 -12 10 -12zM997 283q8 -8 21 6q10 12 61 90q64 92 64 118.5t-8 26.5q-16 0 -82 -116q-57 -100 -57 -121q0 -3 1 -4zM1024 446q4 0 8 3q14 8 56 85t42 95q0 20 -7 20q-14 0 -56 -82l-4 -8q-43 -89 -43 -108q0 -5 3 -5h1zM1035 224 q-3 -8 -3 -16q0 -12 8 -22q12 -18 25 -18q7 0 15 6q22 14 30 57t27.5 95.5t19.5 60.5q0 15 -6 15q-16 0 -70 -91q-2 -2 -4 -6q-35 -59 -42 -81zM1140 230q-3 -14 -3 -24q0 -14 6 -18q4 -2 8 -2q7 0 12 8q8 12 8 37q0 33 -12 33t-19 -34zM1350 236.5q0 13.5 20.5 13.5 t20.5 -13.5t-20.5 -13.5t-20.5 13.5z" />
<glyph unicode="N" horiz-adv-x="1193" d="M39 635q14 -1 15 31v15q0 31 -3 85q-4 68 -4 102q1 38 1 72q0 51 -2 95q-3 73 -5 97.5t0 41t8 30.5l17 27l18 -29q14 -23 40 -27t124 -4q100 0 121.5 4.5t21.5 22.5q0 27 10 27t43 -33q30 -27 88 -33q43 -4 184 -4h105q133 2 163 6t36 25q6 24 14 24q11 0 25 -39 q16 -41 39 -41q20 0 21 -12t-19 -20q-16 -4 -18 -256q-1 -140 -2 -270q0 -104 1 -200v-68q0 -159 -8 -202q-10 -16 -41 -4q-19 7 -100 7q-49 0 -121 -3l-190 -6l10 -51q8 -39 0 -37q-6 2 -72 117q-31 49 -51 78q-31 41 -41 71q-10 33 -27 31q-8 0 -8 -18q0 -16 17.5 -68.5 t29.5 -132.5q8 -55 16.5 -73.5t24.5 -20.5q41 -7 41 -22q0 -11 -24 -27q-25 -15 -34 -15h-1q-9 0 -25 17q-20 18 -91 33.5t-129 31t-58 35.5q0 27 -13 27q-12 0 -46 -39t-42 -60q-10 -33 -18 19q-2 16 -17 354q-6 145 -16 160q-12 12 -7 51t-5 43q-14 9 -14 20q0 15 18 15z M129 934q0 -20 63.5 -112.5t96.5 -119.5q16 -12 54 -80.5t60 -89.5q25 -23 47.5 -17.5t22.5 33t-23.5 90t-39.5 83.5q-23 23 -17 39q4 14 29 -27l4 -8q31 -59 57 -61q16 0 17 24q0 29 -13 37q-8 4 -11 12t-1 14.5t10.5 6.5t23.5 -26.5t44 -73t57 -78.5q66 -72 160 -232 q43 -72 83 -119t58 -47q27 0 9 35q-8 14 -23 29q-23 20 -59.5 94t-63.5 78q-23 2 -48.5 39t-78.5 128t-100 160q-96 143 -207 326q-25 41 -41 29q-4 -5 -4 -15q0 -6 54 -93t54 -107q0 -3 -2 -3q-9 0 -55 60q-39 53 -57 90q-35 70 -49 70q-15 0 -15 -16q0 -34 64 -138 q74 -121 73 -135q0 -11 -5 -11q-13 0 -60 72q-25 37 -51 84q-78 137 -99 138q-8 2 -12 -13q-1 -3 -1 -7q0 -36 96 -180q106 -160 106 -177q0 -8 19.5 -28.5t25.5 -43.5q4 -18 -2 -18q-10 -2 -27 26q-2 8 -2 13q0 6 -14 23.5t-48 63.5t-69 103q-63 104 -80 105q-10 0 -10 -29 zM143 547q0 -35 10.5 -49.5t47.5 -47t75 -85.5q51 -74 64 -74q9 0 9 10q0 19 -32 74q-20 35 -47 65q-59 76 -84 115q-20 36 -31 36q-12 0 -12 -44zM150 203q2 -74 17 -74h1q4 0 10 14q4 14 12.5 14.5t32.5 -12.5q53 -27 53 -8q0 6 -4 21q-4 18 0 20l41 -35q32 -30 55 -30h1 q20 0 -9 30q-6 7 -14 15q-45 45 -117 127q-56 64 -68 64q-3 0 -3 -3q0 -23 41 -70q40 -48 40 -59q0 -3 -3 -4q-6 0 -29 20q-35 35 -47 28q-10 -6 -11 -40q0 -8 1 -18zM150 784q-1 -2 -2 -5q0 -16 34 -51q33 -34 49 -34q4 0 7 2q5 3 5 9q0 15 -26 49q-29 37 -42 43t-25 -13z M154 659q16 -29 39 -55q18 -20 33.5 -41.5t23.5 -35t14 -23.5t10.5 -15.5t8.5 -5.5q13 0 13 13q0 34 -89 155q-47 66 -53 66h-2q-12 1 -12 -13t14 -45zM158 449q0 -16 96 -141.5t108 -125.5q18 0 7 19q-11 18 -66 86q-131 162 -145 162zM371 1104q-1 -2 -1 -4q0 -14 29 -62 q35 -49 41.5 -56t14.5 1q2 2 2 6q0 16 -27 74q-25 53 -43 53q-9 0 -16 -12zM401 602q14 -6 33 -49q12 -29 -2 -29q-12 0 -26 43q-8 23 -8 31q0 5 3 4zM432 842q0 14 19 -4q23 -18 14 -23q-14 -4 -29 16q-4 7 -4 11zM440 467q12 -70 89 -184.5t112 -114.5q25 0 25 14 q0 23 -67 128.5t-87 111.5q-27 10 -39 43q-12 31 -27 31q-8 0 -8 -13q0 -6 2 -16zM479 1116q-1 -2 -1 -6q0 -30 58 -168q68 -158 91 -170q33 -18 32 23q1 36 -24 163l-33 164l-57 4q-12 1 -22 1q-35 0 -44 -11zM555 489q0 -14 30.5 -58t39.5 -44q10 0 10 9q0 13 -23 46 q-2 5 -6 11q-32 47 -44 47q-4 0 -5 -4q-2 -2 -2 -7zM625 498q0 -20 43 -70l43 -47l-31 55q-41 72 -51 72q-4 0 -4 -10zM672 1061q-1 -2 -1 -5q0 -20 42 -85q51 -76 51 -94q0 -6 -5 -5h-3q-4 2 -15 11q-29 25 -28 -13q-2 -29 20 -73q41 -88 83 -158t63.5 -103.5t25.5 -52.5 q8 -25 23.5 -49t25.5 -53q12 -31 7 -31q-12 0 -37 45q-4 6 -6 11q-6 20 -33 61t-27 53q0 16 -44 86t-54 70q-13 0 -13 -17q0 -25 27 -86q37 -88 76 -124q20 -16 51 -78t54.5 -112t29.5 -50q14 0 9 30.5t-13 60.5t2 40q16 10 12 44t-24 60q-25 33 -49 88l-52 111 q-25 51 -25 64q0 4 3 4q8 0 31 -23q12 -14 27.5 -40.5t26.5 -54.5t22.5 -53.5t19.5 -41t14 -13.5q10 4 10 73t-8 147q-4 47 -43 129l-71 155q-23 51 -45.5 73.5t-36.5 8.5q-1 -1 -1 -3q0 -13 33 -77q25 -51 9 -49q-6 2 -17 6q-22 15 -51 66q-20 41 -51 55t-45 -8zM700 319 q-2 0 -2 -4q0 -5 6 -21q10 -26 22.5 -54.5t21.5 -36.5q23 -20 20 -2q0 20 -27 61q-35 57 -41 57zM879 1075q-1 -2 -1 -6q0 -21 39 -97q46 -89 60 -89t17 32.5t-11 38.5q-10 4 -18 50q-6 29 -3 36t23 7t21 8q-1 2 -5 4q-14 12 -65 19q-21 3 -34 3q-19 0 -23 -6zM1147 140.5 q0 13.5 13.5 13.5t13.5 -13.5t-13.5 -13.5t-13.5 13.5z" />
<glyph unicode="O" horiz-adv-x="1021" d="M23 838q8 44 22 45q14 0 68.5 76.5t112.5 150.5q54 69 77 69h3q22 -5 59.5 9t50.5 35q8 12 50 8t48 8q7 12 15 12q1 0 3 -1q10 -3 74 -36q45 -23 100.5 -71.5t91.5 -85.5t42 -37q12 0 12 75.5t12 75.5q8 0 16 -38.5t33 -239.5q25 -176 43 -176q16 0 17.5 -10.5 t-15.5 -53.5q-10 -30 -10 -44q0 -13 9 -13h1q10 2 25 20q18 27 18 11q0 -20 -26 -72q-27 -51 -27 -123t-14 -72t-14 35q0 51 -33 13q-20 -25 -64 -97q-69 -116 -84 -116q-12 0 4 55q6 16 5 16q-4 4 -29 -24q-39 -43 -78 -95q-34 -43 -44 -43q-4 0 -5 5q-2 8 10 30 q12 23 -4 23q-10 2 -59 -2q-55 -4 -100.5 -13.5t-61 -12.5t-37 2t-59.5 26q-53 29 -91 63q-12 10 -15 9t-13 -15q-23 -39 -37 14q-2 12 -8 46q-20 92 -39 129q-29 55 -36 208.5t-15 163.5q-7 8 -7 28q0 12 3 30zM121 649q10 -57 16 -90q14 -96 40 -161.5t52 -73.5 q12 -6 38 -30t46.5 -40t28.5 -12q12 10 47 -13q18 -11 30 -11q6 0 11 3q14 8 4 37q-8 18 12 10q6 -2 10.5 -2t5.5 4t0 10.5t-3 18.5q-16 74 -55 192.5t-50 122.5q-25 16 -20 -16q2 -23 24 -88q18 -60 18 -77q0 -4 -1 -5q-8 -8 -21 23q-16 33 -47 141q-25 88 -30 156 q-2 22 -2 41q-1 40 7 65q10 37 25 60.5t24 35t7 15.5q0 2 -13.5 30.5t-25.5 54t-16 25.5q-6 0 -21.5 -18.5t-15.5 -27.5t-10.5 -17t-31 -34t-38.5 -71q-18 -51 -20 -77q0 -3 1 -5q0 -26 11 -80q11 -71 11 -96q0 -13 -3 -14q-10 0 -22.5 48t-22.5 48q-7 0 -7 -20.5t7 -61.5z M164 594q0 14 13 14t13 -14t-13 -14t-13 14zM182 528q-2 8 -2 14q0 11 8 11q6 0 10.5 -5t7.5 -16.5t6 -21.5t7 -27.5t8 -29.5q6 -25 -6 -25q-4 0 -8 5t-8 16.5t-7 21.5t-7.5 27.5t-8.5 29.5zM190 827.5q0 14.5 14.5 14.5t14.5 -14.5t-14.5 -14.5t-14.5 14.5zM318 1098 q0 -12 10 -43q16 -45 36 -55q7 -4 16 -4q18 0 46 12q29 14 37 25t4 34q-2 8 14 -4q61 -45 78 -49q20 -2 37.5 -33t105.5 -213q6 -12 9 -16q94 -193 116 -197q16 -4 16.5 2t-14.5 41q-37 82 -65 164q-47 127 -76 199q-19 48 -19 67q0 13 9 13q3 0 6 -1q8 -2 21 -10 q25 -18 80 -148q49 -116 49 -147v-7q-6 -24 4 -31t24 12q5 6 5 23q0 24 -10 69q-17 78 -48 137q-20 41 -97 116.5t-100 75.5q-12 0 -35.5 20.5t-64.5 20.5q-37 0 -51.5 -16t-3.5 -45q4 -10 1 -13t-13.5 1t-14.5 -3.5t-4 -25.5q0 -20 -5 -27.5t-20 -5.5q-25 4 -27.5 31 t17.5 51q18 18 17.5 21.5t-19.5 3.5q-27 0 -53 -19q-18 -13 -18 -26zM322 723q8 -39 44 -49q11 -3 24 -3q26 0 52 15q66 37 96 127q14 41 14 72q0 38 -20 61q-14 18 -53 18h-10q-47 -2 -78 -28t-55 -100q-17 -51 -18 -85q1 -16 4 -28zM385 369v6q0 11 6 8q2 0 4 -2 q20 -18 29 -70q2 -20 -6 -16l-4 4q-20 18 -29 70zM422 608q-8 0 -7 -18q0 -20 8 -60q17 -78 51 -164.5t58 -107.5q25 -24 35 -24q5 0 6 6q4 16 15.5 38.5t10.5 33t-7 57.5q-18 59 -18 83q0 15 8 15q2 0 6 -2q4 -6 21.5 -48t33.5 -80t25 -38q12 1 14 23v7q0 21 -8 56 q-10 41 -29 90q-29 70 -47 134.5t-25.5 86t-13.5 21.5q-18 0 -20 -32v-7q0 -30 14 -76q13 -59 13 -79q0 -10 -3 -11q-8 0 -22.5 39t-31.5 69.5t-32 16.5q-3 -3 -3 -13q0 -37 48 -165q43 -109 43 -144q0 -15 -8 -16q-6 -2 -16 2q-20 6 -21 29q0 31 -43 154.5t-55 123.5z M580 764q0 -2 -1 -5q0 -11 6 -29q7 -24 13 -38t20.5 -54t28.5 -83q49 -154 105 -154l16 5q-2 2 -16 14q-23 16 -77 190q-45 145 -45 181q0 7 2 11q11 18 -1 42q-13 23 -24 23q-17 0 -25 -60q0 -33 -2 -43zM694 645q4 -10 15 -45q12 -31 18 -51q12 -39 21 -61q10 -24 19 -34 q7 -8 15 -8h4q10 2 19 13q12 12 11 29q0 16 -11 38q-23 42 -57.5 85t-34.5 53q0 12 -15 12q-7 0 -7 -11q0 -8 3 -20zM838 1212.5q0 14.5 13 14.5t13 -14.5t-13 -14.5t-13 14.5z" />
<glyph unicode="P" horiz-adv-x="1099" d="M23 1206q-2 2 -2 5q0 10 30 24q26 11 92 31q98 29 151.5 44t84.5 19q21 3 31 3q5 0 8 -1q8 -2 11 -12t29 -12q18 -1 44 -1h27h46q25 1 51 0q52 -1 117.5 -16.5t122.5 -44.5t72 -29q5 0 6 3q2 2 0 16q-4 39 2 40t35 -18.5t55 -19.5l41 -2l2 -121q0 -59 -2 -84.5t-7 -35 t-11 -14.5t-15.5 -31.5t-19.5 -78.5q-18 -102 -33 -108q-6 -2 -8 4t-1 16.5t1 20.5t-2 17t-8 7q-14 0 -15 -18q0 -20 -15 -29.5t-30 4.5q-8 8 -55 -10t-120.5 -47t-125.5 -37q-80 -14 -131 -33q-37 -12 -44 -22t-5 -53q2 -55 38 -217t47 -174.5t54 2.5q45 16 43 0 q-4 -14 -49 -41q-35 -20 -41 -33t0 -56q6 -55 -6 -59q-6 -2 -12 12q-4 10 -8 27q-10 43 -26 50q-2 1 -6 1q-23 0 -110 -43q-68 -33 -83 -47t-15 -43q0 -41 -14.5 -41t-14.5 21q0 8 -10 18t-24 16q-27 10 -28 16.5t15 37.5q16 28 16 63q0 36 -28 197q-30 180 -30 238 q0 13 1 20q1 6 1 19q0 54 -20 232q-26 220 -44 302q-6 26 -6 45q0 24 10 37q14 16 4 16q-2 0 -8 -2q-41 -8 -55 10zM164 1043q2 -9 16 -9q23 0 23 -28q0 -49 28 -9q18 27 39 76q35 86 72 105q31 16 33 12q0 -2 -8 -19q-12 -27 0 -34q1 -1 2 -1q12 0 51 48q35 43 35 56 q0 3 -2 5q-2 4 -4.5 5t-4.5 1h-7t-11 -1t-21.5 -3t-29.5 -4q-25 -2 -45.5 -10t-31.5 -16.5t-22.5 -16.5t-14.5 -9t-11 7q-9 14 -18 14q-16 0 -35 -38q-18 -35 -29 -89q-4 -25 -4 -36v-6zM227 621q0 -12 17 -13q8 0 11 -20.5t-1 -48t-12 -47.5q-20 -45 -2 -50q8 -2 17 8.5 t20.5 54.5t29.5 111.5t43 118.5q2 4 -2 7t-12 3q-14 0 -21.5 -16t-18.5 -37.5t-34 -29.5q-33 -12 -35 -41zM240 758q8 0 57 111.5t65 166.5q8 25 -12 25q-12 0 -47 -76q-35 -75 -57 -151q-13 -44 -12 -63q0 -13 6 -13zM246 336q-2 -5 -2 -8q0 -8 10 -8q14 0 23.5 40.5 t25.5 40.5q8 1 9 -22q0 -18 -27 -97t-27 -87q0 -23 16 -11q12 8 17 25q10 29 22 29q16 -2 9 -43q-8 -39 5 -39h1q12 0 20 37q4 20 9 41.5t9.5 35t6.5 26.5t3 20.5t0 14.5t-5 11t-11 8q-18 10 -18 38t6 46.5t-8 22.5q-14 0 -14 20q0 43 -23 4q-12 -20 -24 -57zM354 930 q0 -23 15 -12q12 8 12 20t-13.5 12t-13.5 -20zM377 862q-9 -25 -9 -40q0 -17 11 -21q12 0 33.5 39t13.5 47q-9 9 -18 9q-17 0 -31 -34zM381 221q5 -27 25 -37q3 -1 6 -1q10 0 10 14q-4 27 -25 36q-16 4 -16 -12zM414 722q2 -2 6 -2q8 0 22 12q20 16 21 28q0 12 -12 12 q-13 0 -29 -22q-11 -14 -11 -22q0 -4 3 -6zM422 1042q0 -57 26 -65q5 -2 12 -2q28 0 87 24q117 49 135 72q4 6 -14 0q-16 -6 -24.5 1t-32 18.5t-70.5 11.5q-80 -2 -99.5 -12.5t-19.5 -47.5zM457 813q6 0 40.5 52.5t34.5 60.5q0 29 -30 0q-12 -14 -25 -33q-26 -47 -26 -67 q0 -10 6 -13zM467 1145q4 -2 12 -2q25 0 68 40q36 34 36 49q0 3 -1 5q-11 18 -29 18q-29 0 -74 -47q-32 -33 -32 -49q0 -12 20 -14zM508 778q1 -1 2 -1q6 -1 18 13q16 16 38.5 49t45.5 74q20 32 20 47q0 8 -5 11q-12 6 -37 -31q-36 -52 -62 -104q-22 -43 -21 -54q0 -3 1 -4z M608 809q10 2 35 33q29 33 76 118t47 103q0 12 -11.5 12t-27.5 -17.5t-16 -27.5q0 -12 -56 -104q-54 -92 -54 -112q0 -6 4 -5h3zM664 1147q7 -7 34 20q29 29 24 43.5t-36 -20.5q-24 -29 -24 -39q0 -3 2 -4zM700 807q10 -6 21 -6q20 0 12 20q-6 12 15.5 50t58.5 95.5t53 90.5 q20 39 20 55q0 9 -6 10h-2q-14 0 -45 -51l-77 -121q-39 -63 -39 -85.5t-15 -30.5q-7 -5 -7 -12q0 -8 11 -15zM735 1114q4 -4 9 -4q17 0 42 53q3 5 5 11q16 37 0 49q-2 1 -4 1q-7 0 -17 -14q-39 -61 -39 -85q0 -7 4 -11zM822 1152q7 -10 28 -5q27 4 27 16q-1 11 -19 17 q-7 2 -12 2q-10 0 -17 -6q-9 -9 -9 -17q0 -4 2 -7zM893 905q0 -8 6 -8q2 0 6 2q23 7 45 59q20 47 19 88v7q-4 61 -23 61q-8 0 -16 -16q-16 -33 -19 -99z" />
<glyph unicode="Q" horiz-adv-x="1214" d="M20 567q2 18 15 56q14 44 14 90q0 18 -2 37q-3 21 -3 35q0 29 11 30q8 2 17 -29q6 -23 15 -23q12 0 28 38q12 27 26 76q31 94 102.5 211.5t100.5 117.5q33 2 63.5 23.5t24.5 38.5q-6 23 29 28q35 8 254 11q37 1 65 1q80 0 102 -4q31 -6 58 -30q37 -35 51 -35q16 0 56 -91 t53 -155q45 -242 78 -274q14 -14 14 -33q0 -5 -1 -11q-5 -26 -44 -110q-57 -115 -82 -156.5t-53 -72.5q-37 -35 -37 -51q0 -18 -26.5 -41t-39.5 -17q-2 2 -8 2q-18 0 -71 -21q-70 -26 -89 -26q-27 0 -16 -26q14 -37 78.5 -110t93.5 -85q27 -12 45.5 -6t73.5 45q82 57 88 57 q8 0 8 -4q0 -15 -88 -76q-90 -66 -90 -73q0 -10 -23 -10q-16 0 -155.5 -96.5t-182.5 -96.5q-14 0 9 23q14 18 2.5 50.5t-78.5 162.5q-55 113 -81 151.5t-42 38.5q-20 0 -42 9t-34 17.5t-23.5 8.5t-17.5 -17q-6 -14 -12 -12t-23 23q-25 33 -24 55q0 10 -4 16t-10.5 13.5 t-23.5 37t-40 74.5q-47 100 -47 170q0 68 -10 70q-8 0 -25 -23q-29 -39 -27 -2zM168 637q2 -2 6 -2q12 0 104.5 113.5t153.5 205.5q32 49 32 61q0 5 -4 5h-1q-14 -2 -66 -59q-63 -76 -63 -84.5t-82 -114.5q-82 -104 -82 -122q0 -2 2 -3zM172 539q1 -1 2 -1q10 0 55 50 q31 35 83 107.5t77 113.5q14 25 -6 25q-16 -2 -31 -19q-22 -24 -22 -33t-86 -120q-73 -97 -73 -119q0 -2 1 -4zM219 346q0 -14 14.5 -14t14.5 14t-14.5 14t-14.5 -14zM227 483q10 2 39 35q41 48 53 48q5 0 5 -7q-2 -18 -48 -76q-54 -68 -54 -88q0 -8 9 -8q10 0 54.5 48 t76.5 100q31 46 31 67q0 8 -4 12q-6 8 -27 -8q-29 -23 -28 -4q2 14 22 41q29 37 29 55q0 17 -8 17q-19 0 -84 -99q-72 -111 -72 -130q0 -4 3 -4q1 0 3 1zM240 838q1 -1 2 -1q12 0 61 60l121 139q50 55 50 75q0 4 -3 7q-6 4 -17.5 -2t-32 -26.5t-49 -55.5t-69.5 -88 q-64 -84 -64 -103q0 -3 1 -5zM283 328q8 -2 26 24q10 14 41 52t53.5 67t22.5 37q0 23 -12 23t-39 -27q-43 -43 -82 -121q-18 -32 -18 -45q0 -9 8 -10zM307 258q-2 -3 -2 -5q0 -3 6 -3q12 2 91 102.5t79 116.5q0 23 -37 6q-20 -8 -67 -78t-47 -90q0 -16 -23 -49zM336 1257 q-2 4 -2 9q0 11 8 28q16 29 23 29q6 0 7 -9t-3 -22.5t-11 -23.5q-16 -25 -22 -11zM380 213q17 0 25.5 25.5t83 112.5t74.5 95q0 10 -20 11q-20 0 -103 -99q-80 -95 -80 -118q0 -27 20 -27zM440 203q12 -12 39 14.5t121 136.5q48 57 65 57q1 0 3 -1q3 -1 3 -5q0 -13 -36 -57 q-30 -50 -30 -64q0 -4 3 -5q18 0 101 81q81 81 91 81q2 0 1 -3q-2 -12 -58 -71q-70 -78 -69 -88q0 -16 33.5 -19.5t60.5 8.5q39 18 31 37q-4 8 -17 8q-12 2 -22 4q-6 2 21.5 33t61.5 61.5t40 30.5q10 0 -27 -47q-18 -25 -14 -28h1q12 0 89 65q84 70 84 82q0 16 -39 -10 q-16 -10 -23 -21q-8 -12 -22 -12q-10 0 18.5 32t61 67.5t32.5 41.5q0 8 -7 8q-17 0 -81 -55q-58 -52 -68 -52q-2 0 -2 2q0 1 1 3q6 18 82 92q92 89 92 112q0 9 -12 9h-2q-6 0 -72 -55t-129 -108q-56 -45 -63 -45q-1 0 -1 1q0 16 240 226q27 23 35 36t8 21t-7 32.5t-9 55.5 q-6 61 -12.5 67.5t-41.5 -26.5t-32 -12q2 16 32 53q35 43 35 60q0 9 -10 10q-12 0 -62 -50q-44 -43 -56 -43q-2 0 -3 2q-1 1 -1 3q0 17 54 71q58 58 58 75q0 3 -2 5q-8 6 -42 -21.5t-40 -20.5t20 42q23 28 23 43q0 10 -8 14q-7 4 -17 0q-16 -6 -31 15q-10 12 -48 -12.5 t-67.5 -61.5t-23.5 -55q8 -20 25 -9q8 8 32 35q47 49 55 49v0q5 -4 -42 -61q-39 -46 -39 -67q0 -7 4 -10q5 -5 11 -5q17 0 46 29q39 39 39 21.5t-41 -64.5q-29 -31 -29 -43q0 -6 9 -6h12q10 2 10 -11q0 -20 -24 -45q-25 -20 -5.5 -43.5t3.5 -56.5q-20 -47 2 -37q25 12 88 80 q78 83 93 83q2 0 3 -1t1 -2q0 -10 -53 -65q-59 -60 -117 -124.5t-54 -78.5q1 -2 1 -4q0 -23 -73 -95q-80 -80 -106 -80q-27 0 -113 -112q-74 -97 -74 -121q0 -4 2 -6zM442 729q2 -51 8.5 -62.5t30.5 -11.5q68 0 68 -51q0 -8 -1 -12t-4 -6t-6 -2t-10.5 2t-13.5 5t-17.5 6 t-23.5 5q-12 4 -14 4t8 -6q41 -20 41 -37q0 -18 43 -37q29 -12 43 -9t51 28q49 33 87 106.5t46 151.5q1 13 1 27q0 47 -16 98q-21 65 -58 108q-22 24 -57 24h-3q-37 -1 -78 -26q-73 -44 -73 -110q0 -27 -14.5 -50.5t-27.5 -57.5q-11 -26 -11 -64q0 -11 1 -23zM532 57 q8 0 40 46.5t32 58.5q0 6 -13 6t-13 -18q0 -10 -41 -60q-15 -18 -15 -26q0 -7 10 -7zM537 222.5q0 -13.5 13 -13.5t13 13.5t-13 13.5t-13 -13.5zM559 1112q10 -6 38 22.5t50.5 60.5t18.5 32q-8 0 -37 -28t-53 -55q-18 -22 -18 -29q0 -2 1 -3zM563 1198q0 -20 23 0q4 4 4 8 q0 6 -13.5 6t-13.5 -14zM582 -34q8 -7 22 2t14 21.5t-12 12.5t-22 -14q-5 -9 -5 -14t3 -8zM618 -113q8 -8 31 31q49 84 53 127q0 4 -2 6q-10 6 -34.5 -30.5t-41.5 -80.5q-10 -27 -10 -41q0 -8 4 -12zM637 -158q2 -2 5 -2q9 0 30 12q28 15 28 27t-12 21q-10 6 -36 -20 q-18 -20 -18 -31q0 -4 3 -7zM645 1143q0 -8 13.5 -11.5t28.5 1t20 10.5q8 14 22 14q8 0 8 -6t-4 -15.5t2 -19.5q4 -8 38 13.5t60.5 50t18.5 39.5q-14 12 -39 -11q-35 -31 -39 -20q-2 4 8 16q12 16 5 25.5t-23 9.5q-14 0 -66.5 -43t-52.5 -53zM717 -14q-17 -17 -17 -33 q0 -19 21 -37q19 -17 34 -17q11 0 19 9q8 8 8 24q0 29 -24.5 49.5t-40.5 4.5zM866 821v4q0 6 4 15q10 14 24.5 14t-1.5 -20q-18 -23 -27 -13zM874 332q27 0 60 53q18 25 9 25t-44 -35q-29 -32 -29 -40q0 -3 4 -3zM971 758q-4 0 -4 3q0 9 28 40q27 27 33 20q6 -8 -18.5 -35.5 t-38.5 -27.5zM989 1270q0 12 27 12q25 0 28 -12.5t-18 -20.5q-16 -6 -26.5 0.5t-10.5 20.5zM1106 629q-3 -15 -3 -24q0 -11 5 -11q16 0 30.5 30.5t14.5 61.5v10q0 33 -12 33h-2q-12 -2 -19 -33z" />
<glyph unicode="R" horiz-adv-x="1120" d="M29 1163q-9 11 -9 24q0 15 13 31q24 30 65 31q43 2 203 26t166 30q4 4 21 4q24 -1 75 -9q86 -14 96 -30q4 -8 32 -21.5t53.5 -21.5t25.5 -4q0 8 8 -0.5t18.5 -18.5t19.5 -2t9 45q0 49 17 47q8 0 16 -24q8 -29 13.5 -101.5t16.5 -102.5t40 -7q23 20 25.5 4t-17.5 -37 q-29 -25 -29 -56.5t-20.5 -31.5t-20.5 -14.5t-22.5 -14.5t-124.5 -88q-68 -59 -89.5 -71.5t-39.5 -1.5q-27 16 -43 0q-4 -8 -5 -12.5t7 -15.5t18.5 -21.5t29.5 -30t40.5 -40t50.5 -54t58.5 -71.5t67.5 -90.5t75 -109.5q43 -66 58.5 -80t37.5 -8q37 8 58.5 13t35 5t17.5 -3 t4 -9q0 -12 -92.5 -41.5t-364.5 -105.5q-42 -10 -66 -10q-19 0 -27 5q-20 13 -56 103q-30 76 -44 76h-1q-10 -2 -3 -53q10 -55 11 -116q0 -8 1 -15q0 -48 -9 -60q-8 -14 -101 -14q-26 0 -59 1q-150 5 -158 23q-6 16 -33 17q-20 0 -29.5 7t-4 16t25.5 18q27 8 29 26q1 3 1 11 q0 48 -20 286q-16 180 -30 381q-25 367 -41 387zM164 1024q2 -31 14 -31q16 2 25 41q8 41 33 41q14 0 21 10.5t15.5 39t10.5 38.5q8 23 -4 23q-31 0 -31 -45q0 -25 -12 -25q-12 2 -21 31q-4 20 -9 22t-18 -12q-25 -25 -25 -98q0 -16 1 -35zM174 834q4 -8 11.5 -9.5 t12.5 -17.5t1 -47q-4 -55 6 -55t33.5 58t23.5 83q0 14 48 140t48 157q0 35 13.5 49t13.5 20q0 23 -29 11q-16 -6 -22 -21q-8 -16 -27.5 -79.5t-39 -114t-34.5 -54.5q-29 -8 -59 -100q-2 -6 -2 -11t2 -9zM184 504q4 -12 13.5 -17.5t16.5 0t7 17.5q0 6 2 15t4 17.5t3 15.5 t-1 11t-6 4q-17 1 -31 -23q-10 -17 -10 -30q0 -5 2 -10zM199 262v-25q0 -96 14 -100h1q12 0 38 64q16 49 17 61t-15 25q-17 13 -17 31q0 17 9 63q10 45 19 60.5t28 17.5q27 4 37 41q6 25 -13 24q-14 0 -14 -20.5t-14 -20.5q-10 0 -6 28t-4 28t-18.5 -27t-23 -62.5 t-22.5 -48.5q-14 -18 -16 -139zM248 719q0 -20 12 -8q18 16 12 34t-18 0q-6 -10 -6 -26zM274 133q6 -2 10.5 -3t9.5 10.5t10 28.5t11 50q14 54 14 74q0 12 -5 12h-2q-4 -2 -9 -10q-13 -23 -29 -89q-11 -48 -12 -65q0 -6 2 -8zM274 788q0 -20 15 -10q18 16 12 35q-8 20 -18 2 q-9 -13 -9 -27zM322 721q2 0 8 2q12 8 35 80q8 23 15 41t11 26.5t10 20.5q6 14 6.5 16t-12.5 2q-20 0 -49 -84q-27 -79 -27 -98q0 -6 3 -6zM344 588q18 -12 34.5 29.5t18.5 81.5t-6 46q-13 1 -35 -75q-16 -52 -15 -72q0 -8 3 -10zM348 262q-8 -42 -8 -74q0 -51 20 -75 q8 -9 17 -9q5 0 10 2q10 6 11 77v13q0 62 -9 93q-8 31 -16 31q-9 0 -19 -33q-2 -10 -6 -25zM403 762q6 -4 29 16.5t42.5 46t21.5 35.5q0 8 34 58q29 43 30 60q0 3 -1 5q-2 8 -31.5 -22.5t-58.5 -70.5t-29 -52q0 -8 -12 -24t-22 -30q-6 -8 -5 -15q0 -4 2 -7zM413 1030 q3 -37 17 -37q25 0 45.5 22t18.5 40q-4 20 -31 29.5t-40 -4.5q-11 -11 -11 -37q0 -6 1 -13zM414 497.5q0 -14.5 13 -14.5t13 14.5t-13 14.5t-13 -14.5zM414 1183q0 -26 8 -26t26.5 24t18.5 36q0 6 -8 8t-20.5 0t-16.5 -8q-8 -8 -8 -34zM420 596q0 -14 4 -16q8 0 25.5 34 t17.5 50q0 12 -12.5 13t-18.5 -9q-6 -14 -11 -36t-5 -36zM455 414.5q0 -13.5 13 -13.5t13 13.5t-13 13.5t-13 -13.5zM475 532q-1 -10 -1 -17q0 -14 5 -17q4 0 8.5 4t7.5 15t6 21.5t8 31t9 34.5q8 31 -6 31q-8 0 -20.5 -36.5t-16.5 -66.5zM487 1157q9 -14 18 -14q14 0 27 31 q16 37 7 45q-14 6 -37 -21q-17 -20 -17 -33q0 -4 2 -8zM514 817q14 -14 45 9.5t37 52.5q0 10 2 19t2 13v7q-10 0 -51 -48q-36 -41 -36 -51q0 -1 1 -2zM530 301q-7 -14 -7 -24q0 -11 9 -15q7 -2 13 4q8 8 2 35q-4 18 -7 18t-10 -18zM557 195q-2 -4 -2 -8q0 -7 8 -13 q2 -1 5 -1q4 0 6 2q4 3 4 11q0 18 -5.5 21.5t-15.5 -12.5zM562 1118q9 -16 36 -14q14 2 -2 8q-12 8 -10 21.5t10 34t8 24.5q0 20 -20 -2q-12 -12 -19 -29q-7 -15 -7 -27q0 -9 4 -16zM570 440q0 -10 5 -12q10 0 34 41t24 61q0 27 -15.5 29t-23.5 -22q-10 -29 -16 -55 q-8 -30 -8 -42zM608 985q4 -4 34 36t58.5 85t28.5 53q0 29 -35 6q-20 -14 -32 -39q-24 -39 -42 -87q-13 -36 -14 -48q0 -4 2 -6zM618 391q0 -35 33 12q27 44 27 61q0 5 -2 7q-14 0 -36 -31t-22 -49zM633 1169q0 -18 20 0q6 7 6 11q0 6 -13 6t-13 -17zM670 900q4 -1 15.5 6.5 t23.5 19.5q45 41 60 92q12 40 12 68q0 8 -1 14q-4 30 -8 30q-10 0 -33.5 -45t-23.5 -67q0 -27 -29 -68q-12 -14 -17 -26q-4 -10 -4 -15q0 -8 5 -9zM670 305q10 0 44 48q24 33 24 52q0 8 -5 13q-3 3 -6 3q-14 0 -39 -46q-21 -49 -21 -63q0 -6 3 -7zM715 262q0 -31 39 8 q35 41 35 67q0 7 -3 13q-16 14 -43.5 -32t-27.5 -56zM770 1288.5q0 20.5 13.5 20.5t13.5 -20.5t-13.5 -20.5t-13.5 20.5zM797 252q0 -25 14 -35q8 -6 18 -6q8 0 19 4q29 10 1 42t-44 17q-8 -6 -8 -22zM893 888.5q0 20.5 14.5 20.5t14.5 -20.5t-14.5 -20.5t-14.5 20.5z" />
<glyph unicode="S" horiz-adv-x="1136" d="M21 473q-1 2 -1 4q0 11 11 35q10 27 18 33t18.5 2t44 2t83.5 31q37 18 57 27t32.5 11.5t16.5 -3t4 -15.5t2 -13t9.5 -2t15.5 4t22.5 8t28.5 7q23 4 26 -5t-3 -62q-3 -28 -3 -45.5t3 -25.5q6 -16 45 -50q35 -31 55 -37q12 -4 38 -4q18 0 42 2q66 4 127 28.5t78 53.5 q14 25 -5 57q-20 39 -113 101.5t-192 105.5q-127 55 -169 86t-64 84q-16 35 -26.5 45t-26.5 6q-8 -2 -14.5 -3t-9.5 -1t-3 2q0 33 86 199q92 177 132 177q4 0 7 -1q4 -2 8 -8q4 -8 14.5 -9.5t28 4t35 12.5t47 18.5t54.5 19.5q25 9 84 9q20 0 43 -1q94 -4 147 -19 q59 -16 89 -23t48.5 -8t23.5 4t5 19q0 29 14 29q8 0 9 -11.5t2.5 -29.5t11.5 -29q4 -6 4 -22q0 -42 -25 -154q-24 -109 -24 -154q0 -20 4 -28q18 -29 12 -34t-53 -5q-129 0 -160 25q-12 8 12 14q6 2 17 4q31 4 26 31q-8 51 -74 75q-29 11 -56 10q-33 0 -62 -16 q-27 -14 -35 -26.5t-7 -40.5q0 -39 33 -71t124 -79q70 -35 115.5 -87t92.5 -146q51 -109 83 -123t32 -31q0 -39 -151.5 -236.5t-182.5 -197.5q-10 0 23 41q25 31 16 39h-2q-11 0 -81 -70q-76 -76 -105 -118q-18 -27 -28 -27q-3 0 -5 2q-1 1 -1 2q0 13 52 82q36 50 36 66 q0 8 -8 8h-1q-8 0 -19 -4q-33 -10 -149 -17q-37 -2 -63.5 -2t-42.5 2q-32 4 -70 23l-58 28l-10 -28q-12 -33 -35 6q-20 37 -75 188q-72 184 -107 217q-25 23 -28 33zM133 442q-1 -3 -1 -6q0 -8 14 -8q20 0 15 14.5t-13.5 14t-14.5 -14.5zM186 336q14 -14 27 24q10 41 -4 41 q-11 1 -21 -27q-5 -15 -6 -25q0 -8 4 -13zM201 455q-1 -3 -1 -6q0 -6 7 -7q16 0 16 14.5t-8 14.5t-14 -16zM225 294q2 -3 11 -3q10 0 30.5 49t30.5 98q10 47 0 45q-18 -2 -45 -84q-12 -39 -18.5 -58t-8.5 -31q-1 -6 -1 -10t1 -6zM264 198q28 -18 37 -12q8 8 31 133 q15 77 15 106q0 16 -5 17q-6 0 -14.5 -8t-24.5 -110q-12 -66 -19.5 -82.5t-23.5 -12.5q-25 8 -25 -3q0 -10 29 -28zM280 990q1 -44 19 -79q10 -20 22.5 -32.5t18.5 -10.5q8 4 8 9.5t-2 33.5q-6 43 -8 80q-4 46 -4 68v12q2 19 16 19q18 0 27.5 36.5t-2.5 49.5q-16 16 -33 -19 q-10 -18 -10 -37q0 -31 -21 -30q-10 0 -21 -28q-10 -26 -10 -65v-7zM347 184v-8q0 -10 2 -15q3 -7 9 -7q10 0 26.5 66.5t16.5 107.5q0 33 -8 32h-1q-16 0 -30 -77q-8 -37 -11 -60t-4 -39zM373 923.5q0 -26.5 14 -26.5t14 26.5t-14 26.5t-14 -26.5zM416 815q8 -4 24 -8 q20 -6 25.5 -3t1.5 17q-5 30 -25 30q-11 0 -26 -9q-12 -8 -12 -14.5t12 -12.5zM417 144q1 -46 9 -46q27 0 27 121v17q-4 71 -14 71h-1q-10 -13 -16 -65q-5 -45 -5 -85v-13zM471 1193q0 -38 6 -74t12 -34q15 4 19 82q1 20 1 36q0 58 -17 65q-6 2 -13 -13q-2 -2 -2 -4 q-6 -20 -6 -58zM483 875.5q0 -21.5 13.5 -21.5t13.5 21.5t-13.5 21.5t-13.5 -21.5zM486 148q0 -3 -1 -7q0 -69 11 -75q5 -3 9 -3q13 0 19 29q6 23 11 84q8 102 26 103q11 0 11 -34q0 -17 -3 -42q-2 -21 -2 -36q0 -42 16 -42h1q12 2 27.5 43t26.5 39t11 -45q0 -47 -24 -64 q-12 -8 -15 -8l26 2q37 10 46.5 36t24.5 146q4 33 18 31t18 -35q2 -31 15 -32q14 -4 14 38q0 39 8 62t-14 20q-16 0 -43 -12q-53 -23 -101 -30q-34 -5 -55 -5q-9 0 -15 1q-22 3 -36 -5t-20 -37q-10 -46 -10 -122zM503 776q9 -6 23 6q16 16 -2 25q-14 4 -20 -8q-5 -8 -5 -14 t4 -9zM532 882q7 -58 27 -75q18 -14 23 -41q6 -29 24 -31q13 7 15 23q0 16 -12.5 35.5t-16.5 83.5q-9 95 -34 95q-2 0 -5 -1q-6 -2 -14 -13q-9 -12 -9 -42q0 -14 2 -34zM552 1190q1 -86 11 -92q1 -1 2 -1q11 0 19 87q4 35 4 59q0 49 -16 49h-3q-2 -2 -8 -6q-9 -9 -9 -81v-15 zM623 1169q6 -57 15 -53t21 78q11 66 11 91q0 10 -2 13q-7 13 -17 13q-9 0 -20 -11t-10 -65q-1 -28 2 -66zM636 263.5q0 27.5 13 27.5t13 -27.5t-13 -27.5t-13 27.5zM643 750q-2 -5 -2 -11q1 -15 15 -36q20 -29 34 -19q14 8 -6 59q-12 29 -23 29q-10 0 -18 -22zM698 791 q-3 -7 -3 -14q0 -26 32 -62q20 -23 10 -39t14.5 -41t43.5 -19q20 8 35.5 -34.5t27.5 -40.5q8 0 8 27q0 14 -2 34q-8 76 -33 88q-10 2 -14 -10q-14 -39 -29 0q-4 12 -8 27q-7 42 -30 69q-24 26 -38 26q-9 0 -14 -11zM702 1143.5q0 -13.5 14.5 -13.5t14.5 13.5t-14.5 13.5 t-14.5 -13.5zM772 1213q14 0 14 10t6.5 30.5t5.5 30.5t-18 10q-23 0 -23 -39q0 -43 15 -42zM768 135q2 -1 4 -1q13 0 45 34q37 40 37 63q0 18 -10 19q-14 0 -25 -31q-6 -18 -23.5 -37.5t-26.5 -29.5q-5 -6 -5 -10t4 -7zM772 1137.5q0 -19.5 12.5 -27.5t19.5 2.5t1 26.5 q-8 18 -20.5 18t-12.5 -19.5zM799 371q0 -16 26 2q17 10 21 22q8 20 -4 21q-10 0 -26.5 -17.5t-16.5 -27.5zM827 1108q0 -8 4.5 -12t10.5 0q12 8 4 24.5t-15 5.5q-4 -6 -4 -18zM883 1081.5q0 -20.5 13 -20.5t13 20.5t-13 20.5t-13 -20.5zM895 573q0 -35 12.5 -34.5t21.5 23 t1 34.5q-8 10 -16.5 11t-13.5 -8t-5 -26zM938 1196q2 -39 12 -39q15 0 15 49q0 45 -7 47q-4 0 -12 -8t-8 -37v-12zM950 477q0 -23 17 -12q12 6 12 19.5t-14.5 13.5t-14.5 -21zM1018 307q10 0 39 45q22 33 22 47q0 6 -4 9t-7 3q-18 0 -42 -53q-15 -33 -15 -45q0 -7 5 -6h2z " />
<glyph unicode="T" horiz-adv-x="1126" d="M20 1225.5q0 13.5 66 13.5t494 4q397 4 421 14q9 5 9 17q0 49 30 90q10 13 15 13q7 0 6 -21q0 -8 -2 -23q-8 -45 -10 -196q-2 -56 -2 -88.5t2 -42.5q4 -20 26 -25q29 -4 31 -14q0 -16 -39 -17q-37 0 -51 -12q-7 -6 -35 -6q-29 0 -82 7q-102 13 -111 28q-10 18 -20 4 q-6 -10 -25 -49q-22 -47 -22 -106v-5q0 -29 -13.5 -138.5t-24.5 -212t-15 -199.5q-1 -18 -1 -32q0 -66 15 -69q23 -12 -16 -39q-27 -18 -50 -12t-39 -8.5t-49 -14.5q-39 0 -227 -61q-55 -19 -72 -19q-8 0 -8 4q-2 6 21 25q25 20 37 70.5t43 254.5q43 295 51 390l10 94 l-72 -10q-104 -12 -125.5 -24.5t-23.5 -61.5q-6 -59 -21 -56q-10 2 -18 41q-4 20 -9 37.5t-7.5 30t-4.5 56.5t-4 134q-6 193 -15 207t-36 14t-27 13.5zM184 905q2 -18 27 10q16 19 16 31t44 66.5t87 103.5q39 45 39 54q0 15 -21 14q-38 0 -118 -107q-75 -99 -75 -160 q0 -6 1 -12zM217 1081q4 -4 19.5 12.5t31 37t15.5 28.5q0 12 -15 12q-12 0 -36 -42q-18 -31 -17 -43q0 -3 2 -5zM285 965h1q16 0 99 84q102 104 102 118t-9 14q-16 0 -62 -48q-18 -20 -43 -48q-90 -100 -90 -117q0 -2 2 -3zM384 982q1 -1 4 -1q13 0 53 39q48 47 87 99t27 52 q-16 -2 -98 -91q-74 -80 -74 -95q0 -2 1 -3zM420 471q0 -12 2 -12q4 -2 18 14q23 23 19 37q-8 20 -27 -4q-12 -16 -12 -35zM428 150q9 -8 17 -8q5 0 9 3q12 7 13.5 21t-6.5 20q-9 8 -25 -9q-10 -11 -11 -19q0 -5 3 -8zM432 631q0 -23 25 -2q10 8 18 20q18 35 8 35 q-14 0 -41 -35q-10 -12 -10 -18zM454 942q0 -7 19 -24q20 -20 37 -16.5t33 34.5q12 25 -13 47q-16 16 -24 15t-31 -23q-21 -27 -21 -33zM504 412l39 30q69 60 69 93t-12 30q-6 0 -43 -59.5t-53 -93.5zM528 797q0 -8 31 21.5t61.5 65.5t30.5 44q2 29 -30 -4q-14 -16 -29 -39 q-14 -25 -27.5 -41.5t-20.5 -22.5t-11.5 -12t-4.5 -12zM539 1061q14 0 70.5 50t56.5 60q0 12 -16.5 12.5t-33.5 -9.5q-12 -8 -34 -36t-36 -52q-10 -17 -9 -22q0 -3 2 -3zM551 690q8 0 48 58.5t40 68.5q0 14 -6 14q-11 0 -43 -51q-41 -66 -41 -84q0 -4 2 -6zM572 394 q8 -7 25 13.5t3 20.5q-12 0 -24 -14q-7 -8 -6 -13q-1 -4 2 -7zM584 202.5q0 -20.5 14 -20.5t14 20.5t-14 20.5t-14 -20.5zM598 670q0 -16 8 -16q3 0 8 3q11 7 11 20t-13.5 13t-13.5 -20zM659 1094q-1 -3 -1 -6q0 -9 10 -19q16 -13 136 -37q84 -16 114 -17q13 0 16 3 q7 7 7 47v11q-1 50 -9 59q-8 6 -23.5 -8.5t-36 -27t-38.5 -1.5q-25 16 -22 35.5t30 31.5q30 13 30 25q0 9 -7 9q-12 0 -42 -25q-37 -31 -53 -62q-14 -31 -55 -37q-20 -4 -21 8q0 6 18.5 28t33 41t6.5 24q-2 1 -4 1q-14 0 -54 -40q-31 -31 -35 -43z" />
<glyph unicode="U" horiz-adv-x="1175" d="M25 541q-5 13 -5 44q0 37 7 101q12 116 28 127q12 8 54.5 144.5t46.5 175.5q2 45 28 69q21 13 27 13q2 0 2 -2q0 -7 6 -24.5t29 -17.5q14 0 33.5 -14t83.5 -14q109 0 139 -33q12 -14 -8 -27q-16 -9 -22 -161q-2 -53 -3 -100q0 -85 8 -146q16 -117 21 -168q7 -74 27 -74h3 q4 2 9 6q14 12 -4 43q-18 27 -9 34t43 -5q35 -12 27 -37q-4 -12 -2 -13t10 3q6 4 10 6t13.5 4t17.5 2q37 0 63 55q28 54 36 132q6 51 5 101q1 27 -1 54q-4 78 -28 132.5t-61 54.5q-27 0 -26.5 14t261.5 14t261 -13t-53 -17q-37 -4 -43 -11.5t-4 -42.5q2 -45 6 -218t9 -317.5 t9 -152.5q12 -18 -14.5 -37.5t-114.5 -65.5t-155 -89q-33 -23 -115 -52l-162 -57q-44 -16 -66 -19q-8 -1 -14 -1q-10 0 -14 3q-6 5 -21.5 17t-42.5 21q-31 8 -102 63q-61 45 -75.5 50t-22.5 -17q-12 -29 -27 -8q-10 12 -10 34q-1 20 -21 60q-16 31 -15 53q0 7 1 12t1 14 q-1 35 -19 127q-24 116 -45 171zM140 442q0 -34 10 -84q12 -52 26 -86q12 -29 39 -62.5t50.5 -53t29.5 -13.5q1 1 1 3q0 12 -28 70q-32 69 -68 146t-36 95q0 27 -14 26q-10 -4 -10 -41zM153 604q3 -10 11 -10q12 0 18 24q2 16 27 -26q53 -100 55 -103q4 -6 8 -6 q12 0 19.5 28t-4 35t-54.5 83q-42 76 -58 76h-1q-6 -2 0 -27q6 -27 -8 -35q-8 -5 -12 -17q-2 -7 -3 -13q1 -5 2 -9zM178 512q0 -14 13.5 -35.5t30 -35t22.5 -5.5q3 2 3 8q0 17 -30 64q-19 27 -29 27q-9 0 -10 -23zM193 774q0 -6 58 -100t64 -121q4 -25 19.5 -32t36 -13 t35.5 -27q29 -43 28 -10q0 14 -8 41q-14 47 -14 104.5t-19 71.5q-27 23 -26 -8q0 -16 6 -47q7 -32 7 -49q0 -19 -9 -19q-4 0 -9 4q-27 19 -88 121q-58 97 -76 97q-2 0 -3 -1q-2 -2 -2 -12zM248 1077q-4 -3 -4 -9q0 -10 12 -30q37 -37 45 -4q0 20 12.5 25.5t22.5 -12.5 q10 -16 23.5 -12t9.5 22q-4 25 -54 26h-20q-37 0 -47 -6zM264 356q14 -55 90 -149q18 -23 35 -39q40 -37 54 -37q8 0 8 11q0 15 -17 48q-18 41 -14 41t18 -8q27 -14 41 -57t13.5 -55.5t-19.5 -12.5q-20 0 -20 -14q0 -6 6 -8t16 0t20.5 4t21.5 5t20 3q6 2 45 -10q51 -12 49 8 q-2 8 -10 18q-18 20 -13 60l4 39l27 -53q27 -51 49 -52q27 0 33 13.5t-14 27.5q-27 23 -19 47q2 8 10 9q14 0 36 -26t14 -34q6 -6 18 -8q29 0 51 43q18 31 15 50.5t-35 86.5q-36 81 -36 100q0 4 1 5q8 8 22.5 -8.5t30.5 -47t25 -61.5q18 -68 34 -68h3q6 2 10 15q2 4 2 10 q0 23 -27 63q-70 109 -67 156q2 14 16 6q4 -4 8 -1t4 11q0 18 -18 45q-12 18 -17.5 18.5t-15.5 -22.5q-16 -29 -16 -48t-27 -44q-29 -27 -25.5 -52.5t46.5 -102.5q38 -69 38 -93q0 -7 -4 -10q-8 -10 -30 31q-8 12 -15 29q-61 131 -94 131h-2q-6 -2 -10 -7q-10 -16 -41 -10 t-49 -6q-18 -14 -36 13.5t-27 21.5q-1 -1 -1 -4q-1 -19 51 -129q50 -106 50 -132q0 -5 -2 -7q-12 -14 -27 26q-12 33 -76.5 159t-77.5 138q-8 12 -32 2q-16 -6 -18.5 -23.5t1.5 -35t2 -30.5t-16 -13q-23 0 -47 22t-24 9q0 -3 1 -7zM301 958l21 -55q12 -29 29.5 -55.5 t32.5 -38.5t22 -6q8 10 -21 47zM309 57l47 -41q37 -31 75 -37q7 -1 14 -1q33 0 32 21q0 12 -82 34zM344 995q0 -20 22.5 -66t32.5 -46q13 -1 13 24q0 29 -45 78q-23 27 -23 10zM365 113q4 -7 12 -7q3 0 7 1q13 4 13 14q-1 6 -21 6q-14 0 -14 -7q0 -3 3 -7zM397 1020 q0 -14 14.5 -14t14.5 14t-14.5 14t-14.5 -14zM782 930q0 -20 14.5 -20.5t65.5 -80.5q55 -84 62 -86q2 0 6 11q8 18 22 18q8 0 7 -28.5t-4 -65.5q-1 -8 -1 -16q0 -28 9 -54q6 -27 0.5 -42t-15.5 -16t-13 -8t11 -20q10 -11 19 -11q21 0 32 62q6 37 7 89q0 80 -12.5 109.5 t-37.5 19.5h-3q-16 1 -50 63q-26 49 -26 66q0 7 4 10q1 1 3 1q13 0 46 -50q30 -45 46 -45q2 0 4 1q6 3 6 13q0 17 -17 55q-16 35 -29.5 44t-44.5 12h-12q-99 0 -99 -31zM796 638v-17q0 -51 19 -60q20 -8 57 -74q27 -47 58 -76.5t41 -19.5q12 12 9 42t-17 30q-20 0 -79 96 q-54 87 -54 116q0 3 1 5q8 25 -6 25q-25 0 -29 -67zM811 791q0 -14 23.5 -47t49 -57.5t31.5 -18.5q2 2 2 5q0 18 -45 85q-38 56 -52 56q-7 0 -9 -15v-8zM893 346q0 -14 13.5 -14t13.5 14t-13.5 14t-13.5 -14zM963 203q2 -1 4 -1q11 0 35 32q28 40 28 63t-8 23q-9 0 -29 -33 q-32 -55 -32 -76q0 -5 2 -8z" />
<glyph unicode="V" horiz-adv-x="1083" d="M20 1114q0 12 80 39q57 20 67.5 30.5t10.5 47.5q0 57 15 57h2q8 -2 16 -26q8 -20 18.5 -28.5t33 -5.5t47 9t79.5 19.5t111 23.5l63 12l-37 -30q-39 -31 -39 -78q0 -55 9.5 -123t17.5 -68q10 0 33 58l65 161q31 78 33 93.5t-18 27.5q-29 19 -29 33q0 6 11 6q6 0 16 -2 q8 -4 15 -5t19.5 -3t26.5 -4t31 -4q47 -6 59 -12.5t10 -24.5t14.5 -29.5t71.5 -30.5q77 -26 102 -26q7 0 9 2q6 4 16 27q14 33 29 34q12 2 4 -26l-16 -56q-10 -29 18 -36q20 -4 28 -14q3 -4 3 -7q0 -4 -5 -7q-9 -5 -30 -1q-31 6 -46 -13.5t-79 -134.5q-31 -57 -70.5 -125.5 t-56 -99.5t-16.5 -43q0 -27 -32 -90t-62 -96q-27 -29 -136.5 -223.5t-132.5 -215.5q-16 -14 -26.5 -30.5t-12.5 -26.5t-7 -18t-15 -8q-16 0 -20.5 85t-9.5 180t-21 115q-18 20 -32.5 108.5t-37.5 328.5q-20 215 -31 247q-17 46 -56 46q-15 0 -34 -7q-6 0 -10 -4 q-40 -12 -56 -12q-9 0 -10 4zM283 1033.5q0 -13.5 13 -13.5t13 13.5t-13 13.5t-13 -13.5zM328 1122q23 27 36 31t18 -5t14.5 -11t21.5 12q18 21 8 37q-8 12 -18.5 11t-47.5 -17q-65 -29 -65 -77q0 -21 33 19zM350 540q2 -16 12 -16q20 0 37 84q8 45 -2 47q-6 2 -24 -30 q-13 -23 -19 -47q-5 -18 -4 -31v-7zM354 793q6 -6 25 24q59 84 65 141q2 20 -10 21q-6 0 -11 -5t-10 -17.5t-10.5 -25.5t-15.5 -37t-18 -42q-17 -38 -17 -52q0 -5 2 -7zM369 971q2 -2 9 7t16 24.5t18.5 32t14.5 32t5 23.5q0 12 -12 12q-10 0 -35 -62q-18 -46 -18 -62 q0 -5 2 -7zM370 456q-4 -8 -4 -15t5 -13q10 -16 22.5 -11t12.5 25q0 29 -14 29.5t-22 -15.5zM389 690q8 0 32.5 50.5t24.5 66.5q0 18 -20 2q-12 -10 -18 -25q-24 -65 -24 -85q0 -9 5 -9zM391 340q0 -20 14.5 -20t14.5 12q0 16 -17 22q-10 -2 -12 -14zM446 690.5 q0 -14.5 13.5 -14.5t13.5 14.5t-13.5 14.5t-13.5 -14.5zM469 553q6 -4 20 8q14 16 9.5 32.5t-23.5 -5.5q-13 -14 -13 -24q0 -7 7 -11zM508 774q2 -2 8 -2q12 0 48 62q32 56 32 78q0 9 -4 9q-9 0 -39 -49q-4 -4 -6 -10q-41 -68 -41 -84q0 -3 2 -4zM518 528q2 -12 7 -12 q9 0 26 39q18 45 14 57q-6 18 -30 -26q-18 -32 -18 -51q0 -4 1 -7zM595 976q15 -16 23 11q8 29 53.5 115t53.5 92q18 12 18 -6q0 -14 -14 -43q-25 -55 -10 -55q10 0 25.5 27.5t25.5 64.5q0 12 2 17t-6 10l-12 7.5t-17.5 7.5t-23.5 9q-3 2 -7 2q-12 -1 -24 -19 q-16 -24 -55 -118q-36 -80 -36 -109q0 -9 4 -13zM599 658q3 -10 11 -9q13 1 29 21q20 23 4 37q-12 10 -29 -7q-10 -8 -14 -20q-2 -7 -2 -13q0 -5 1 -9zM623 860q-2 -4 -2 -9q0 -12 12 -30q14 -18 19 -19h1q5 0 17 15q43 59 112 223q14 33 31.5 61.5t32 43t20.5 8.5 q8 -8 -6 -28.5t-3 -27.5t27.5 17.5t16.5 48.5q0 21 -12 27q-10 6 -47 14q-30 6 -37 6h-2q-18 -78 -27 -86q-14 -14 -14 -37q0 -14 -46 -122.5t-59 -122.5q-4 -4 -17 11t-17 7z" />
<glyph unicode="W" horiz-adv-x="1116" d="M20 1010q-1 1 -1 4q0 11 24 24q47 30 191 100q137 67 148 66h1q6 -6 -16 -30q-14 -16 -18.5 -56.5t-4.5 -156.5q0 -188 12 -189q25 0 111 192q77 172 77 215q0 5 -1 9q-10 31 2 39t45 -8q39 -20 33 -48q-1 -2 -1 -5q0 -30 52 -150q57 -132 71 -133q5 1 7 61q0 8 1 15 q1 53 -9 113q-10 68 -33 89q-27 25 -22 30t116 34q49 12 92 24.5t69.5 21.5t49 17t34 12.5t20.5 5.5h4q6 0 10 -2q6 -4 10 -10q2 -4 2 -8q0 -12 -16 -30q-22 -24 -21 -148q0 -113 -43 -377t-87 -476t-50 -218q-12 -12 -12.5 -37t-21 -25t-20.5 15q0 6 -22.5 68.5t-59 175 t-63.5 212.5q-53 188 -68 189q-23 0 -74 -126t-100 -261t-63 -150q-16 -14 -27.5 -40.5t-38.5 -47.5q-27 -23 -45 -62.5t-10 -53.5q6 -12 -12 -27q-8 -7 -15 -7q-17 0 -24 44q-4 25 -8 88q-10 115 -23 176q-4 20 -19.5 258t-33.5 276q-20 39 -22.5 117t-6.5 129t-33 51 q-33 -1 -37 11zM176 842q18 0 27 20q6 14 -4 15q-6 0 -19 -15q-10 -11 -11 -16q1 -4 7 -4zM195 682q0 -20 12 -20q10 0 53 84t43 104t-8 20q-11 0 -39 -41q-59 -94 -61 -147zM219 512q14 0 43 63.5t37 112.5q6 45 -6 43q-16 -4 -45 -69q-39 -96 -39 -131q0 -17 10 -19z M238 973q8 0 24 20q27 33 27 45q0 20 -21 2q-10 -8 -18 -20q-18 -28 -18 -40q0 -6 6 -7zM240 436q-3 -8 -3 -13q0 -7 7 -7q8 0 14 12t13.5 39t11.5 37q8 20 -4 20q-8 0 -14.5 -12t-13.5 -37.5t-11 -38.5zM264 90q8 -6 15.5 14.5t3.5 20.5q-6 2 -17 -14q-4 -8 -4 -14 q0 -4 2 -7zM274 -104q0 31 17 32q6 2 10 -8q4 -16 -12 -33q-6 -6 -9 -6q-6 0 -6 15zM289 360q14 0 14 28t13.5 28t13.5 41q0 39 -11 41q-14 0 -28 -62q-7 -40 -7 -59q0 -16 5 -17zM315 311q-8 -10 -8 -19q1 -10 9 -18q16 -16 34 9q25 35 6.5 46t-41.5 -18zM383 375 q10 0 47 75t37 95q0 39 -29 10q-31 -33 -45 -92q-11 -67 -11 -83q0 -5 1 -5zM537 910.5q0 -13.5 13 -13.5t13 13.5t-13 13.5t-13 -13.5zM569 784q-3 -14 -3 -23q0 -15 9 -13q14 0 33 43q36 76 36 126q0 18 -5 33q-9 28 -18 28q-14 0 -27 -69q-2 -4 -2 -8zM653 807v-6 q0 -14 9 -15q12 1 12 7q0 2 2 9t4 13t3 12.5t0 10.5t-7 4q-16 0 -23 -35zM700 688q20 -25 27 -6q2 2 2 6q0 6 3 17.5t5 19.5t1 14t-9 5t-24 -11q-15 -9 -15 -22q0 -10 10 -23zM756 635q0 -14 14 -14t14 14t-14 14t-14 -14zM801 559q-3 -10 -3 -17q0 -10 7 -14q10 -5 20 11 q25 37 6 41q-18 2 -30 -21zM801 1081q8 -51 16 -59q6 -4 35 23.5t53.5 60.5t20.5 41q-5 9 -32 9h-6q-32 -1 -63 -13q-20 -7 -24 -19q-2 -6 -2 -16.5t2 -26.5zM815 916q-1 -5 0 -10q0 -26 19 -34q6 -2 12 6.5t14 26t14.5 33.5t13.5 39t13 33q8 24 -1 24h-1q-16 0 -53 -49 q-27 -35 -31 -69zM822 256q3 -20 18 -20q8 0 12 20t11.5 58t19.5 67q24 62 24 102q0 12 -2 21q-4 27 -26 -27q-12 -27 -29 -76q-16 -51 -24 -88q-5 -26 -5 -44q0 -7 1 -13zM827 795q-1 -8 -1 -14q0 -22 12 -19q16 2 34 49q10 25 13.5 34t1.5 9t-7.5 -4t-15.5 -10t-16 -6 q-16 0 -21 -39zM903 657q4 -5 10 -5q1 0 3 1q8 2 13 12.5t5 24.5q0 27 -12 27q-10 1 -18 -25q-4 -13 -5 -22q0 -9 4 -13z" />
<glyph unicode="X" horiz-adv-x="1406" d="M22 349q5 11 27 11q14 0 23.5 -9t13.5 -19t9 -18.5t16 -6.5q14 4 211.5 184.5t214.5 188.5q23 12 19.5 53t-28.5 72q-29 37 -108 178l-80 139l-78 4q-72 8 -74 21q4 10 27 12t52.5 2t41.5 6t23.5 8.5t25 3.5t57.5 7t107 18q70 12 95.5 12.5t41.5 -10.5q12 -8 26.5 -10 t28 -2t25 1t17.5 -1t6 -8q0 -14 -33 -15q-35 0 -40 -17q-1 -4 -1 -9q0 -20 14 -64q27 -80 43 -86q2 -1 6 -1q31 0 123 73q16 14 64 51q174 141 244 213q70 73 80 73t10 -42q0 -33 26.5 -91.5t65.5 -107.5q23 -33 23 -43.5t-13 -25.5q-16 -25 -13 -43.5t2 -24.5t-20 0 q-16 6 -31.5 -4t-39.5 -41q-34 -45 -34 -55q0 -3 2 -2h1q8 0 31.5 21.5t32.5 6.5q1 -1 1 -2q0 -14 -58 -66q-64 -58 -81 -57q-12 0 -102 -79q-61 -55 -71.5 -72t3.5 -35q47 -66 149.5 -195t110.5 -135q14 -10 12.5 -21t-18.5 -11q-23 0 -22 -13q0 -16 12 -20t31 8 q27 16 41 0q6 -5 6 -11q0 -25 -113 -59q-213 -63 -475 -84q-43 -3 -72 -3q-61 0 -61 14q0 12 51 24q35 10 43 19.5t6 40.5q-2 45 -12 49t-51 -27q-47 -35 -57 -35q-6 0 -44 -42t-53 -42q-18 0 -95 -63.5t-77 -77.5q6 -41 -8 -47t-41 4t-59 -6q-17 -9 -26 -9q-6 0 -9 4 q-6 11 20 31l33 25l-102 113q-70 78 -82 98t4 33q20 16 18 43.5t-11 52.5t-13 27q-12 9 -12 18q0 2 1 5zM182 211q-8 -8 -8 -19q0 -12 8 -29q16 -32 49 -48q25 -14 35 -13.5t29 17.5q28 26 28 43q0 15 -22 24q-20 9 -20 57t-13.5 48t-13.5 -54.5t13.5 -54.5t13.5 -20 q0 -10 -8.5 -16.5t-18.5 -6.5q-27 0 -27 35q0 29 -14.5 41t-30.5 -4zM274 29q2 -4 7 -4q8 0 22 11q23 17 47.5 39.5t32.5 22.5t81 55.5t89 55.5q20 0 52 22.5t26 34.5q-8 12 -35 -11.5t-27 -10.5q2 12 31 43q30 33 20 41q-1 1 -4 1q-13 0 -51 -40q-41 -45 -141 -130 t-129 -102q-23 -11 -23 -22q0 -3 2 -6zM324 291q0 -41 6 -55.5t26 -24.5q17 -7 28 -7q10 0 16 6q10 13 -13 38q-22 26 -22 67q0 55 -23 56q-6 0 -10 -6q-8 -8 -8 -74zM391 372q2 -64 12 -79q10 -16 19 -16q11 0 18 32q6 25 6 66q0 82 -18 82q-18 -1 -28 -11q-9 -9 -9 -55 v-19zM467 1006q7 -12 16 -12q15 0 37 32q16 25 15.5 30t-19.5 5q-23 1 -41 -19q-12 -13 -12 -24q0 -6 4 -12zM473 457q0 -111 29 -111q12 0 13 56v11q0 50 -9 83q-8 31 -17 28q-16 0 -16 -67zM514 1129.5q0 -13.5 14.5 -13.5t14.5 13.5t-14.5 13.5t-14.5 -13.5zM522 967 q-6 -9 -6 -16q0 -8 8 -13q7 -2 13 4q10 10 2 31q-6 10 -17 -6zM539 584q-3 -6 -3 -21q0 -20 5 -57q8 -64 16 -64q12 0 12 68q0 78 -18 82q-6 2 -12 -8zM557 881.5q0 -27.5 13.5 -27.5t13.5 27.5t-13.5 27.5t-13.5 -27.5zM600 528q2 -27 4 -47t6 -31.5t8 -11.5q20 4 20 56 q0 27 -5 67q-10 60 -21 60q-13 0 -13 -60q0 -15 1 -33zM614 868q-1 -8 -1 -12q0 -11 3 -14q6 0 18.5 23.5t22 55t7.5 50.5l-5 28l-16 -28q-8 -14 -17.5 -47.5t-11.5 -55.5zM657 758q8 -10 33 35q27 43 27 63q0 5 -2 8q-7 19 -16 19q-12 -1 -28 -39q-18 -46 -18 -69 q0 -11 4 -17zM659 686q-5 -14 -5 -23q0 -12 8 -16q6 -2 12 4q8 8 2 35q-4 18 -6 18.5t-11 -18.5zM735 730q2 -24 15 -25q12 0 12 16t8 47q8 27 -5 31q-13 3 -23 -21q-8 -20 -7 -40v-8zM791 358q2 -26 12 -26q14 0 14 12t8 35q6 16 -3 21.5t-23 -7.5q-8 -8 -8 -27v-8z M821 872q-2 -9 -1 -15q0 -14 9 -15q9 0 19 10q16 16 0 33q-20 20 -27 -13zM887 497.5q0 -14.5 13 -14.5t13 14.5t-13 14.5t-13 -14.5zM887 910.5q0 -27.5 13 -27.5t13 27.5t-13 27.5t-13 -27.5zM928 281q0 -13 7 -13q12 0 48 45q45 56 45 75q0 5 -4 7q-1 1 -3 1 q-12 0 -50 -45q-43 -50 -43 -70zM955 962q2 -52 14 -53q14 0 14 19.5t8 62.5t-10 43q-8 0 -18 -10q-9 -9 -9 -50q1 -5 1 -12zM986 254q3 0 34 31q45 39 45 51q0 18 -21 8q-10 -4 -16 -14l-31 -51q-12 -21 -12 -24q0 -1 1 -1zM1028 846q3 -3 7 -3q9 0 23 12q22 17 21.5 29.5 t-20.5 12.5q-17 -1 -29 -21q-7 -11 -6 -19q0 -7 4 -11zM1092 1110q0 -20 14 -20t14 20t-14 20t-14 -20zM1190 1184q0 -29 2 -76q4 -94 20 -94q10 0 15 53q2 31 9 51.5t11 26.5q3 5 3 13q0 14 -13 40q-20 39 -31 39q-14 0 -16 -53z" />
<glyph unicode="Y" horiz-adv-x="999" d="M20 1094q0 8 33 61q27 43 43 43q10 0 126 62.5t145 68.5q29 8 35 -1t-15 -30q-4 -4 -4 -17q0 -34 33 -133q45 -134 55 -147q1 -1 4 -1q13 0 59 35q56 42 216 177q68 57 86 81t20 53q0 45 13.5 45t13.5 -31q0 -18 20.5 -104.5t44 -185.5t27.5 -130q4 -20 4 -30q0 -6 -2 -8 q-4 -5 -27 1q-7 2 -14 2q-28 0 -69 -23q-52 -30 -52 -57q0 -41 -151 -141q-69 -46 -88 -46q-5 0 -7 3q-2 4 -2 14q0 20 15 21q10 0 58 32.5t88 66.5t32 36q-2 1 -5 1q-16 0 -55 -28q-143 -106 -165.5 -128.5t-22.5 -59.5q0 -98 42 -283.5t64 -185.5q18 0 19 -12 q0 -8 -176 -25q-157 -14 -226 -14h-16q-59 2 -59 20q0 14 39 19l45 4l12 151q8 109 19.5 216.5t17.5 153.5q5 39 5 74v11q-1 39 -11 61q-14 29 -39 45.5t-25 34.5q0 20 -27.5 50t-27.5 40q0 14 -47 82q-31 39 -46.5 50.5t-31.5 7.5q-23 -8 -23 -2zM195 1065l30 -51 q24 -42 41 -42q18 0 27 50q6 37 30.5 80t24.5 57q0 26 -11 26q-7 0 -18 -11q-12 -14 -26 -44q-32 -63 -44 -63h-1q-6 2 -2 25l6 30zM293 896q0 -13 13 -13t13 13t-13 13t-13 -13zM328 229q0 -27 28 -30q18 -4 30.5 11t35.5 62q32 70 32 87q0 6 -3 6h-2q-12 -4 -46 -50 q-20 -33 -37.5 -48t-24.5 -15t-10 -4t-3 -19zM351 832q7 -7 22.5 2.5t15.5 21.5t-12 12t-23 -14q-6 -8 -6 -14q0 -4 3 -8zM360 571.5q0 -16.5 9 -18.5q5 0 34 55q25 50 25 66q0 8 -6 8q-10 0 -31 -27q-12 -16 -21.5 -41.5t-9.5 -42zM369 926q10 -10 26 22q18 45 -4 45 q-12 0 -20 -29q-5 -17 -5 -27q0 -8 3 -11zM442 203q20 -12 39 3t19 46q0 39 -13 39q-12 0 -33 -41q-15 -28 -15 -40q0 -5 3 -7zM449 420q6 -8 24 22q14 29 -2 29q-12 0 -21 -21q-5 -12 -5 -19t4 -11zM457 126q0 -13 27.5 -13t27.5 13t-27.5 13t-27.5 -13zM457 850 q0 -18 4 -19t18 13q23 23 19 45q-6 27 -25 4q-16 -16 -16 -43zM518 750q8 -8 21.5 4t13.5 26q0 20 -12 21q-10 0 -21 -23q-5 -12 -5 -20q0 -5 3 -8zM549 868q12 1 35 62q15 40 15 57q0 10 -5 12q-12 8 -27 -32q-10 -23 -18 -62q-4 -17 -4 -26.5t4 -10.5zM610 823 q23 2 66 135q27 76 27 103q0 5 -1 8q-3 15 -9 15q-11 0 -31 -42q-18 -41 -37 -104q-21 -76 -21 -102q0 -13 5 -13h1zM705 112.5q0 14.5 34.5 14.5t34.5 -14.5t-34.5 -14.5t-34.5 14.5zM717 877h2q12 0 81 41q75 45 81 59q2 10 -15 35q-12 16 -20 14t-31 -27q-33 -35 -49 -34 q-16 0 -38 -40q-15 -26 -15 -39q0 -6 4 -9zM733 1110q6 -4 27 6q18 10 22 5t4 -38q0 -45 12 -48h2q12 0 27 36q9 21 9 41q0 18 -7 35q-12 36 -19 36q-8 0 -42 -28q-37 -29 -37 -41q0 -2 2 -4z" />
<glyph unicode="Z" horiz-adv-x="1320" d="M25 -145h-1q-3 0 -3 4q0 13 30 67q35 62 35 73q0 3 -2 3q-6 0 16.5 28.5t48 61.5t25.5 43q0 12 76 154.5t82 159.5q4 16 10 17t10 -7t9.5 -14.5t9.5 -0.5q23 23 61.5 103t68 145.5t34.5 65.5q12 0 1 -27q-8 -29 5 -26q16 0 45 51q27 51 45 73q18 27 1.5 43.5t-40.5 -4.5 q-12 -10 -33.5 -14t-79 -10t-106.5 -15q-62 -9 -98 -9q-20 0 -31 3q-23 6 -25 16.5t4 55.5q8 76 15 143q4 55 4 83q0 15 -1 23q-3 24 -18 36q-18 12 -15 20t30 33q37 31 54 33h2q15 0 21 -27q6 -25 42 -27t44 21t41 22t33 -24q1 -15 55 -17q18 -1 54 0q73 0 219 3 q326 8 377 18l51 8v-76q0 -84 18 -84q10 0 29.5 16.5t17.5 10.5q0 -4 -16 -31q-42 -66 -42 -86q0 -3 1 -4q2 -5 2 -11q0 -44 -106 -151q-66 -68 -146 -173t-104 -160q-25 -51 -49 -52q-16 0 -35 -13t-25 -26.5t2 -21.5q4 -3 17 -3q28 0 98 15l194 39q96 20 121 31 q18 8 21 -10q0 -14 -6 -70q-4 -41 -4 -61q0 -10 1 -16q3 -16 17 -15q14 0 17 -10.5t-3 -40.5q-10 -61 -31.5 -136t-29.5 -81q-4 -2 -13.5 7t-17.5 25q-17 37 -79 42q-15 1 -38 1q-77 0 -249 -12q-307 -23 -564 -78q-72 -16 -93 -28.5t-54 -61.5q-45 -59 -57 -63zM311 1120 q2 -18 13 -18q12 0 20 20q6 16 -4 26.5t-21 -1.5q-8 -7 -8 -21v-6zM332 1008q6 -4 30.5 20.5t48 56t23.5 41.5q0 16 -18 17q-16 -1 -55 -63q-31 -50 -31 -66q0 -4 2 -6zM358 872q27 4 52 48q12 20 12 38q0 25 29.5 67t54 76t14.5 44q-6 8 -28.5 -10.5t-48 -54.5t-44.5 -72 l-41 -88q-12 -24 -12 -36t12 -12zM420 123q1 -1 4 -1q18 0 104 66q98 75 99 91q0 12 -29 12q-18 0 -66 -38t-84 -80q-30 -34 -29 -46q0 -3 1 -4zM461 903q10 -14 37 8q23 16 40 53q11 23 11 55q-1 15 29 61q34 52 34 61q0 16 -12 16q-16 0 -56 -65.5t-40 -92.5 q0 -31 -29 -55q-18 -17 -18 -30q0 -6 4 -11zM467 379q2 -2 6 -2q15 0 49 39q27 27 14.5 26.5t-32 -13.5t-31.5 -29q-8 -10 -8 -16q0 -3 2 -5zM494 261q20 13 110 81q59 47 178 197.5t119 181.5q0 25 -2 24q-4 0 -56 -48t-98.5 -95t-42.5 -47q8 0 39 17.5t39 13.5v-1 q0 -9 -74 -84q-80 -81 -160 -163q-77 -78 -77 -85.5t25 8.5zM524 143l41 -16q17 -6 29 -6q8 0 14 3q14 7 60 54q35 37 70.5 67.5t51 43t15.5 18.5q0 14 -16 14q-14 0 -39 -10q-63 -25 -150 -102zM567 512q10 0 158.5 124t173.5 155q18 23 45 22q16 0 103.5 93.5t87.5 113.5 q0 11 -9 11q-26 0 -131 -101q-8 -8 -18 -17l-275 -262q-137 -125 -137 -138q0 -1 2 -1zM588 989q4 -10 44 27t76.5 81t32.5 50q-6 10 -21 10q-4 0 -12 -1q-26 -5 -42 -23q-30 -35 -56 -83q-23 -42 -22 -57q-1 -2 0 -4zM592 608q23 0 156 119q141 129 137 139q-2 2 -13 2 q-14 0 -6 9q10 12 40 12q28 0 28 30q0 18 49 63q51 46 102.5 88t47.5 56q-4 20 -19 27h-1q-15 0 -139 -128q-128 -132 -140 -159q-10 -29 -79 -82q-64 -49 -86 -49h-3q-3 1 -5 1q-23 0 -49 -48q-27 -53 -27 -71q0 -9 7 -9zM662 982q13 0 61 44q56 51 72 80q18 37 2 29 q-37 -18 -111 -111q-27 -33 -27 -40q-1 -2 3 -2zM668 774q0 -12 4 -14q2 0 18 16q23 20 17 37q-6 18 -27 -6q-12 -16 -12 -33zM705 157q22 0 123 74q116 85 116 103q0 12 -12 12t-72 -45t-112 -92q-49 -44 -48 -50q0 -2 5 -2zM733 961q4 -8 51 33.5t89 91.5q37 43 37 54 q0 2 -1 3q-8 14 -20 14q-16 0 -90 -93q-67 -84 -67 -100q0 -2 1 -3zM797 915h1q8 0 122 110q120 116 120 126q0 11 -12 11q-13 0 -41 -13q-29 -12 -45 -29q-47 -50 -99 -124q-47 -66 -47 -79q0 -1 1 -2zM916 250q2 0 20 14l33 23q-6 4 -8 4q-14 0 -33 -23q-14 -18 -12 -18z M930 154q0 -20 20 0q6 4 6 8q0 6 -13 6t-13 -14zM971 225h4q18 0 65 31q50 32 62 33q4 0 4 -4t-2 -15q-8 -18 6 -26q6 -6 16.5 8t16.5 39.5t6 48.5t-7 29t-34 6q-31 0 -45 -12.5t-4 -28.5q1 -1 1 -3q0 -14 -50 -55q-43 -35 -43 -46q0 -4 4 -5zM1053 143q12 -3 23 -3 q25 0 46 16q11 6 11 16q1 4 1 7q0 13 -14 14q-16 0 -49 -17q-31 -15 -31 -24q0 -6 13 -9zM1245 347q0 28 14.5 28t14.5 -28t-14.5 -28t-14.5 28zM1260 436.5q0 20.5 13 20.5t13 -20.5t-13 -20.5t-13 20.5zM1274 518.5q0 20.5 13 20.5t13 -20.5t-13 -20.5t-13 20.5z" />
<glyph unicode="[" />
<glyph unicode="\" horiz-adv-x="796" d="M20 1110q-2 16 54 25q43 8 68.5 28.5t47.5 14.5q31 -8 113 12q80 18 98.5 19t32.5 -17q16 -20 55 -21q37 0 41 -14q2 -10 -30 -16q-8 0 -13.5 -2t-8.5 -6.5t-4 -9.5t0 -14t2 -18.5t3 -25.5t2 -31q4 -43 27.5 -117.5t78 -245.5t107.5 -372q45 -166 68 -182q18 -16 10 -23 q-6 -4 -53 -26q-53 -25 -103.5 -25t-166.5 -20q-133 -14 -138 -7q0 14 35 29q27 10 31 22.5t-2 67.5q-6 39 -11.5 60.5t-10.5 35t-18 63.5t-30 132q-29 137 -76 327.5t-55 252.5l-8 75l-72 4q-72 4 -74 25zM219 1083q-4 -14 23.5 -104t77 -281.5t79.5 -398.5 q25 -152 37 -168t121 -18t119 14q12 18 -106.5 425.5t-163.5 518.5q-8 20 -24.5 25.5t-72.5 5.5q-82 0 -90 -19zM563 862q2 6 6 6q10 0 28.5 -55t10.5 -63q-6 -6 -16 16q-33 63 -29 96zM651 608q10 0 20.5 -29.5t2.5 -37.5q-10 -10 -21 18q-16 45 -2 49zM680 512 q10 0 19.5 -27.5t9.5 -54.5q0 -33 -19 8q-27 63 -10 74z" />
<glyph unicode="]" />
<glyph unicode="a" horiz-adv-x="968" d="M25 549q10 10 16 -8q5 -14 12 -14q15 0 37 63q6 18 21 61q49 150 71 150q20 0 44 31.5t24 56.5q0 18 131 84.5t131 73t-19.5 28t-13.5 31.5q1 3 5 3q6 1 18 -9q20 -14 42.5 -33.5t35.5 -19.5q16 0 10 -19q-4 -8 -1 -15t13 -18.5t22.5 -22.5t34 -32.5t39.5 -44.5 q48 -57 67 -57q12 0 12 22q0 5 -1 12q-6 37 4 37q14 0 31 -59q27 -86 72 -323.5t47 -303.5q4 -90 14 -114q4 -9 4 -18q0 -13 -9 -25q-15 -20 -36 -13q-3 1 -7 1q-28 0 -134 -31q-90 -27 -131 -27q-33 0 -33 18q0 6 2 13q6 25 11 84t5 102t-4 51q-8 0 -93 -83t-93 -83 q-10 0 -72 -43q-44 -31 -78 -38q-18 -4 -49 -4q-26 0 -61 3q-23 2 -57.5 61.5t-49.5 119.5q-17 80 -31 212q-8 75 -8 110q0 27 5 30zM108 292q6 -159 93 -214q23 -14 39 -12t71 28q78 37 207 174q121 129 150 129h2q17 -3 17 -65q0 -27 -3 -66q-9 -112 -9 -156q0 -25 3 -28 q4 -2 18 0q156 14 166 33q2 3 2 13q0 21 -8 73q-12 78 -29.5 194.5t-19.5 192.5q0 20 -1 44.5t-1 36t-1 27t-2 21.5t-3 14t-4 12.5t-6.5 10.5t-8.5 12q-16 20 -18 12q0 -8 6 -41q2 -18 3 -32q0 -37 -17 -37q-8 0 -19 12q-4 6 -25.5 62.5t-55 111.5t-74.5 78q-33 17 -68 17 q-24 1 -48 -7q-61 -20 -153 -94q-89 -74 -149 -236q-55 -146 -54 -289q-1 -16 0 -31zM113 -83q0 9 24 26q12 8 24.5 8t16.5 -8.5t-2 -20.5q-6 -8 -22 -12q-12 -3 -23 -3h-5q-13 1 -13 10zM223 446q0 66 6.5 100t26.5 72q32 66 63 82q35 14 77 16h7q37 0 52 -16 q16 -16 16 -92q0 -102 -61.5 -202.5t-122.5 -100.5q-39 0 -51.5 27.5t-12.5 113.5zM272 498q-10 -49 -11 -80q0 -41 18 -51q4 -3 9 -3q22 0 58 49q44 60 62 128q18 63 18 89q0 10 -2 14q-8 18 -33.5 18t-52.5 -21q-42 -29 -66 -143z" />
<glyph unicode="b" horiz-adv-x="960" d="M20 106v48q0 157 10 544q12 455 17 463q12 14 156.5 20.5t152.5 12.5q11 6 11 53t20.5 47t20.5 -47q0 -29 10 -46t19 -19t11.5 -9.5t-14.5 -17.5q-18 -13 -28 -109q-9 -86 -8 -157v-15q1 -76 3 -90q4 -6 37 4.5t76 24.5t66 14q35 0 32 19q-4 39 15.5 50t38.5 -22 q12 -18 63 -59t95 -82t44 -67q0 -41 23 -41q14 -2 20 22q8 29 21 29q8 0 8 -34t-7 -73t-15 -49t-30 -95t-59 -146q-47 -76 -57 -109q-8 -31 -24 -31q-10 0 -11 19q0 10 -15 10t-46 -6t-66 -14.5t-82 -14.5t-86 -6q-76 0 -154.5 23.5t-78.5 44.5q0 10 8 14t27.5 4t50.5 -5 t78 -13q40 -8 86 -8q43 0 91 7q99 15 148 48q45 29 90.5 112.5t45.5 137.5q0 33 -15.5 79.5t-50.5 96.5q-35 48 -83 78q-35 21 -85 22q-19 0 -40 -3q-77 -11 -163 -79q-57 -43 -77 -43q-6 0 -9 4q-8 10 -8 61.5t8 145.5q12 129 12 181q0 25 -3 33q-7 17 -55 18q-11 0 -25 -1 l-72 -4l-10 -336q-8 -338 -17 -493l-8 -158l-41 -20q-24 -11 -39 -11q-32 0 -33 43zM88 1135q-4 -7 -4 -52q0 -51 5 -150q9 -188 17 -188q8 -1 14 139q3 73 4 126q0 49 -3 80q-4 47 -23 51q-6 2 -10 -6zM188 1143.5q0 -13.5 34 -13.5t34 13.5t-34 13.5t-34 -13.5zM367 502 q0 20 56 34.5t124 14.5h11q69 0 91 -25q17 -22 17 -35q0 -12 -11 -34q-14 -37 -48 -66t-99 -59q-40 -20 -54 -22q-2 0 -4 -1q-12 0 -22 10q-11 16 -11 38q0 14 4 30q10 39 10 73v6q-1 36 -38 26q-26 -8 -26 10zM479 432q6 -37 21 -41q2 -1 4 -1q19 0 64 44q42 40 42 56 q0 3 -2 6q-9 15 -58 15h-6q-54 -1 -63 -19q-5 -13 -5 -31q0 -13 3 -29z" />
<glyph unicode="c" horiz-adv-x="821" d="M20 309l17 105q8 51 19.5 103t20.5 81t16 60.5t7 44t-6 30.5q-10 14 -4 25.5t35 34.5q44 34 64 34h1q10 0 29 11.5t79 47.5t140 77q92 47 124 57t50 0q31 -14 44.5 -4t13.5 51q0 33 7 48q4 9 12 9q5 0 11 -4q11 -5 11 -181v-46q-2 -221 -15 -377q-10 -110 -10 -189 q0 -141 31 -184q12 -16 19 -16t28 18q29 27 37 20q1 -1 1 -3q0 -9 -38 -37q-29 -20 -34 -32.5t1 -45.5q6 -39 -2 -43t-39 27l-31 28l-104 -61q-89 -53 -103 -53q-3 0 -3 2q-2 8 55 43q53 33 55 41q0 4 -61.5 5t-139 4t-104.5 9q-35 8 -43 5t-10 -19q0 -12 -6 -12 q-12 0 -52 57q-41 55 -73 127zM116 311q26 -133 103 -188q31 -19 65 -25q25 -4 97 -5q26 0 59 1q176 0 188 12q7 8 7 44q0 22 -3 55q-7 86 -19.5 86t-75.5 -47q-41 -33 -64.5 -41t-73.5 -8q-53 0 -72.5 8t-52.5 41l-49 49l6 106q8 117 58.5 207t134.5 133q33 17 89 17 q19 0 42 -2l86 -9v103q0 74 -4 88t-25 14q-74 -4 -235 -86l-15 -7q-16 -7 -24 -12t-25.5 -15.5t-30 -21.5t-31 -27.5t-32.5 -37t-29.5 -46t-30 -57.5t-26.5 -69q-27 -79 -27 -159q0 -50 10 -101zM285 375q0 -43 6 -60.5t31 -35.5q35 -29 90 -29q33 0 55 12t68 57 q47 49 56 68t5 53q-4 24 -4 49q0 21 3 43q7 48 21 48q12 0 13 -33q0 -31 8 -53.5t20.5 -22.5t12.5 74q0 49 -8 68.5t-41 48.5q-48 43 -102 43q-13 -1 -26 -3q-69 -12 -126 -86q-35 -43 -58.5 -113.5t-23.5 -127.5z" />
<glyph unicode="d" horiz-adv-x="1148" d="M22 154q-1 6 -1 14q-1 12 1 30q2 28 5.5 58.5t7.5 73.5t4 78q2 74 18.5 140t36.5 81q25 20 31 67q2 16 -4 17h-4q-16 -10 -16.5 -30.5t-14.5 -20.5q-6 0 -10 22.5t4 46t31 25.5q23 4 58.5 37.5t45.5 33.5t81 61q70 62 140 118q57 46 76 45q4 0 6 -2q16 -16 -8 -29 q-27 -16 -27 -29q0 -10 17 -18q18 -8 51 -8q41 0 87 -8.5t62.5 -12.5t32.5 2q10 8 28.5 134t18.5 188q0 35 -6 41t-45 2q-49 -2 -47 12q6 25 130 44t243 22h18q55 0 55 -11q0 -4 -2 -6q-82 -217 -110 -420q-10 -80 -16 -178q-5 -75 -6 -133q0 -17 1 -33q2 -68 13 -69 q10 0 20 120q6 84 32.5 238t37.5 162q14 14 12 -15q0 -33 -18 -122q-51 -248 -60 -652q-2 -27 4 -35t29 -10l39 -4l-47 -45q-35 -37 -72 -48t-113.5 -23.5t-156.5 -41.5q-45 -16 -93 -25q-40 -7 -67 -7h-11q-30 2 -30 12q0 14 25 23q45 12 61 53q12 27 -8 24q-12 0 -35 -14 q-82 -57 -203 -57q-72 0 -78 -17q-6 -8 -27.5 -5t-48 17.5t-34.5 26.5q-12 18 -37 19q-25 0 -40 18.5t-1 32.5t6 29.5t-28 15.5t-20 -35t-15 -35q-7 -1 -9 15zM121 315q12 -74 91 -138t153 -64q45 0 102 27.5t104 72.5q31 29 41.5 48.5t10.5 49.5q0 47 16 49q8 2 16 -16 t35 16q18 23 26.5 25t20.5 -10q12 -14 12 -57q0 -26 -4 -61q-7 -52 -7 -78q0 -22 5 -27q2 -2 9 -2q22 0 94 20q94 26 110 39q7 12 7 39q0 12 -2 30q-5 52 -9 160q-4 106 -8 216q-1 25 -1 52q1 89 11 196q14 138 41 249q29 108 37 141q1 6 1 11q0 11 -6 15q-7 4 -34 4 q-10 0 -22 -1q-35 0 -55.5 -2t-40 -14.5t-28.5 -27.5t-19.5 -51t-15.5 -77t-13 -113q-8 -101 -8 -148q0 -14 1 -23q3 -40 13 -70.5t10 -57.5q0 -20 -12 -18q-14 0 -23 26q-8 29 -61 79t-92 67q-43 18 -117 18q-47 0 -71.5 -8t-59.5 -33q-57 -41 -70 -41q-14 0 -65 -71.5 t-74 -124.5q-27 -59 -43 -163q-10 -64 -10 -107q0 -27 4 -46zM349 574q26 70 89 128q40 34 62 40q6 1 11 2q19 0 44 -13q26 -14 26 -54q1 -19 -5 -45q-18 -79 -76 -136q-52 -52 -93 -52q-28 0 -51 25q-18 20 -18 50q0 24 11 55zM401 504q3 -3 8 -3q16 0 50 31q41 39 41 60 q0 12 -3 13t-14 -9q-20 -20 -27 -15t9 29q20 31 20 41q0 12 -7 12q-6 0 -17 -10q-10 -8 -19 -22q-48 -75 -47 -108q-1 -13 6 -19zM639 104q1 -1 3 -1q4 -1 12 11q10 14 17 36t7 38q0 18 -14 20q-2 0 -3 1q-11 0 -16 -16q-13 -45 -13 -68q0 -16 7 -21z" />
<glyph unicode="e" horiz-adv-x="909" d="M20 203l11 172q12 170 26 219q12 42 12 56q0 7 -3 7q-4 0 -15 -8q-29 -25 -28 -8q0 16 32 59q45 55 133 141.5t119 102.5q30 16 50 16q16 0 26 -10q12 -12 111 -16l98 -6l104 -127q78 -96 116 -148.5t45 -68t13.5 -44t16.5 -57.5q2 -2 2 -4q0 -3 -4 -6q-6 -4 -34 -7 t-71 -4t-127 -1q-367 -4 -383 -33q-2 -4 0 -8q8 -23 23 -127q14 -90 27.5 -114.5t52.5 -24.5q45 0 92 66.5t47 131.5q0 39 17 39q10 0 26 -14q16 -16 41 -45l117 -135q41 -45 52 -51.5t32 12.5q29 25 52 25q5 0 11 -1q8 -2 8 -9t-33.5 -55t-33.5 -52q0 -8 -187 -209 q-67 -74 -82 -74h-2q-6 4 35 49q41 47 41 64q0 9 -12 9q-3 0 -8 -1q-4 -2 -11 -2q-69 -19 -122 -19q-27 1 -49 5q-66 14 -113 30t-60 4q-23 -25 -43 4q-8 12 -30 51q-41 78 -78 134zM88 412v-25q0 -128 39 -219q41 -94 142.5 -164t195.5 -70q59 0 142 60.5t83 103.5 q0 20 -54 93t-71 73q-12 0 -35 -49q-40 -85 -114 -109q-24 -8 -46 -7q-47 0 -89 34q-37 31 -54.5 77t-29.5 150q-5 45 -5 73.5t5 39.5q10 23 57 16q15 -2 49 -2q73 1 231 9q234 12 250 22q5 2 5 10q1 19 -27 69q-38 71 -101 147.5t-106 103.5q-51 33 -94 39q-9 2 -19 2 q-61 1 -148 -63q-101 -74 -153 -173q-49 -97 -53 -241zM324 616q-1 2 -1 4q0 19 46 70q41 44 71 52q7 2 15 3q25 0 53 -20q32 -23 54 -65q14 -25 13 -40q0 -10 -6 -14q-10 -10 -75 -10q-22 0 -52 1q-114 5 -118 19zM414 643q2 0 6 -2q5 -2 12 -2q10 0 20 3q20 6 31 16 q8 7 8 12q0 3 -2 6q-10 16 -27 16q-15 0 -34 -12q-23 -14 -23 -25q0 -7 9 -12z" />
<glyph unicode="f" horiz-adv-x="1294" d="M22 584q-2 68 -2 135t2 133q3 133 9 133q12 0 16 -52t37 -65q25 -11 99 -11q22 0 48 1l127 4l9 139q4 100 25.5 167t44 89.5t35.5 44t7 46.5q-6 29 -2 30q29 4 89.5 14.5t95 15.5t90.5 8q16 1 31 1q35 0 62 -5q38 -7 82 -26.5t81 -52.5q31 -29 51 -11.5t47 -21.5 q29 -37 29 -51q0 -12 55 -93t55 -87t-31 -10q-25 -4 -35 -28.5t9 -41.5q12 -12 49 2l37 15l-27 -39q-51 -70 -98 -74q-10 -2 -16.5 -5t-4.5 -7q8 -12 -16 -21q-23 -8 -33 8q-10 18 -38.5 8t-28.5 -32q0 -23 -31 -37q-23 -10 -27 -34.5t-4 -137.5v-158h-262l-4 -39v-8 q0 -43 32 -169q36 -140 58 -175q20 -31 17 -35q-25 -16 -213 -53q-147 -29 -188 -29q-12 0 -15 2q-16 8 -8 25.5t34 28.5l39 14l-8 123q-6 70 -8 174t-6 155.5t-15 55.5q-5 1 -14 1q-40 0 -167 -30q-154 -37 -169 -55q-18 -27 -23 -20.5t-8 141.5zM92 690q-1 -29 -1 -51 q0 -67 9 -74q2 -2 9 -2q32 0 171 27q113 22 159 22q24 0 30 -6q20 -14 20 -262q0 -209 13 -236q11 -22 48 -22q10 0 23 2q4 0 37 6l78 12l-4 56q-2 35 -23.5 149.5t-23.5 165.5l-4 68l233 14l-4 103q-4 104 -17.5 117.5t-90.5 21.5q-57 4 -69.5 11t-20.5 42q-7 29 -7 58 q0 43 16 86q27 71 83 107q36 23 73 23q21 0 43 -8q25 -8 71 -65.5t56 -91.5q4 -9 25 -9q14 0 37 4q37 8 46 18.5t11 45.5q1 7 1 14q0 44 -23 92q-25 54 -64 94t-70 65.5t-49 35.5q-53 27 -133 33q-19 2 -38 2q-120 0 -208 -79q-100 -91 -110 -245q-2 -33 -2 -59 q0 -107 39 -107q25 0 41 -18q8 -9 8 -16q0 -18 -47 -27q-42 -6 -135 -6h-49l-183 4zM702 868q12 -10 93 -20q41 -8 61.5 -3t21.5 9t10 22.5t30 34.5q20 16 20 25.5t-16 48.5q-25 50 -54 70q-25 19 -44 19q-4 0 -8 -2q-21 -5 -58 -42q-37 -35 -54 -89q-10 -28 -10 -47 q0 -17 8 -26zM831 71.5q0 14.5 14.5 14.5t14.5 -14.5t-14.5 -14.5t-14.5 14.5zM901 85q0 13 13.5 13t13.5 -13t-13.5 -13t-13.5 13z" />
<glyph unicode="g" horiz-adv-x="1060" d="M22 -54q-2 3 -2 5q0 15 31 37q27 18 33 30.5t0 36.5q-6 27 -4 29t24 -16q25 -16 27 -15.5t16.5 10t34.5 9.5q25 0 81 42t81 48q23 4 29 -1t6 -34q0 -18 6 -34.5t12 -27t12.5 -18.5t6.5 -12t-8 -8q-10 -6 -2 -29t29.5 -47.5t37.5 -28.5q27 -4 57 -18q18 -9 46 -9 q16 0 34 3q52 8 78 32q6 4 9 8.5t6.5 9.5t4.5 11t2 13.5t0 20.5t-2 25.5t-4.5 35t-5.5 45t-6 58.5t-8 70q-12 121 -20.5 135.5t-36.5 -12.5q-55 -51 -136 -72q-47 -13 -89 -13q-29 0 -56 7q-65 15 -82 62q-8 29 -35 53q-33 29 -39 174q-2 80 -18 82q-8 2 -20 -10 q-18 -18 -25 6q-2 7 -2 14q0 58 96 174q51 61 51 74q0 23 62 96q31 37 42 37q5 0 5 -9t-2 -19q-8 -25 2 -27q6 -2 33 12q76 40 134 40q8 0 15 -1q33 -4 51.5 1t25.5 15.5t15.5 20.5t29 15t54.5 1q27 -6 48 -6q13 0 23 2q28 6 43 9.5t23.5 15.5t9.5 18t3 17v4q4 37 18 37h2 q16 -2 25 -45q4 -25 10 -30t21.5 -9t29.5 -23q25 -27 8.5 -43t-16.5 -147q0 -70 -4 -104t-8 -40t-8 -19t-3 -60.5t9 -143.5q6 -98 11 -149.5t11 -83t12.5 -38.5t14.5 -3q18 7 18 -9q0 -24 -59 -157l-102 -232q-27 -61 -40.5 -78.5t-33.5 -17.5q-33 0 -53 -16 q-86 -70 -213 -70q-73 0 -160 23q-74 20 -106.5 52t-90.5 144q-29 57 -51 71.5t-61 -3.5q-41 -18 -48 -3zM205 -27l41 -84q39 -84 67.5 -108.5t108.5 -42.5q86 -20 112 -20q1 -1 2 -1q27 0 99 21q172 51 231 239q23 74 27 153t4 415v469l-37 4q-33 4 -42 -13.5t-19 -101.5 q-10 -78 -29 -78q-11 0 -25 27q-35 68 -105 100q-44 21 -88 21q-24 0 -48 -6q-53 -16 -108.5 -67.5t-88.5 -117.5q-23 -47 -29 -83.5t-6 -137.5v-149l47 -45q47 -47 89 -48q78 0 153.5 55.5t116.5 143.5q33 72 54 72q7 0 13 -10q18 -35 37 -226q11 -118 11 -219 q0 -28 -1 -55q-4 -123 -26 -158q-39 -61 -150 -80q-33 -5 -62 -5q-70 0 -118 32q-45 31 -80 96q-27 53 -48 61q-4 1 -9 1q-20 0 -55 -25zM392 708q24 105 69 132q26 14 62 14h9q43 -2 60 -23q19 -23 19 -67q0 -36 -12 -86q-28 -111 -79 -139q-27 -13 -59 -13h-13 q-40 4 -53 27q-14 27 -14 69q0 37 11 86zM442 696q-5 -27 -5 -49q0 -24 7 -41q8 -23 23 -23q6 0 13 3q24 12 50 63q31 63 31 103q0 29 -16 45t-27 16q-14 0 -41.5 -42t-34.5 -75zM646 1023q0 -12 38 -34q20 -12 30.5 -17t17.5 -5t7 8t-2 20q-2 18 -12 25.5t-37 11.5 q-10 1 -18 1q-24 0 -24 -10z" />
<glyph unicode="h" horiz-adv-x="911" d="M20 -113q0 8 27 19q39 14 39 39q0 29 14.5 152.5t20.5 148.5q8 33 -15 33q-14 0 -17 36.5t-3 182.5q0 219 13.5 219t13.5 -199t11 -199q12 0 30 117q12 76 12 229q0 83 -4 187q-10 334 -31 375q-10 23 -37 24q-35 4 -35 16.5t35 16.5q27 2 36 18.5t11 32t13 15.5 q12 0 16 -31q4 -20 17.5 -26.5t68.5 -8.5q96 -2 187.5 -19.5t111.5 -33.5q18 -16 17 -23.5t-19 -27.5q-49 -53 -89 -180.5t-42 -231.5v-94l106 -4q94 -4 133 -29t93 -113q52 -86 66 -86h1q8 2 -2 33q-9 30 -9 48q0 22 13 26q6 2 10.5 -7.5t8.5 -29.5t8 -41.5t9 -53.5t9 -57 q21 -98 21 -132q0 -14 -4 -17q-4 -2 -13 -2q-19 0 -19 -71v-7q1 -77 6 -151q1 -14 1 -26q0 -53 -18 -79q-16 -16 -166 -44t-162 -38q-10 -9 -18 -9q-4 0 -7 3q-4 2 -9 78t-11 181.5t-12 152.5q-6 50 -6 85q0 41 8 60q8 25 8 43q0 15 -5 25q-11 22 -41 12t-54 -49 q-16 -33 -21.5 -71t-5.5 -142q0 -166 6 -236l6 -67l-157 4q-172 6 -175 24zM146 2q-2 -19 -2 -33q0 -37 12 -41q18 -6 75 -14l56 -8v211q-1 42 -1 75q0 83 4 113q5 41 29 90q25 51 38.5 60.5t66.5 11.5q20 2 34 2q20 0 30 -4q16 -6 34 -33q35 -47 46.5 -118.5t11.5 -231.5 v-201l71 8q74 8 107 17l35 10l-2 158q-4 172 -28 266t-81 164q-72 90 -128 110q-19 6 -38 6q-39 0 -82 -26q-37 -23 -53 -23q-5 0 -8 2q-12 7 -12 55q0 62 20 192q35 231 76 310q23 45 14.5 54.5t-84.5 19.5q-20 2 -48 6l-45.5 6.5t-34.5 4.5q-11 1 -20 1h-7q-10 -1 -15 -8 q-4 -29 0 -37t11.5 -108t7.5 -238.5t-7.5 -232.5t-31.5 -250q-45 -278 -51 -346zM498 222q0 -83 13 -83t13 83t-13 83t-13 -83z" />
<glyph unicode="i" horiz-adv-x="583" d="M20 263v6q0 90 15 173q12 72 46 195t52 162q12 23 9 31t-23 22q-31 20 -31 33q0 16 33 2q14 -8 49 -25q55 -31 152.5 -74t107.5 -43q4 0 25.5 -27.5t36.5 -27.5q20 0 36 -20q10 -12 7 -15q-4 -2 -25 7q-30 9 -47 9q-13 1 -19 -5q-14 -12 -51 -142q-23 -80 -30 -136 t-7 -161q0 -166 19 -188q14 -16 9 -32.5t-26 -16.5q-16 0 -57 -23q-123 -66 -233 -73h-9q-38 0 -34 16t34 22q27 2 29 22.5t-20 43.5q-20 20 -20.5 87t-14.5 77q-13 8 -13 101zM117 236q0 -22 -1 -41q0 -158 15 -172q5 -4 26 -4t58 4l76 10l6 200q6 203 39 318l31 117 l-33 24q-33 26 -74 53q-33 23 -50 27t-31.5 -17.5t-21.5 -62.5t-20 -131q-18 -127 -20 -325zM216 1071q0 3 4 6q5 4 12.5 16.5t7.5 30.5q0 33 18 33q14 0 62 37q46 37 84 77q20 21 34 21q11 0 17 -16q6 -20 57 -55q23 -16 33 -26.5t17 -34.5q2 -8 2 -17q0 -19 -10 -45 q-15 -37 -52 -92q-55 -84 -55.5 -105.5t-18.5 -13.5q-16 6 -16 24t-56 21q-39 0 -50 8t-27 53q-20 59 -48 68q-15 6 -15 10zM285 895q-2 4 -2 6q0 3 3 5q5 3 15 1q23 -4 23 -18q-2 -11 -10 -13q-3 -1 -6 0q-6 0 -12 4q-9 6 -11 15zM362 993q15 -8 29 -8q29 1 57 35 q36 45 36 103q0 9 -1 18q-2 35 -9 44t-36 11h-8q-37 0 -70 -35q-46 -50 -46 -95q0 -47 48 -73z" />
<glyph unicode="j" horiz-adv-x="1019" d="M20 152q1 4 7 14q8 16 32 14q14 0 14.5 -3t-18.5 -17q-35 -25 -35 -8zM68 91v5q0 6 4 14q6 9 12 14t26.5 19.5t36.5 28.5q25 18 21 21q-4 2 -37 -5q-39 -6 -39 2q12 12 146 75q127 59 138 59h1q2 -2 -3 -8.5t-15.5 -16.5t-22.5 -20q-43 -37 -33 -41h16q27 -2 38.5 -22.5 t-6 -38t-12.5 -41t40 -79.5q34 -57 34 -76q0 -4 -1 -6q-10 -16 8 -42.5t39 -26.5q63 0 94 132q21 89 21 212q0 60 -5 127q-2 39 -6 74.5t-6 52t-4 37.5q-6 29 -4 34t14 5t16.5 18t4.5 70q0 49 -2 82.5t-7.5 54t-13.5 28t-20 5.5q-18 -6 -23.5 1t6.5 21q8 4 21.5 2t81.5 -22 q63 -20 112 -35q147 -43 158 -53q4 -4 -4 -14.5t-23.5 -21.5t-29.5 -18q-8 -2 -8.5 -23.5t6 -60.5t11.5 -95t8 -125q1 -30 1 -63q0 -43 -2 -91q-12 -205 -65.5 -324t-157.5 -178q-47 -25 -78 -31q-23 -5 -75 -5q-18 0 -38 1h-40q-81 0 -89 -7q-2 -1 -4 -1q-14 0 -59 41 q-53 49 -111 121q-37 47 -50 75.5t-8 41t5 34t-10 58.5q-6 16 -8 25zM150 57q8 -53 38.5 -121.5t59.5 -99.5q49 -49 92 -64.5t133 -15.5q82 0 104.5 6.5t63.5 44.5q53 47 88 116t49.5 134.5t16.5 154.5q1 27 1 52q0 56 -4 100q-4 62 -11 154t-9 135q-2 49 -10 60.5t-47 25.5 q-55 18 -58 21q-4 0 -8 -13.5t-6 -47t-3 -86t-1 -136.5q0 -336 -30.5 -469t-114.5 -155q-19 -5 -38 -5q-58 0 -112 46q-72 61 -84 157q-8 59 -21.5 68.5t-58.5 -10.5q-23 -10 -29 -21q-3 -5 -3 -14q0 -7 2 -17zM219 207q2 -10 14 -12q21 0 21 14t-12 14q-16 0 -23 -16z M638 1172q5 26 44 26q20 0 67.5 28.5t67.5 30.5q12 0 16.5 2.5t6.5 6.5t10 17t22 28q35 39 78 39q19 -1 19 -15q0 -8 -45 -49q-31 -31 2 -33q10 0 17 -5t12.5 -20.5t9.5 -30.5t12 -48t18 -62q4 -20 7 -27v-4q0 -6 -6 -14q-7 -12 -14 -19t-22.5 -26.5t-27.5 -46.5 q-20 -35 -34 -40q-11 -4 -44 -4q-14 0 -31 1q-78 4 -108.5 34t-59.5 126q-19 63 -19 92q0 7 2 13zM736 1089q-6 -25 -6 -45q0 -40 26 -59q25 -19 50 -19q19 0 39 12q44 28 68 105q9 26 9 42q0 18 -15 40q-16 27 -39 31q-4 1 -9 1q-21 0 -52 -13q-51 -20 -71 -95zM858 628.5 q0 20.5 14.5 20.5t14.5 -20.5t-14.5 -20.5t-14.5 20.5zM872 532.5q0 34.5 13.5 34.5t13.5 -34.5t-13.5 -34.5t-13.5 34.5z" />
<glyph unicode="k" horiz-adv-x="878" d="M20 1171.5q0 14.5 27 14.5q14 0 28.5 13t21.5 25.5t19 16.5q2 1 5 1q10 0 16 -15q8 -14 144 -15h135l-4 -65q-2 -16 -13.5 -152.5t-16.5 -229.5q-2 -42 -2 -67q0 -29 3 -32t7 -3q16 0 46 54q23 45 43 112q34 107 34 156q0 46 -30 66q-45 31 -16 28q27 -2 84 -30 q171 -86 225 -86q11 0 17 4q23 14 30.5 9t7.5 -32q0 -33 15 -41q13 -8 13 -21q0 -4 -1 -8q-4 -18 -24 -22q-18 -4 -71.5 -104.5t-53.5 -129.5q0 -14 -69 -74.5t-85 -60.5q-12 0 -12 -13t18 -13q14 0 33.5 -22.5t44.5 -54.5t39 -44q25 -18 40 -83t23.5 -126t12.5 -66 q16 -25 -31 -32q-15 -2 -36 -2q-48 0 -126 10q-90 13 -115 13h-4q-22 -1 -39 -19q-14 -18 -79.5 -31.5t-142.5 -25t-101 -19.5q-15 -5 -23 -5q-9 0 -8 7q2 16 49 45l49 29l-8 86q-16 170 -24.5 216t-20.5 50q-20 8 -18 26.5t22 18.5q14 0 16 58q1 17 1 49q0 78 -4 247 q-10 354 -16.5 364.5t-40.5 10.5t-34 14.5zM47 765q0 89 14.5 89t14.5 -89t-14.5 -89t-14.5 89zM61 539.5q0 68.5 14.5 68.5t14.5 -68.5t-14.5 -68.5t-14.5 68.5zM150 1151q-2 -6 -2 -29q0 -42 7 -142q11 -155 27.5 -378t16.5 -356q0 -166 20 -183q5 -3 12 -3q16 0 48 14 q27 14 32.5 34.5t12.5 116.5q6 150 34 156q14 4 39 -12q45 -29 70 -86.5t36 -109.5t23 -62q10 -12 66 -15q39 -4 47 2t12 41q1 9 1 18q0 77 -47 157q-52 89 -130 120q-53 20 -61 35q-4 4 22.5 27.5t67.5 50.5q168 113 213 262q13 51 13 68q0 15 -9 24q-15 13 -77 31 q-46 13 -65 14q-6 0 -10 -2q-8 -6 -16 -55q-18 -104 -86 -224t-111 -120q-18 0 -22 24q-3 17 -3 86q0 104 7 324l6 184l-94 4q-15 1 -28 1q-65 0 -72 -17zM377 256q-2 -24 -2 -44q0 -31 4 -56q5 -40 21 -58q10 -11 23 -12q7 0 15 4q14 6 14 32q0 37 -26 114q-17 53 -36 53 h-1q-12 -2 -12 -33z" />
<glyph unicode="l" horiz-adv-x="624" d="M22 522q5 140 21 140q12 0 12 48t11 48q6 0 6 37q0 15 -1 33q-1 16 -1 28q0 41 8 41t15 40t14.5 98.5t11.5 78.5q6 29 2 38t-23 13q-30 9 -30 21t32 14h18q27 0 62 -4q47 -6 98.5 -16.5t95.5 -24.5t60 -27q16 -14 53 -10q39 4 45 -14q2 -10 -16 -17q-2 -2 -4 -2 q-20 -4 -121.5 -157.5t-122.5 -163.5q-47 -20 -71 -275q-3 -38 -3 -70q0 -115 39 -155q26 -26 52 -26q12 0 24 6q19 9 19 24q0 13 -13 31l-4 4q-33 37 -22 41q4 4 16 -8q16 -16 33 -18q20 0 93 -75t99 -124q31 -59 31 -69t-37 28l-43 39l-55 -56q-52 -53 -104 -71 q-34 -12 -77 -11q-22 0 -46 3q-27 3 -44 3q-32 1 -32 -9q0 -14 -13.5 -14.5t-13.5 19t-16 25.5q-10 2 -17.5 75t-14.5 158t-19 111q-8 23 -8 100q0 31 1 72zM101 398q-3 -58 -2 -104q1 -76 7 -121q12 -71 48 -105q42 -39 91 -39q52 0 111 43q53 39 62.5 62.5t-17.5 51.5 q-20 18 -30.5 20.5t-26.5 -7.5q-26 -16 -53 -16q-29 0 -61 18q-60 35 -80 106q-12 45 -12 111q0 70 14 164q26 184 79 307q18 41 46 81t44.5 59.5t23.5 37.5t-8 29.5t-56 19.5q-44 11 -70 11q-20 0 -29 -7q-25 -20 -37 -174q-2 -16 -6 -49q-31 -345 -38 -499zM578 1088.5 q0 13.5 13 13.5t13 -13.5t-13 -13.5t-13 13.5z" />
<glyph unicode="m" horiz-adv-x="1361" d="M47 84q14 6 23.5 50t23.5 173q14 117 23.5 217.5t14.5 163t7 112.5t2 75.5t1 44t2 26.5t4.5 13.5t11.5 11.5q29 27 28.5 15.5t18.5 6.5q22 18 22 49q0 33 13.5 33t13.5 -33q0 -35 16 -42q6 -2 16 -2q18 0 48 8q61 16 57 0q-2 -6 -16 -17q-12 -10 -22.5 -51t-11.5 -72.5 t9 -38.5q16 0 72 27q51 27 78 27q6 1 11 -1q26 -8 62 -67q35 -55 47.5 -62.5t32.5 15.5q45 53 124 58h15q71 0 134 -42q45 -29 63 -29q10 0 10 11v2v10q-4 23 5 21q18 -2 51 -78q41 -94 75.5 -217t47.5 -209q18 -139 30 -148q6 -4 27 2q62 17 87 17q15 0 17 -6q0 -4 -2 -13 q-2 -18 -24.5 -28.5t-46 -15.5t-44 -20t-20.5 -44q0 -35 -13 -35t-13 29q0 23 -9.5 30t-33 1.5t-49 -14.5t-71.5 -24.5t-89 -25.5l-37 -8l8 162q3 54 3 99q0 73 -8 121q-13 77 -58 128l-41 45l-43 -45q0 -2 -7.5 -8.5t-10.5 -10.5t-9 -14t-7 -20.5t-2 -28t2 -37t10 -47 t19 -60.5q20 -55 20.5 -78.5t27.5 -58.5l26 -35l-45 -28q-123 -78 -233 -111q-22 -6 -34 -6q-17 0 -11 14q4 4 10 13q13 16 13 144q0 32 -1 71q0 123 -6 172t-27 98q-31 76 -55 82q-4 1 -7 1q-32 0 -70 -49q-42 -54 -42 -106q0 -35 36 -136t56 -124q23 -25 17 -28 q-6 -8 -124 -30t-187 -30q-30 -3 -50 -3q-40 0 -39 12q0 10 27 26zM154 147l73 -4q19 -1 34 -1q43 0 53 8q4 4 3 14q0 22 -18 74q-36 107 -36 167q0 11 1 21q8 61 78 135q37 39 75 45q7 1 13 1q29 0 49 -23q47 -53 66.5 -120t25.5 -194l9 -164l55 5q53 4 78 16q12 6 15 15.5 t-2 26.5t-13 39.5t-21.5 68t-23.5 96.5q-8 44 -8 66v9q2 22 18 50q25 43 67 69q29 18 56 18q12 1 23 -3q36 -12 71 -70q41 -66 55 -163q10 -67 10 -112q0 -20 -2 -36q-2 -17 -2 -31q0 -29 9 -47q3 -3 11 -3q18 0 60 11l66 16l4 95v19q0 71 -26 181q-30 124 -66 187 q-27 45 -100.5 94t-118.5 49q-53 0 -96.5 -47t-43.5 -107q0 -53 -12 -75.5t-35 -14.5q-22 8 -22 70v6q0 53 -28 118.5t-58 84.5q-8 5 -19 5q-23 0 -57 -20q-51 -28 -82 -75q-30 -46 -45 -46q-8 0 -12 15q-5 20 -5 67q0 16 1 35q1 21 1 38q0 83 -16 83q-6 0 -14 -8t-8 -45 q0 -20 -42 -261t-44 -335zM422 1020q0 14 13.5 14t13.5 -14t-13.5 -14t-13.5 14z" />
<glyph unicode="n" horiz-adv-x="944" d="M20 -10q0 6 8.5 16t13.5 56.5t16.5 170t23.5 240.5q17 143 17 219q0 84 -21 84q-16 -4 -17 8q2 12 27 37q27 23 35 97q9 69 25 69h2q14 -2 20 -51q4 -23 9 -32t21.5 -9t40 10t70.5 35q70 35 89 35q8 0 8 -6q-2 -6 -21 -21q-12 -10 -34.5 -67.5t-35 -110.5t-2.5 -53t56 35 q102 77 221 77q2 -1 5 -1q122 -2 208 -83q55 -53 74 -61q27 -10 39 -158q5 -63 6 -119q0 -77 -10 -143q-8 -54 -8 -86q0 -36 9 -47q7 -9 7 -17q0 -22 -52 -38q-37 -10 -90 -13q-84 -2 -164 -26q-48 -14 -73 -14q-30 0 -30 19q0 3 1 7q2 10 10 23q16 27 27 182q2 40 2 74 q0 196 -68 196h-2q-23 -2 -55 -26q-49 -37 -66.5 -88.5t-17.5 -151.5v-40q0 -94 8 -134l10 -49l-163 -31q-111 -22 -153 -22q-26 0 -26 8zM125 88l63 -10q28 -4 47 -4q31 0 39 10q16 18 21 164v6q4 121 11 153.5t34 73.5q33 47 81 74q42 24 80 23h11q14 -2 26.5 -10.5 t21.5 -18.5t16.5 -27.5t11.5 -33t7 -38t5 -38t3 -38t1 -32.5v-29.5v-21.5v-172l72 6q106 6 127.5 22.5t38.5 102.5q12 68 12 148q0 18 -1 36q-3 102 -24 164q-23 78 -89 127t-144 50h-3q-76 0 -151 -44q-63 -43 -71 -59q-20 -47 -50 -87t-42 -40q-11 -1 -15 29q-3 20 -3 70 q0 22 1 50v27q0 115 -16 121h-3q-13 0 -46 -27q-16 -12 -23.5 -36.5t-10.5 -76t-5 -109.5t-7 -167t-16 -219z" />
<glyph unicode="o" horiz-adv-x="1044" d="M23 227q2 1 5 1q16 0 58 -40q43 -42 48 -36q1 1 1 4q0 12 -20 61q-21 51 -25 214q-1 33 0 59q0 106 14 114q12 8 21.5 50t21.5 42t58.5 57.5t73.5 69.5l96 45q33 14 60.5 32t39.5 28t27.5 20t22.5 9t24 -5q27 -14 34 -12t13 27q4 15 13 14q5 0 12 -4q16 -10 69 -57 q61 -53 139 -132t101 -98q34 -29 68 -80q26 -39 26 -54q0 -4 -2 -7q-10 -10 -34.5 6t-24.5 33q0 20 -14.5 20t-14.5 -116.5t14.5 -116.5t14.5 -69.5t13 -69.5t13 -20.5t-33.5 -20.5t-33.5 28q0 43 -27 17q-12 -12 -27 -41q-16 -31 -38.5 -57.5t-33 -39t-5.5 -20.5 q8 -10 50 -3t58 21q16 16 26.5 11t6.5 -29q-4 -31 -35 -27q-5 1 -11 1q-34 0 -102 -20q-80 -24 -110 -46q-37 -25 -207 -35q-79 -4 -120 -4q-21 0 -31 1q-32 3 -54 23q-31 27 -12 27q25 2 24 12q0 16 -38 25q-20 4 -78 48t-102 89q-35 36 -35 47q0 3 2 4zM172 416 q10 -150 23.5 -204t48.5 -81q78 -63 186 -91q59 -15 105 -15q38 0 69 10q61 23 122.5 78t88.5 114q37 74 51 161q7 43 8 80q0 39 -8 73q-18 92 -74.5 186t-111.5 129q-16 8 -43 16.5t-57 10.5h-9q-23 -1 -41 -9q-22 -10 -22 -34q0 -18 -8 -21.5t-39 2.5q-35 6 -57.5 -6 t-96.5 -78q-101 -90 -123 -142q-16 -36 -15 -108q0 -32 3 -71zM289 489q0 39 36.5 102.5t73.5 88.5q29 22 43 22h2q14 -2 37 -26q27 -27 35 -66q5 -22 5 -54q0 -24 -3 -54q-2 -47 -11 -68.5t-32 -42.5q-31 -28 -64 -28q-9 1 -18 3q-43 10 -73.5 46.5t-30.5 76.5zM344 492 q0 -27 23.5 -51.5t50.5 -24.5q36 0 54 74q8 33 8 61q0 34 -13 57q-14 27 -25 27q-16 -2 -57 -62.5t-41 -80.5z" />
<glyph unicode="p" horiz-adv-x="952" d="M20 852q0 10 21 16q31 8 59.5 30t28.5 36q0 18 10 16q14 -2 19 -24q6 -18 28.5 -17.5t135.5 29.5q153 36 183 36q6 0 7 -1q2 -2 2 -6q0 -12 6 -29.5t2 -23t-28 -5.5q-61 0 -84 -106q-8 -39 3 -42t42 13q23 12 38 18.5t42.5 13.5t54.5 7q57 0 63 16q4 11 15 11 q20 0 65 -35q39 -31 68 -68q49 -63 61 -74.5t29 -5.5q12 4 16 -5t4 -38q0 -27 5.5 -48t10.5 -32q4 -8 4 -15q0 -10 -11 -17q-12 -8 -24.5 -74t-28 -168t-25.5 -149q-14 -61 -29 -66q-12 -4 -2 47q10 55 -12 43q-12 -6 -37 -37q-31 -43 -94 -84q-70 -39 -125 -39q-8 0 -15 1 q-61 6 -107 20t-52 8q-2 -3 -2 -15q0 -31 12 -128q10 -86 17 -109.5t24 -23.5q25 0 24.5 -13.5t-13.5 -13.5t-30 -39q-12 -25 -28.5 -33t-65.5 -14q-87 -10 -154 -10h-21q-73 2 -73 16q0 18 15 33q14 14 21 393q2 126 2 214q0 174 -9 192q-14 29 6 45q16 14 20 100v33 q0 70 -12 141q-6 41 -13 51.5t-30 10.5q-37 0 -39 18zM144 -300q3 -30 18 -36q6 -3 17 -3q24 0 71 13q69 17 84 31q5 6 5 35q0 43 -11 137q-22 163 -22 199q0 8 1 10q4 4 27 2q49 -4 109.5 -18.5t90.5 -18.5q6 -1 14 -1q26 0 61 10q46 14 98 55q86 70 115 235q9 57 9 107 q0 98 -36 172q-35 74 -73 101.5t-101 27.5q-109 0 -215 -90q-25 -18 -38.5 -24.5t-21.5 1.5t-9 33v11q0 23 3 56l10 97l-67 -2q-74 0 -88 -15q-25 -25 -25 -184v-100q2 -270 20 -367q25 -145 25 -176q0 -8 -2 -8q-10 0 -17.5 13t-11.5 19.5t-18 -4.5q-16 -16 -21 -180 q-2 -62 -2 -99q0 -27 1 -39zM434 456q3 28 15 48q14 20 29.5 27.5t47.5 7.5q59 0 85 -29t26 -94q0 -43 -7 -61.5t-36 -41.5q-42 -35 -57 -35q-16 0 -41 -24q-14 -12 -24 -12q-16 0 -23 30q-8 27 -13 93q-4 40 -4 66q0 15 2 25zM485 406q0 -47 5.5 -60.5t23.5 -13.5 q45 0 69 47q12 23 12 46t-13 46q-10 18 -42 25.5t-44 -7.5q-10 -10 -11 -83zM623 868.5q0 14.5 6 14.5q8 0 16 -17q1 -3 1 -5q0 -7 -9 -7q-14 0 -14 14.5z" />
<glyph unicode="q" horiz-adv-x="897" d="M18 600q2 59 11 62q8 2 16 -48q10 -47 18 -47q6 0 21.5 46t42.5 114t57 107q47 61 47 73q0 14 25 47q21 27 31 9q14 -14 28.5 -7t38.5 19q19 9 32 9q5 0 9 -1q12 -4 44 -12t56.5 -17.5t47.5 -25.5q41 -29 144.5 -81t131.5 -79q23 -20 24 -27.5t-20 -21.5 q-16 -14 -28.5 -70.5t-34.5 -232.5q-23 -174 -29 -266q-4 -56 -4 -121q0 -44 2 -92q2 -68 2 -111q0 -31 -1 -49q-3 -41 -13 -45q-47 -16 4 -27q25 -4 65 -4q90 0 91 -12q0 -20 -227 -27q-63 -3 -111 -3q-130 0 -166 15q-29 10 -31 14.5t18 18.5q24 19 37 19t13 -19 q0 -20 48 -20t48 14q0 10 -25 16q-18 4 -19 37v6q0 39 11 183q13 175 13 213q0 9 -1 10q-4 4 -22.5 -10.5t-46 -37t-60 -43t-72.5 -31.5q-21 -6 -41 -6q-17 0 -34 5q-31 8 -42 5t-22 -17q-12 -16 -23 -16q-19 0 -34 51q-8 20 -14 53q-56 238 -56 447v34zM109 274 q31 -176 135 -176q125 0 219 181q38 74 55 74q6 0 10 -9q12 -27 13 -141q0 -152 -9 -283l-6 -131h150l-4 180v19q0 173 33 420q35 266 35 320q0 10 -1 13q-6 12 -30 15q-20 2 -28.5 -3t-10.5 -24q-6 -35 -23 -33q-25 2 -33 60q-6 59 -53 98q-48 41 -62 41q-7 0 -5 -10l4 -8 q6 -20 -2 -21q-10 2 -47 33t-51 32h-1q-14 0 -57 -22q-29 -16 -54.5 -53t-78.5 -137q-78 -150 -97 -236q-10 -44 -10 -94q0 -49 9 -105zM258 500q0 111 57 172q30 32 61 32q15 0 30 -8q45 -22 45 -92q0 -76 -38 -139.5t-85 -63.5q-41 0 -55.5 20.5t-14.5 78.5zM310 488 q3 -25 16 -25q23 0 46 40t25 85q1 8 1 15q0 39 -18 45q-3 1 -6 1q-19 0 -40 -41q-14 -27 -20 -62q-5 -23 -5 -42q0 -9 1 -16zM776 90q31 502 41 522q4 6 9.5 6t11.5 -6q2 -3 2 -29q0 -37 -4 -119q-9 -140 -24 -275.5t-26 -133.5q-10 3 -10 27v8z" />
<glyph unicode="r" horiz-adv-x="970" d="M31 944q-8 10 -8 16q0 7 12 8h31q25 -2 40 10q9 8 19 8q6 0 12 -3q25 -10 133 -12q104 0 124 -10.5t-1 -51.5q-20 -41 -12 -53q3 -5 17 -5q37 0 147 32q27 8 51.5 1t61 -24.5t71.5 -25.5q33 -6 38 -3t-3 29q-8 35 -2 35q12 0 49 -84q23 -49 42 -73.5t48 -41.5 q49 -27 49 -39q0 -14 -41 5q-27 12 -30 4q-5 -6 25 -121q25 -96 25 -128q0 -7 -1 -11q-6 -29 18 -33q3 -1 3 -2q0 -10 -70 -52q-174 -98 -261 -129l-8 -2q-6 6 25 39q35 39 41 131q1 12 1 25q0 79 -34 143t-96 64q-10 0 -21 -2q-102 -16 -108 -130v-15q0 -116 82 -375 q36 -118 36 -147q0 -4 -1 -7q-6 -16 -48.5 -14t-99.5 5h-14q-52 0 -115 -18q-55 -18 -78 -18q-9 1 -13 3q-9 6 -9 108q0 68 4 180q2 71 2 146q0 155 -8 325q-12 252 -31 274q-14 18 -46 18.5t-48 20.5zM200 892q-5 -7 -5 -17q0 -18 18 -46q23 -39 38 -450.5t21 -419.5 q4 -6 53 -6q19 0 43 1q90 3 99 13q1 1 1 5q0 17 -24 91q-52 157 -68 305q-6 54 -5 94q0 72 18 105q23 43 110 63q36 8 65 8q43 0 73 -17q27 -14 52.5 -68.5t33.5 -116.5q7 -53 23 -58q2 -1 6 -1q20 0 82 24q29 10 28 35q2 25 -28 152q-29 113 -108 177t-194 66 q-49 0 -68.5 -5t-43.5 -27q-35 -37 -43 -80q-10 -43 -19 -41q-18 2 -18 115l-2 110l-64 4q-10 1 -19 1q-43 0 -55 -16zM205 -207q-9 5 -9 10q0 7 21 15q18 6 45 6q49 2 98 18q40 15 59 15q16 0 17 -11q0 -8 -10 -16q-12 -14 -110 -30q-61 -10 -89 -11q-17 0 -22 4zM209 2 q0 -55 13.5 -55t13.5 55t-13.5 55t-13.5 -55zM471 -161.5q0 14.5 13.5 14.5t13.5 -14.5t-13.5 -14.5t-13.5 14.5zM567 369q0 15 6 14q3 0 9 -4q12 -10 12 -27q0 -16 -6 -16q-4 0 -10 6q-11 9 -11 27z" />
<glyph unicode="s" horiz-adv-x="1048" d="M23 444q6 23 17 25t19 -20q5 -16 67 -18q16 -1 33 -1q47 0 99 5q70 7 132 11q25 1 40 1q22 0 25 -3q12 -12 -17 -57q-27 -54 -27 -100q-1 -11 1 -21q8 -56 54 -86q29 -19 63 -19q20 0 42 7q72 25 72 102q0 45 -32.5 90.5t-79 86t-92.5 84.5q-45 43 -73 101q-23 47 -23 99 q0 11 1 23q2 18 2 31q0 37 -16 38q-6 0 -15 -6q-8 -4 -16 -12q-25 -10 -27 0q0 10 7.5 17t20.5 14.5t44 34t66 67.5q45 51 99 95t85 62.5t37 20.5h3q19 0 87 -24q74 -26 90 -39q39 -33 37 -6q-2 6 -4 14q-8 29 2 29t41 -90.5t67.5 -186.5t59.5 -108q16 -8 16 -15q0 -3 -4 -6 q-6 -6 -105.5 -12t-209.5 -8q-37 0 -15 -41q8 -10 29 -41q49 -72 76 -123q35 -70 51 -70q10 0 16 19q12 33 27 16q10 -10 10 -33q-2 -39 -53 -223l-53 -186l-78 -43q-55 -29 -115.5 -42.5t-158 -20.5t-154.5 -15h-1q-11 0 -11 35q0 45 -48 71q-41 18 -43 -12q0 -41 -18 -12 q-16 23 -29 71q-18 68 -35.5 127.5t-25.5 88t-15.5 52t-9.5 34t-3 18.5t-1 20q-1 24 -19 46q-13 16 -13 32q0 6 2 12zM91 325q7 -34 18 -34q12 0 12 35q0 43 -19 45q-6 2 -10 -4q-4 -4 -4 -16q0 -10 3 -26zM176 234q6 -108 23 -144q39 -84 147 -114q49 -14 102 -14 q64 0 132 20q45 12 71.5 29.5t59.5 54.5q45 49 60 97t15 136v12q0 36 -10 66q-12 35 -53 106q-68 117 -115 176q-49 61 -49 111.5t51 101.5q57 60 105 59q23 0 45 -13q31 -20 35 -70q1 -7 1 -13q0 -41 -22 -73q-23 -33 -18.5 -37t67.5 -10l62 -4l4 61v11q0 51 -31 118 q-35 74 -78 107q-41 27 -86 34q-10 2 -20 2q-18 0 -34 -8q-24 -12 -87 -67q-98 -86 -121.5 -118t-30.5 -89q-2 -13 -1 -26q0 -56 27 -104q34 -60 120 -126q92 -72 115.5 -113t23.5 -127q0 -92 -26.5 -115.5t-124.5 -23.5q-63 0 -84 6t-48 35q-27 27 -34 48.5t-9 72.5v78 l-81 -5q-82 -6 -93 -12q-12 -6 -12 -64q0 -23 2 -52zM618 767v-6q0 -36 27 -40h3q20 0 56 50q34 47 34 72q0 4 -1 7q-4 29 -26 29h-3q-24 -2 -56 -36t-34 -76zM703.5 -34q3.5 -3 7.5 -3q6 0 14 5q14 9 14 21.5t-12 12.5q-11 0 -21 -14q-5 -8 -6 -14q0 -5 3.5 -8z" />
<glyph unicode="t" horiz-adv-x="813" d="M23 446q0 4 36 183q6 31 11 57q16 102 41.5 115.5t31.5 -6.5q8 -18 68.5 -54t83.5 -36q20 0 20 38q0 37 19.5 125t42.5 150q18 50 18 62q0 11 -39 24q-18 6 -27 14t-5 12q6 10 202 12q39 0 70 1q127 0 135 -8q6 -4 -22.5 -49.5t-73.5 -121t-70 -135.5q-28 -68 -28 -92 q1 -7 3 -10q5 -8 27 -8t62 8q47 8 56 16.5t11 47.5q4 51 17 51q8 0 47 -186q32 -155 32 -187q0 -7 -1 -8q-4 -4 -76 -8t-139.5 -16.5t-67.5 -37.5q0 -16 35 -123.5t57 -160.5q18 -43 53 -43q33 0 33 -11q0 -14 -63 -30q-51 -13 -209 -27q-102 -9 -141 -9q-22 0 -25 3 q-2 2 -10.5 84t-10.5 158v16q0 63 15 84q18 16 18 43q0 18 14.5 39.5t6.5 34.5q-8 12 -54 12q-23 0 -55 -3q-96 -9 -119 -32q-30 -27 -30 6v6zM104 524q8 -6 127 -6q82 0 99.5 -4t15.5 -22q0 -2 -9 -80t-15 -144q-4 -49 -3 -88v-26l5 -76l94 4q94 4 106 14q4 3 3 12 q0 20 -17 68q-25 60 -42 156q-13 71 -13 101q0 11 2 16q6 16 105.5 35.5t103.5 31.5q2 6 2 19q0 22 -6 65l-11 70h-178l2 45q2 37 51 140.5t49 109.5q0 10 28 55t22 55q-10 14 -51 14q-18 0 -43 -3q-80 -9 -97 -35q-8 -14 -35.5 -149.5t-36.5 -203.5q-10 -80 -26 -86h-2 q-16 0 -88 44q-73 45 -91 46h-3q-16 -4 -36 -84q-15 -55 -15 -79q0 -11 3 -15zM260 847.5q0 20.5 13.5 20.5t13.5 -20.5t-13.5 -20.5t-13.5 20.5z" />
<glyph unicode="u" horiz-adv-x="1036" d="M23 461q-2 6 -2 11q0 12 16 11q18 0 39.5 -20.5t25.5 -20.5q6 0 8.5 26t15.5 93.5t42 145.5q42 113 42 140q0 5 -1 7q-4 8 -37 12q-45 4 -45 23q1 12 17 13h5q18 0 62 -5q76 -8 135 -12q84 -6 108.5 -12.5t26.5 -22.5q4 -18 -29.5 -63.5t-53.5 -91.5q-8 -18 -8 -44 q0 -39 18 -94q19 -45 43 -45q43 0 102 143q49 121 61 189q8 53 13 53q2 -1 144 -29q117 -24 149 -23q7 0 10 1q14 4 28.5 48t24.5 54q14 18 24 18q3 0 5 -2q6 -4 5 -14q0 -9 -3 -22q-6 -20 -13.5 -89t-17.5 -83t-39 -150.5t-43 -169.5q-16 -41 -20 -149q-2 -37 -2 -55.5v-33 t6 -20.5l10 -10t18.5 -11t24.5 -14q5 -3 5 -6q0 -14 -114 -16q-51 0 -124 2q-77 4 -126 4q-31 0 -51 -2q-48 -4 -90 -19q-47 -18 -113.5 -18t-125.5 18q-18 6 -24.5 1t-6.5 -27q0 -37 -8 -37q-16 0 -45 40t-23 52q1 2 1 5q1 23 -21 120q-24 113 -49 201zM31 525.5 q0 13.5 20.5 13.5t20.5 -13.5t-20.5 -13.5t-20.5 13.5zM159 352q3 -125 56 -178q23 -23 41 -27q7 -1 18 -1q20 0 54 4q80 8 118 22q61 23 113.5 120t69.5 216q11 93 40 93q2 0 5 -1q8 -2 16 -12q7 -8 7 -43q0 -48 -13 -146q-6 -55 -9 -81.5t-3 -55.5t3 -37t16.5 -18 t26.5 -11t42 -3l61 -5l8 199q10 201 31 275q20 69 20 94q0 8 -2 12q-7 18 -75 33q-78 16 -93.5 22t-31.5 -20.5t-34.5 -72.5t-38 -95t-49.5 -97.5t-62 -72.5q-27 -20 -38.5 -21.5t-37.5 13.5q-59 33 -79 125q-7 31 -7 60q0 57 26 106q25 51 19 58t-60 7q-47 0 -62 -23.5 t-50 -144.5q-46 -158 -46 -278v-15zM524 911q0 13 10 13q9 0 25 -9q29 -16 19 -26q-8 -8 -31 1t-23 21zM559 158q4 -4 10 -4q7 0 19 8q20 14 20 33q0 28 -13 28h-1q-12 -1 -28 -29q-10 -19 -10 -28q0 -5 3 -8z" />
<glyph unicode="v" horiz-adv-x="1017" d="M20 723q0 23 21.5 23t28.5 24q6 16 28.5 20.5t75.5 10.5t100 18q49 14 169 14q33 0 71 -1q178 -5 242 -27q49 -16 81 -16q34 0 50 18q25 29 37 18q4 -4 0 -16q-8 -18 7 -34.5t40.5 -16.5t25.5 -12t-51 -11l-51 2l-104 -194q-86 -160 -131.5 -223.5t-59.5 -90.5 q-10 -20 -80 -123q-21 -31 -21 -44q0 -9 11 -9q12 -2 37 6q23 6 34 8.5t18 2.5t10 -2t3 -9q0 -8 -34.5 -18t-74.5 -23.5t-50 -25.5q-12 -16 -52.5 -23.5t-48.5 -11.5q-3 -2 -7 -2q-7 0 -17 8q-14 12 -39 12q-31 0 -34 12.5t26 28.5q16 8 19 16.5t-5 28.5q-14 35 -96 276 t-82 249q0 33 26 -25q14 -31 29 -69q31 -90 43 -91q6 0 8 5.5t-2 28t-12 56t-29 103.5l-33 117l-63 -4q-37 -2 -50.5 1t-13.5 15zM203 705q0 -32 92 -317q98 -302 113 -312q2 -1 5 -1q18 -1 63 59q52 68 106 171q59 113 119.5 253t60.5 163q0 14 -33 29.5t-74 25.5 q-37 9 -71 9h-6q-36 -1 -41 -15q-2 -8 -29 -189.5t-41 -201.5q-12 -18 -16.5 -17.5t-14.5 19.5q-12 25 -34.5 126t-30.5 173q-8 66 -27 74q-6 2 -15 2q-23 0 -63 -12q-64 -20 -63 -39zM406 795q-6 -8 -6 -29q0 -32 14 -94q23 -102 35 -103q14 0 32 140q4 23 4 40 q0 31 -12 44q-17 21 -34 21q-16 0 -33 -19zM831 731q0 -10 5.5 -10t17.5 10q4 4 4 8q0 6 -13.5 6t-13.5 -14z" />
<glyph unicode="w" horiz-adv-x="1222" d="M20 856q0 14 69 46t169 65q114 36 144 37q10 0 10 -5q0 -6 -15 -22q-25 -27 -30 -112q-2 -31 -2 -61q-1 -50 5 -96q8 -72 21 -73q8 0 47 49t71 100.5t23 53.5q-29 10 -12 22q8 8 28.5 8t42 16.5t35 32t33 19.5t35.5 -18q15 -20 48 -20q6 0 12 1q27 2 36 10.5t11 28.5 t-5.5 31.5t-17.5 13.5t-19 7.5t-9 15.5t7 10t36 -4q18 -2 32.5 -4t46 -4.5t64.5 -4.5q266 -16 266 -34q0 -12 -37 -17q-16 -2 -24 -6t-13.5 -18.5t-6.5 -35t-5 -61.5t-10 -89t-22.5 -129t-39.5 -173q-10 -39 -20 -37q-12 0 -12 40q0 18 2 44q2 29 2 48q0 15 -1 23 q-3 20 -12.5 1.5t-19.5 -68.5q-10 -47 -32.5 -140t-38.5 -161q-14 -61 -13 -91v-7q0 -45 -20.5 -45t-20.5 -12q0 -25 29 -13q18 10 26 33q14 35 56 35q35 0 40 -12.5t-24 -28.5q-14 -10 -15 -15t11 -12q23 -14 -16 -28q-27 -12 -117 -37q-100 -22 -128 -22q-10 0 -11 3 q0 12 47 33t49 41q0 8 -14 8t-15 35q0 18 -4 32.5t-12 38t-31.5 115t-54.5 230.5q-8 31 -21 31q-8 0 -41.5 -54.5t-85 -137.5t-86.5 -128q-42 -57 -42 -75q0 -3 1 -5q12 -20 -14.5 -46.5t-77.5 -45.5q-165 -61 -205 -61q-11 0 -12 4q-6 10 76 49l78 37l-8 63 q-6 47 -33 220.5t-49.5 325t-22.5 173.5q0 29 -15.5 36t-33.5 -11q-12 -12 -37 -6t-25 20zM58 698q4 20 24 19q12 0 43 -181.5t43 -324.5q3 -36 3 -57q0 -29 -6 -29h-1q-16 8 -33 135q-8 74 -23.5 154t-26.5 130t-19 92q-6 27 -6 45q0 10 2 17zM168 846q6 -68 63.5 -392.5 t63.5 -332.5q5 -4 11 -4q30 0 100 99q84 120 164.5 258t84.5 142q5 3 9 3q29 -1 62 -105q38 -122 66.5 -254.5t41.5 -132.5q12 0 37.5 98.5t60.5 258t59 241.5q35 123 43 162l6 37h-90q-66 0 -81 -5.5t-23 -29.5q-12 -29 -15 -103.5t-10 -123.5q-11 -60 -31 -62h-1 q-19 0 -27 55q-10 55 -39 121q-18 41 -33.5 56.5t-40 5t-54.5 -44t-83 -103.5l-127 -172q-14 -19 -24 -19q-18 0 -25 58q-8 49 -10 152q-6 180 -15 190q-3 3 -13 3q-18 0 -64 -10q-70 -15 -66 -46zM752.5 832.5q3.5 -3.5 8.5 -3.5q7 -1 15 5q16 10 15.5 22t-13 12t-22.5 -14 q-6 -8 -7 -14q0 -4 3.5 -7.5z" />
<glyph unicode="x" horiz-adv-x="1079" d="M25 158q8 10 21 -3.5t6 -22.5t-23 1q-9 6 -9 13q0 6 5 12zM96 113q12 0 29 -21q25 -29 35 -18q6 6 -2 22q-10 23 -35 110t-27 93q-2 4 -2 7q0 8 10 13q4 2 10.5 -5t6.5 -19q7 -44 28 -44q11 0 25 11q20 14 53 53q66 74 119 144.5t53 81.5q0 8 -26.5 47t-66.5 96t-62 94 q-37 63 -85 84t-48 31q0 8 139 9t278.5 3.5t141.5 14.5v2q2 14 3 20t7 8q4 1 9 1h5q8 -1 31 -7q106 -27 227 -41q98 -10 103 -41q0 -10 -19 -16q-18 -8 -107 -112.5t-89 -121.5q0 -8 -43 -61q-35 -43 -35 -74q0 -30 47 -141q37 -86 55 -86q12 0 57.5 20.5t59.5 16.5 q10 -2 -25 -25q-74 -45 -75 -53q0 -16 18 -10q12 6 47 22q80 40 103 40q10 0 10 -7q0 -8 -40 -29.5t-86 -45t-54 -36.5q-14 -16 -41 -16t-123 -49q-95 -49 -122 -49q-12 0 -9 10q2 4 8 12q8 10 9 17.5t-4 14.5t-14.5 34.5t-19.5 64.5q-16 76 -22 86q-4 6 -48 -29.5 t-91.5 -73.5t-53.5 -40q-10 0 -59 -41l-47 -41l24 -43q16 -28 16 -42q0 -13 -14 -13h-2q-18 2 -53 28q-66 47 -111 115q-10 15 -10 21q0 4 4 4zM258 228q33 28 60.5 61t23.5 37t-36 -25t-60 -61q-25 -28 -25 -36t37 24zM229 115q8 0 35 12q31 16 121 93t125 116q29 33 49 33 q28 0 39 -66q25 -164 57 -164q16 0 86 35t70 43q0 12 -52 86t-77 96q-35 33 -35 41q0 6 96.5 126t96.5 128q0 12 41 66q29 36 29 50q0 4 -2 6q-10 11 -83 15l-59 3l-31 -89q-31 -92 -61.5 -149t-46.5 -57q-12 0 -48 58t-75 130t-45 82q-10 15 -87 25q-39 5 -61 5 q-21 0 -26 -5q-2 -2 -2 -5q0 -31 125 -204q49 -66 67.5 -81.5t40.5 -11.5q35 8 35 -4q0 -18 -176 -213q-151 -169 -151 -195q0 -5 5 -5zM518 856q-2 -2 -2 -6q0 -22 42 -104q50 -98 69 -97q10 0 27.5 38t36 90t26.5 67q7 13 7 19q0 5 -5 7q-7 3 -33 3t-70 -3q-90 -6 -98 -14 z" />
<glyph unicode="y" horiz-adv-x="1179" d="M23 811q-3 1 -3 4q0 7 31 25q25 12 35 8t20.5 7t15.5 19.5t13 -2.5q6 -10 36 -14t56.5 -1t26.5 11q0 14 14.5 14.5t14.5 -20t26 -20.5q18 0 22.5 5t-1.5 21q-8 29 13.5 29t21.5 -20.5t45 -24.5q31 -2 39 -13.5t16 -58.5q12 -82 35.5 -162.5t36.5 -82.5h1q12 0 34 67 q24 70 28 123q4 39 -2 46t-39 5q-45 -2 -43 8q4 20 119 39q186 31 276 57.5t121 57.5q35 36 43 36q2 0 2 -3q0 -4 -2 -17q-2 -14 6.5 -18t34.5 -2q43 4 43 -8q2 -12 -49 -23q-51 -10 -75.5 -24.5t-41.5 -42.5q-18 -33 -108 -156t-137 -176q-41 -49 -123 -187.5t-82 -158.5 q0 -35 -114 -240t-132 -205q-6 0 -52 48.5t-85 97.5t-33 49t18.5 1t15.5 2t11 4t13 11t12.5 20.5t15.5 34t18.5 48t26.5 67.5l68 185l-84 168q-75 155 -75 190q0 4 1 6q2 8 2 17q0 24 -12 60q-15 50 -29 50q-12 0 -12 -14q0 -2 -2 -2q-13 0 -92 55zM219 770q-5 -4 -5 -17 q0 -27 20 -89q32 -95 100 -228l61 -121l-69 -196q-72 -197 -72 -219q0 -27 16.5 -51.5t32.5 -24.5q26 0 26 32q0 17 -7 42q-2 7 -2 15q0 21 13 47q17 36 95 153q82 125 130 215t106 164q193 252 193 284q0 3 -3 4q-7 3 -26 3q-27 0 -80 -7q-63 -8 -76 -15t-15 -36 q-8 -84 -54 -199q-44 -108 -68 -108h-3q-20 4 -55 95t-49 183q-16 96 -37 99h-16q-35 0 -85 -7q-61 -8 -71 -18z" />
<glyph unicode="z" horiz-adv-x="966" d="M23 47q-2 28 -2 49q0 68 19 68h3q6 -2 37 35t107.5 126t164.5 175q125 133 125 157q0 4 -4 5q-27 0 -133.5 -40t-120.5 -57q-22 -26 -37 -26q-13 0 -20 20q-4 10 -4 62q0 65 6 193q10 232 18 233q10 0 19 -37q14 -55 50 -77q16 -9 30 -9q19 0 34 16q12 12 108.5 17.5 t207 7.5t141.5 10q37 7 42 19q3 6 3 26q0 15 -2 39q-1 13 -1 24q0 48 14 48q1 0 3 -1q10 -4 23 -36q14 -39 47 -174.5t41 -190.5q4 -25 4 -41q0 -25 -10 -26q-12 -2 -27 34q-14 35 -26 35q-8 0 -40 -36t-87.5 -101.5t-102.5 -110.5q-50 -52 -50 -67q0 -6 9 -6h4q16 0 54 18 q53 29 59 29q2 0 2 -25.5t-1 -71t-1 -98.5q-8 -211 -33 -213q-8 0 -20 23q-12 20 -32 24q-8 2 -25 2q-27 0 -78 -4q-309 -20 -389 -29.5t-80 -29.5q0 -10 16 -12.5t62 2.5q80 8 135 20q59 12 61 0q0 -6 -14 -22q-16 -14 -137 -27.5t-136 -24.5q-8 -7 -14 -7q-13 0 -18 28 q-2 18 -4 55zM133 131q18 -1 38 -1q29 0 63 2q56 3 184.5 13.5t181.5 12.5l55 4l9 88q5 45 5 70t-5 30q-2 2 -7 2q-23 0 -116 -28q-79 -24 -111 -24q-15 0 -20 5q-4 4 -4 9q0 16 36 44q41 31 149.5 140.5t196.5 208.5l78 88l-16 61q-12 39 -22.5 50.5t-36.5 11.5h-22 q-41 0 -81 -6q-50 -8 -55 -19q-10 -16 -189 -19h-91.5t-60.5 -5t-41 -10t-18.5 -22.5t-9.5 -34v-52.5q1 -86 15 -94q2 -1 6 -2q30 0 180 51q63 23 102 33t64.5 13t35 -2.5t7.5 -19.5q0 -14 -140.5 -159.5t-265.5 -285.5q-100 -113 -100 -143q0 -8 6 -10z" />
<glyph unicode="{" />
<glyph unicode="|" />
<glyph unicode="}" />
<glyph unicode="~" horiz-adv-x="1187" d="M23 367q2 6 34 -7q31 -12 53.5 7.5t22.5 60.5q0 29 20.5 73t34 77.5t-1.5 48.5q-8 12 -5 17t22 9l104 23q76 16 124 2t116 -72q78 -66 128 -94.5t105 -36.5q41 -4 59.5 1t49.5 32t39 48.5t12 82.5q6 90 -15 122t-7 48q18 23 31.5 16.5t25.5 -41.5q16 -53 66.5 -144 t88.5 -144q39 -55 38 -75t-46 -20q-25 0 -47 -18t-63 -52t-97 -61q-51 -25 -65 -37t-8 -28q6 -18 -1 -20.5t-36 3.5q-8 2 -13.5 3.5t-14.5 2.5t-17 3t-19.5 3t-23.5 2t-25 3q-92 8 -92 17t-57 36q-57 25 -62.5 30t8.5 23q10 14 6.5 25.5t-30.5 36.5q-33 33 -55.5 39 t-63.5 -11q-41 -14 -53 -48t8 -72q14 -31 12 -38t-28 -14q-49 -10 -197 84q-72 45 -65 54zM168 365.5q4 -17.5 20 -33.5q25 -27 43.5 -22t22.5 38q10 70 100 96q53 16 96.5 -3t90.5 -85q51 -66 86 -75q55 -14 128.5 -7t129.5 29q49 23 108.5 76t59.5 78q0 12 -28 67.5 t-34 55.5t-15 -20.5t-20.5 -46.5t-45 -50.5t-83.5 -30.5q-57 -6 -113.5 13.5t-92 47t-74.5 59.5t-55 42q-31 14 -118 20.5t-108 -8.5q-27 -16 -58.5 -77.5t-39.5 -110.5q-4 -35 0 -52.5zM874 181.5q0 13.5 28 13.5t28 -13.5t-28 -13.5t-28 13.5z" />
<glyph unicode="&#xa2;" />
<glyph unicode="&#xa3;" horiz-adv-x="1472" d="M25 127q8 47 20 70.5t49 56.5l56 53l212 -8l23 94q25 96 12.5 108.5t-90.5 -3.5q-55 -10 -65.5 -18.5t-10.5 -43.5q0 -78 -38 -30q-8 10 -16.5 166.5t-2.5 209.5q2 27 19 15q10 -10 14 -35q2 -29 18.5 -34t108.5 -11q123 -8 135 0q14 14 19.5 125.5t-7.5 128.5 q-10 20 -8 31.5t10.5 43t8.5 58.5q0 39 19 39t58 80q2 4 9 14q16 35 28 48t48 23.5t108 12.5q70 2 166 -45t137 -102q37 -51 48 -63.5t58 32.5q55 53 54 39q0 -18 -74 -103q-66 -78 -106.5 -111.5t-98.5 -54.5q-63 -23 -63 -12q0 6 26 27q72 59 -12 112q-51 35 -97 -19 t-46 -149q0 -51 18.5 -68.5t69.5 -17.5q33 0 63.5 -5t46 -10t34 -3t36.5 14q25 14 29 11.5t4 -37.5q0 -31 -9.5 -52.5t-28 -49t-28.5 -56.5q-14 -33 -53 -75t-53 -70q-20 -39 -33.5 -31t8.5 41q23 37 -6 43q-23 6 -121 2l-108 -4l-15 -137q-16 -137 -4 -162q20 -41 90 -45 t125 30q12 8 111.5 93.5t163.5 113.5q45 20 58 31.5t9 28.5q-12 51 21 8q10 -14 147 -229q39 -59 49 -68q21 -16 21 -41q0 -18 41 -78q23 -33 0 -33q-14 0 -43 50q-37 61 -102.5 80.5t-133.5 -13.5q-29 -12 -107.5 -74.5t-154.5 -113.5t-111 -51q-14 0 -25 -22t-40 -13 q-16 6 -20.5 3t-0.5 -16q8 -20 -6 -20t-86 33q-186 82 -186 129q0 27 -23 45q-8 6 -13 8t-9 1t-7 -5t-9.5 -12.5t-11.5 -16.5t-15 -22.5t-21 -26.5l-32 -41l28 -6q29 -8 28 -19.5t-34 -19.5q-27 -6 -83 15.5t-100 38t-50 -0.5q-18 -45 -37 19q-25 86 -10 182zM87 81 q11 -79 75 -106q53 -20 87 -1.5t60 83.5q29 74 44.5 80t86.5 -67q74 -78 125 -102.5t133 -24.5q78 0 123 20.5t160 110.5q66 51 104.5 73.5t83.5 32.5q78 16 78 27q0 16 -38 79.5t-50 67.5q-45 18 -174 -96q-106 -96 -199.5 -133t-150.5 -8q-63 33 -76.5 66.5t-5.5 138.5 q10 127 20 182l9 55h282l47 55q59 70 44 92.5t-126 34.5q-84 8 -100 21q-18 14 -24.5 83.5t6.5 117.5q31 113 114.5 140t147.5 -56l31 -43l32 30q33 31 33 49q0 16 -35 53.5t-88 74t-119.5 55t-128.5 -1.5q-66 -23 -101.5 -137.5t-59.5 -374.5l-11 -111l-41 4 q-209 20 -225 12q-6 -4 -16 -28q-23 -61 0.5 -73.5t136.5 3.5l74 12l-11 -102q-8 -98 -22 -172t-27 -82q-8 -4 -26.5 4t-56.5 19.5t-81 11.5t-62 -6t-40 -29q-53 -55 -42 -134zM166 74q-4 36 10 65q8 18 22.5 23.5t43.5 3.5q31 -4 42 -11.5t13 -25.5q4 -27 -14.5 -63.5 t-69.5 -32.5q-27 2 -36 10t-11 31zM209 116.5q-6 -22.5 4 -32.5q8 -6 19.5 -1t18.5 19.5t1 24.5q-8 12 -23 12q-14 0 -20 -22.5z" />
<glyph unicode="&#xa7;" />
<glyph unicode="&#xab;" horiz-adv-x="1052" d="M23 397q-8 29 13 41.5t36 -10.5q10 -16 20 -8q14 12 127 160q92 123 124 177t22 77q-8 20 20 22q39 0 76 -29q35 -27 69 -41l37 -12l-30 -33q-39 -43 -79 -123.5t-34 -105.5q8 -25 23.5 -24t21.5 30q2 18 56.5 109.5t54.5 107.5q0 23 16 23q10 0 45 73.5t35 98.5 q0 12 -27.5 41.5t-27.5 44.5q0 18 10 18q16 0 88 -60.5t84 -84.5q18 -39 31.5 -33t11.5 16q-6 18 22 2q18 -8 50 -30q98 -70 86 -94q-8 -12 -54 6q-37 14 -55 -5.5t-33 -19.5q-12 0 -112.5 -158.5t-100.5 -177.5q0 -12 77 -98t128 -129q47 -39 62.5 -44t39.5 5q43 18 45 2 q4 -10 -20 -27q-25 -16 -29 -36.5t15 -26.5q10 -4 -27 -25q-55 -31 -235 -112q-49 -23 -52 -23q-6 2 0 17q8 18 -18.5 75.5t-46.5 65.5t-125 -80q-168 -139 -207 -141q-6 0 -6 4q0 10 20.5 30.5t20.5 36.5q0 37 -98.5 192t-122.5 155q-12 0 -12.5 -27t-13.5 -27t-13 92.5 t-8 122.5zM96 319l72 -100q41 -55 84 -127t66.5 -108.5t29.5 -36.5q18 0 70.5 46t52.5 60q0 12 -133 122t-139 124q-6 16 30.5 75.5t169.5 250.5q47 66 57.5 89.5t0.5 35.5q-18 25 -31.5 19.5t-37 -46.5t-140.5 -194.5t-127 -172.5zM264 319q0 -12 78 -79l143 -125 q59 -55 71.5 -43t-34.5 80q-16 23 -30.5 45t-19.5 33.5t-11 19.5t-10.5 11t-12.5 3q-20 0 -28.5 28.5t-8.5 110.5q0 94 -10 95q-10 0 -68.5 -82t-58.5 -97zM471 375q0 -35 56.5 -127t109.5 -165t55 -75q8 -4 64.5 21.5t81.5 46.5q14 10 -50.5 81.5t-136 143.5t-71.5 82 q0 8 84 148.5t137 224.5q14 20 9 32.5t-40 47.5l-49 51l-43 -94q-33 -72 -88 -168.5t-87 -157.5t-32 -92zM997 51q0 2 2 6q8 14 21 15q20 0 8 -11q-6 -6 -16 -10q-12 -4 -15 0z" />
<glyph unicode="&#xad;" horiz-adv-x="702" d="M21 441.5q2 185.5 16 197.5q10 10 20 -18q2 -6 4 -15l13 -47h184q121 0 163 5t77 24q119 61 118 28q0 -23 13.5 -22.5t13.5 96.5t13.5 96t13.5 -147q0 -59 3 -118.5t5 -95.5t4 -65.5t0 -42t-10 -12.5q-14 0 -14.5 55.5t-16.5 55.5q-14 -6 -10 -28.5t1 -55.5t-20 -43 q-20 -10 -26 -1t-15 52q-4 23 -59 25t-289 -15l-164 -10l-8 -45q-2 -18 -8 -30.5t-12 -12.5q-12 4 -10 189.5zM107.5 453q-1.5 -33 15.5 -47q16 -12 207.5 4t206.5 30q12 12 8 45q-4 20 -15.5 26.5t-52.5 8.5q-59 2 -194.5 -8t-155.5 -18q-18 -8 -19.5 -41zM616 484.5 q0 -27.5 13.5 -27.5t13.5 27.5t-13.5 27.5t-13.5 -27.5z" />
<glyph unicode="&#xbb;" horiz-adv-x="1142" d="M23 211q-8 33 6 45t37.5 -7.5t110.5 67.5t87 130q0 31 -80 171.5t-116 170.5q-27 25 -17 39q10 18 57.5 36t70 11.5t76.5 6t67 14.5q20 0 23 -16.5t-13 -32.5q-12 -12 12.5 -48t21 -46.5t99 -225.5t102.5 -235t-50 -63.5t-93 -59.5q-27 -10 -134.5 -88t-107.5 -86 q0 -6 27 -60q35 -66 22 -67q-2 -2 -8 -2q-12 0 -37 45q-16 33 -22 33q-4 2 -10 -15q-8 -27 -17 -14q-10 16 -58 143t-56 154zM106 170l23 -49q25 -49 41 -49q12 0 80.5 48t73.5 48q8 0 98 62.5t90 68.5q0 2 -108.5 229.5t-122.5 255.5q-10 18 -23.5 21.5t-52.5 -0.5 q-39 -6 -45 -27q-6 -16 90 -170.5t96 -177.5q0 -31 -121 -145zM389.5 787.5q4.5 11.5 22.5 17.5q2 0 14 6q242 104 174 47q-4 -2 -6 -4q-20 -14 -43 -25.5t-31 -17.5t-8 -16q0 -16 100 -11q35 0 33 -4q-16 -18 48.5 -105t189.5 -214q104 -106 149 -144t62 -36q20 2 24 -7.5 t4 -50.5q0 -43 -5 -52t-27 -9q-29 2 -148 -83t-213 -173q-70 -68 -62.5 -94.5t-0.5 -24.5q-14 2 -86 94q-125 160 -142 219q-4 12 2 13q8 0 20.5 -16.5t26 -30t46 -6t79.5 43.5q37 31 76 54.5t55.5 33t16.5 19.5q0 12 -74 152.5t-141 257.5q-43 72 -63.5 96t-49.5 31 q-23 6 -35 17t-7.5 22.5zM582 717q-35 0 12 -82q82 -139 96 -172q12 -27 48 -90.5t62.5 -113.5t26.5 -60.5t-21.5 -23.5t-66.5 -43t-84 -64l-67 -62l33 -37q31 -33 48 -34t44 28q31 35 141.5 119t134.5 92q43 12 43 31q0 27 -121 149q-6 7 -12 15q-94 94 -173 185 t-108.5 127t-35.5 36z" />
<glyph unicode="&#xbf;" />
<glyph unicode="&#xc0;" />
<glyph unicode="&#xc1;" />
<glyph unicode="&#xc2;" />
<glyph unicode="&#xc4;" />
<glyph unicode="&#xc7;" />
<glyph unicode="&#xc8;" />
<glyph unicode="&#xc9;" />
<glyph unicode="&#xca;" />
<glyph unicode="&#xcb;" />
<glyph unicode="&#xce;" />
<glyph unicode="&#xcf;" />
<glyph unicode="&#xd1;" />
<glyph unicode="&#xd3;" />
<glyph unicode="&#xd4;" />
<glyph unicode="&#xd6;" />
<glyph unicode="&#xd9;" />
<glyph unicode="&#xda;" />
<glyph unicode="&#xdb;" />
<glyph unicode="&#xdc;" />
<glyph unicode="&#xdf;" />
<glyph unicode="&#xe0;" />
<glyph unicode="&#xe1;" />
<glyph unicode="&#xe2;" />
<glyph unicode="&#xe4;" />
<glyph unicode="&#xe7;" />
<glyph unicode="&#xe8;" />
<glyph unicode="&#xe9;" />
<glyph unicode="&#xea;" />
<glyph unicode="&#xeb;" />
<glyph unicode="&#xee;" />
<glyph unicode="&#xef;" />
<glyph unicode="&#xf3;" />
<glyph unicode="&#xf4;" />
<glyph unicode="&#xf6;" />
<glyph unicode="&#xf9;" />
<glyph unicode="&#xfa;" />
<glyph unicode="&#xfb;" />
<glyph unicode="&#xfc;" />
<glyph unicode="&#x2000;" horiz-adv-x="722" />
<glyph unicode="&#x2001;" horiz-adv-x="1444" />
<glyph unicode="&#x2002;" horiz-adv-x="722" />
<glyph unicode="&#x2003;" horiz-adv-x="1444" />
<glyph unicode="&#x2004;" horiz-adv-x="481" />
<glyph unicode="&#x2005;" horiz-adv-x="361" />
<glyph unicode="&#x2006;" horiz-adv-x="240" />
<glyph unicode="&#x2007;" horiz-adv-x="240" />
<glyph unicode="&#x2008;" horiz-adv-x="180" />
<glyph unicode="&#x2009;" horiz-adv-x="288" />
<glyph unicode="&#x200a;" horiz-adv-x="80" />
<glyph unicode="&#x2010;" horiz-adv-x="702" d="M21 441.5q2 185.5 16 197.5q10 10 20 -18q2 -6 4 -15l13 -47h184q121 0 163 5t77 24q119 61 118 28q0 -23 13.5 -22.5t13.5 96.5t13.5 96t13.5 -147q0 -59 3 -118.5t5 -95.5t4 -65.5t0 -42t-10 -12.5q-14 0 -14.5 55.5t-16.5 55.5q-14 -6 -10 -28.5t1 -55.5t-20 -43 q-20 -10 -26 -1t-15 52q-4 23 -59 25t-289 -15l-164 -10l-8 -45q-2 -18 -8 -30.5t-12 -12.5q-12 4 -10 189.5zM107.5 453q-1.5 -33 15.5 -47q16 -12 207.5 4t206.5 30q12 12 8 45q-4 20 -15.5 26.5t-52.5 8.5q-59 2 -194.5 -8t-155.5 -18q-18 -8 -19.5 -41zM616 484.5 q0 -27.5 13.5 -27.5t13.5 27.5t-13.5 27.5t-13.5 -27.5z" />
<glyph unicode="&#x2011;" horiz-adv-x="702" d="M21 441.5q2 185.5 16 197.5q10 10 20 -18q2 -6 4 -15l13 -47h184q121 0 163 5t77 24q119 61 118 28q0 -23 13.5 -22.5t13.5 96.5t13.5 96t13.5 -147q0 -59 3 -118.5t5 -95.5t4 -65.5t0 -42t-10 -12.5q-14 0 -14.5 55.5t-16.5 55.5q-14 -6 -10 -28.5t1 -55.5t-20 -43 q-20 -10 -26 -1t-15 52q-4 23 -59 25t-289 -15l-164 -10l-8 -45q-2 -18 -8 -30.5t-12 -12.5q-12 4 -10 189.5zM107.5 453q-1.5 -33 15.5 -47q16 -12 207.5 4t206.5 30q12 12 8 45q-4 20 -15.5 26.5t-52.5 8.5q-59 2 -194.5 -8t-155.5 -18q-18 -8 -19.5 -41zM616 484.5 q0 -27.5 13.5 -27.5t13.5 27.5t-13.5 27.5t-13.5 -27.5z" />
<glyph unicode="&#x2012;" horiz-adv-x="702" d="M21 441.5q2 185.5 16 197.5q10 10 20 -18q2 -6 4 -15l13 -47h184q121 0 163 5t77 24q119 61 118 28q0 -23 13.5 -22.5t13.5 96.5t13.5 96t13.5 -147q0 -59 3 -118.5t5 -95.5t4 -65.5t0 -42t-10 -12.5q-14 0 -14.5 55.5t-16.5 55.5q-14 -6 -10 -28.5t1 -55.5t-20 -43 q-20 -10 -26 -1t-15 52q-4 23 -59 25t-289 -15l-164 -10l-8 -45q-2 -18 -8 -30.5t-12 -12.5q-12 4 -10 189.5zM107.5 453q-1.5 -33 15.5 -47q16 -12 207.5 4t206.5 30q12 12 8 45q-4 20 -15.5 26.5t-52.5 8.5q-59 2 -194.5 -8t-155.5 -18q-18 -8 -19.5 -41zM616 484.5 q0 -27.5 13.5 -27.5t13.5 27.5t-13.5 27.5t-13.5 -27.5z" />
<glyph unicode="&#x2013;" horiz-adv-x="1062" d="M20.5 441.5q3.5 185.5 24.5 197.5q16 10 31 -18q3 -6 6 -15l20 -47h285q187 0 252 5t119 24q184 61 182 28q0 -23 21 -22.5t21 96.5t21 96t21 -147q0 -59 4.5 -118.5t7.5 -95.5t6.5 -65.5t0 -42t-15.5 -12.5q-22 0 -22.5 55.5t-25.5 55.5q-22 -6 -15.5 -28.5t2 -55.5 t-31.5 -43q-31 -10 -40 -1t-23 52q-6 23 -91 25t-447 -15l-254 -10l-12 -45q-3 -18 -12.5 -30.5t-18.5 -12.5q-19 4 -15.5 189.5zM154.5 453q-2.5 -33 23.5 -47q25 -12 321 4t319 30q19 12 13 45q-7 20 -24.5 26.5t-81.5 8.5q-91 2 -300.5 -8t-240.5 -18q-27 -8 -29.5 -41z M940 484.5q0 -27.5 21 -27.5t21 27.5t-21 27.5t-21 -27.5z" />
<glyph unicode="&#x2014;" horiz-adv-x="2087" d="M21 441.5q6 185.5 49 197.5q31 10 62 -18q6 -6 13 -15l40 -47h569q374 0 504 5t238 24q368 61 365 28q0 -23 41.5 -22.5t41.5 96.5t42 96t42 -147q0 -59 9 -118.5t15.5 -95.5t12.5 -65.5t0 -42t-31 -12.5q-43 0 -44.5 55.5t-51.5 55.5q-43 -6 -30.5 -28.5t3 -55.5 t-62.5 -43q-61 -10 -80 -1t-46 52q-13 23 -183 25t-893 -15l-508 -10l-24 -45q-7 -18 -25.5 -30.5t-36.5 -12.5q-37 4 -31 189.5zM288.5 453q-4.5 -33 47.5 -47q50 -12 642 4t639 30q37 12 24 45q-12 20 -47.5 26.5t-162.5 8.5q-182 2 -601 -8t-481 -18q-56 -8 -60.5 -41z M1861 484.5q0 -27.5 41.5 -27.5t41.5 27.5t-41.5 27.5t-41.5 -27.5z" />
<glyph unicode="&#x201c;" horiz-adv-x="833" d="M23 1126q8 8 28.5 -10t20.5 -35q0 -29 18 -16q14 8 23 33q42 117 114 170q55 41 66 41q12 0 16 -9.5t0 -23.5t-16 -29q-27 -29 -27 -57.5t29 -87.5q23 -45 35 -53.5t57 -6.5l59 5l-34 -37q-35 -39 -41 -54q-6 -18 -99.5 -94t-101.5 -69q-27 14 -93.5 167.5t-53.5 165.5z M154 1047.5q0 -27.5 6 -60.5t16 -47q18 -29 33.5 -28t50.5 32q27 27 28.5 34t-16.5 19q-8 4 -34.5 24.5t-49 37t-26.5 16.5q-8 0 -8 -27.5zM174 852q-4 -10 6 -10q15 0 15 13t-7 13q-8 0 -14 -16zM461 1155q12 8 33 -20q20 -25 26 -9q10 25 43 61t64 54q18 12 48 19.5 t48 7.5t22 -8q0 -8 -22.5 -36t-41.5 -53.5t-24.5 -55.5t29.5 -44q20 -12 44 -32.5t39 -33t28 -12.5q43 0 -31 -102q-53 -74 -61 -90q-20 -37 -35 -17q-4 6 0 17q10 16 -2.5 26.5t-30.5 -0.5q-25 -12 -74 33q-37 35 -48 66.5t-18.5 77t-27.5 88.5q-25 53 -8 63zM565 1067 q-25 -61 37 -154q33 -49 84 -22q45 25 37 72q-8 41 -70 65q-45 19 -45 39q0 27 -16.5 27t-26.5 -27z" />
<glyph unicode="&#x201e;" horiz-adv-x="765" d="M47 -158q-70 18 35 64q68 31 79 64.5t-22 107.5q-37 74 -35 138.5t39 105.5q82 86 82 -41q0 -31 27 -94.5t35 -104.5q6 -35 1 -51.5t-28 -42.5q-35 -43 -35 -62q0 -14 -69.5 -84.5t-83.5 -72.5q-12 4 -5 16t5 31.5t-25 25.5zM164 182q-8 -14 13.5 -69.5t35.5 -55.5 q12 0 12 39q0 51 -37 84q-16 14 -24 2zM367.5 84q-5.5 0 13.5 27q25 25 25 59q0 31 17 54.5t44 27.5q16 2 22.5 15t8.5 48q4 61 18 56q10 -4 21 -43q14 -47 43 -49q18 0 26 24q12 53 37 -8q4 -12 8 -29q8 -29 25.5 -60.5t33 -57t28 -50t10 -46t-20.5 -36.5q-14 -12 -47 -58 t-63.5 -83t-47.5 -37q-16 0 -43.5 -27.5t-51 -53t-32.5 -21.5q-10 6 35 57q55 63 19 72h-17q-39 0 -40 16.5t40 40.5q43 25 46 45.5t-33 63.5q-27 33 -43.5 32.5t-16.5 -32.5q0 -29 -13 -29t-13 33q0 27 -16.5 38t-22 11zM485 174q-12 -16 0.5 -34.5t41 -48.5t42.5 -58 q29 -55 47 20q11 35 -26 88q-57 88 -105 33zM680 92.5q0 -20.5 13.5 -20.5t13.5 20.5t-13.5 20.5t-13.5 -20.5z" />
<glyph unicode="&#x2022;" />
<glyph unicode="&#x202f;" horiz-adv-x="288" />
<glyph unicode="&#x205f;" horiz-adv-x="361" />
<glyph unicode="&#x20ac;" horiz-adv-x="1228" d="M20 217q0 35 107 -96q70 -82 127 -172q14 -20 25.5 -24.5t33.5 1.5q35 8 36 26.5t-32 27.5q-41 10 -84 52t-71 99q-25 47 -31 80t-6 111q2 121 -9.5 120.5t-15.5 -30.5q-6 -35 -22 -35t-17 31q0 35 -22 34q-16 0 -17.5 16.5t9.5 67.5q4 18 6 30.5t5 35t7 43.5 q12 94 39 181t43 91q20 4 33 -26q8 -18 26.5 -27.5t61.5 -17.5q63 -10 81.5 0t22.5 55q4 63 70 170.5t127 184.5t65 77q2 0 0 -14.5t-4 -26.5t0 -14q4 0 41 13t95.5 27.5t113.5 14.5t90 -9t97 -42l100 -51l25 30q41 51 32 6q-6 -23 -24 -73q-25 -63 -58 -166 q-41 -125 -65 -141q-23 -14 -60 14q-31 23 -44 65.5t-52 77.5q-72 61 -155.5 31.5t-155.5 -143.5q-43 -70 2 -95q27 -12 89.5 -13t70.5 13q10 14 37 -8q27 -25 25.5 -90t-27.5 -80q-27 -14 -35 -45q-16 -55 -43 -115.5t-35 -60.5q-12 0 -8 25q2 16 -18.5 21t-100.5 7 q-123 4 -137 -10q-16 -18 -12 -95t24 -106q18 -31 59 -32.5t88 22.5q51 27 127 102.5t76 100.5q0 10 13.5 27.5t27.5 27.5t21 4q8 -8 34.5 -164.5t30.5 -210.5l4 -81l-178 -66q-111 -41 -158 -52t-88 -7q-43 4 -59 -2.5t-15 -17.5t-16.5 -27.5t-60.5 -26.5q-63 -14 -70 -14 q-4 0 -21.5 31.5t-58.5 98t-86 128.5q-76 100 -76 106zM122 527.5q1 -5.5 13 -9.5l45 -14q12 -4 14.5 -19.5t-6.5 -66.5q-20 -154 17 -246t135 -135q88 -37 214 -8.5t206 102.5q43 41 51 57.5t4 63.5q-8 76 -26.5 84t-71.5 -41q-43 -41 -90 -70.5t-97.5 -42t-89.5 -1 t-64.5 63.5t-23.5 142v68.5t7.5 42t11.5 29.5t28.5 12.5t43 6.5t67.5 -1q94 0 114.5 5t20.5 23t-15.5 23.5t-72.5 11.5q-61 4 -77.5 11.5t-24.5 31.5q-16 45 9 54.5t134 -0.5q131 -12 141.5 -6t10.5 38q0 25 -15.5 30t-99.5 9l-113 4l-4 49q-6 68 49.5 152t128.5 121 q80 43 160 21.5t119 -93.5q29 -51 42 -51t54 98q14 33 19.5 46.5t7.5 33t0 24.5t-17.5 18t-28.5 19.5t-48 22.5q-53 25 -142.5 25t-152.5 -25q-59 -23 -128 -85t-100 -122q-18 -35 -41.5 -104.5t-41 -116.5t-29.5 -51q-14 -4 -103.5 15.5t-97.5 10.5q-12 -12 -14 -51 q-2 -29 6 -36t46 -11t47 -12t13 -41q8 -94 -73 -78q-45 8 -62 -14q-10 -12 -9 -17.5zM780 49q10 -10 48 11.5t38 37.5q0 18 -16 25q-12 4 -45 -30t-25 -44z" />
<glyph unicode="&#x25fc;" horiz-adv-x="952" d="M0 0v952h952v-952h-952z" />
</font>
</defs>
</svg>
